<svg width="500" height="658" viewBox="0 0 500 658" fill="none" xmlns="http://www.w3.org/2000/svg">
<mask id="mask0_603_768" style="mask-type:luminance" maskUnits="userSpaceOnUse" x="73" y="96" width="354" height="466">
<path d="M375 492.98C444.036 402.225 444.036 255.082 375 164.327C305.964 73.5717 194.036 73.5718 125 164.327C55.9644 255.082 55.9644 402.225 125 492.98C194.036 583.735 305.964 583.735 375 492.98Z" fill="white"/>
</mask>
<g mask="url(#mask0_603_768)">
<path d="M259.031 377.138L273.958 336.321C273.958 336.321 351.879 368.7 363.522 376.206C363.223 350.597 373.15 302.617 374.232 276.322C377.18 272.642 384.308 263.37 388.003 263.713C399.198 298.055 396.773 415.796 374.755 417.906C339.564 420.85 259.031 377.138 259.031 377.138Z" fill="#B55B52"/>
<path d="M249.327 370.76C258.321 398.478 332.174 423.155 332.174 423.155L347.101 363.499C347.101 363.499 318.963 335.437 289.743 326.362C259.851 316.991 239.401 340.343 249.327 370.76Z" fill="#407BFF"/>
<path opacity="0.2" d="M250.633 373.995C259.403 391.411 292.019 407.208 313.253 415.989C299.109 379.882 280.04 359.964 250.633 373.995Z" fill="black"/>
<path d="M374.158 281.519L362.254 261.454L384.272 245.313C388.606 253.928 390.833 264.079 390.653 274.405L374.158 281.519Z" fill="#B55B52"/>
<path d="M359.006 233.687L380.464 229.125L384.271 245.315L362.253 261.455L359.006 233.687Z" fill="#B55B52"/>
<path d="M291.535 328.371C291.535 328.371 321.614 423.546 298.029 600.894H180.476C179.095 574.991 189.134 448.811 167.862 326.752C181.995 323.132 196.294 320.74 210.666 319.59C228.825 318.215 247.029 318.215 265.188 319.59C284.221 321.895 291.535 328.371 291.535 328.371Z" fill="#407BFF"/>
<path opacity="0.2" d="M196.261 356.824C198.799 376.939 194.88 424.967 181.334 480.453C180.662 432.907 176.816 385.53 169.84 338.869C178.423 337.495 193.873 337.887 196.261 356.824Z" fill="black"/>
<path d="M216.526 252.574C220.258 275.632 222.646 304.233 210.667 319.589C210.667 319.589 218.131 342.99 250.747 342.99C280.601 342.99 265.189 319.589 265.189 319.589C245.522 313.457 245.933 281.666 249.03 263.711L216.526 252.574Z" fill="#B55B52"/>
<path d="M252.277 341.126L259.367 351.428C259.607 351.784 259.774 352.213 259.852 352.677C259.93 353.14 259.918 353.622 259.815 354.078L257.539 363.154C257.411 363.651 257.171 364.087 256.851 364.402C256.532 364.717 256.147 364.898 255.747 364.92L248.284 365.41C247.923 365.44 247.563 365.342 247.242 365.126C246.92 364.91 246.648 364.585 246.455 364.184L241.865 355.402C241.595 354.928 241.45 354.351 241.45 353.759C241.45 353.166 241.595 352.59 241.865 352.115L249.329 341.126C249.72 340.614 250.25 340.326 250.803 340.326C251.355 340.326 251.885 340.614 252.277 341.126Z" fill="white"/>
<path d="M250.746 338.869C247.127 346.836 245.123 355.889 244.924 365.165C244.924 365.165 203.874 346.228 205.106 318.46C205.106 318.46 210.815 313.947 214.435 310.268C214.435 310.268 216.152 327.782 250.746 338.869Z" fill="#263238"/>
<path d="M250.747 338.869C254.621 346.332 257.464 354.636 259.144 363.398C259.144 363.398 277.355 346.914 271.272 319.49C267.853 317.69 264.335 316.23 260.748 315.124C260.748 315.124 263.51 332.982 250.747 338.869Z" fill="#263238"/>
<path d="M254.067 363.497C254.067 363.497 265.748 476.333 266.009 495.957C265.85 514.533 263.625 532.978 259.404 550.707C259.404 550.707 251.38 530.74 249.999 495.123C248.619 459.506 250.298 383.464 249.701 363.448L254.067 363.497Z" fill="white"/>
<path opacity="0.2" d="M249.029 263.76C246.626 276.24 246.911 289.353 249.85 301.633C246.813 301.016 243.86 299.826 241.081 298.101C229.885 291.233 224.25 280.489 218.316 264.545C217.794 260.424 217.197 256.45 216.562 252.574L249.029 263.76Z" fill="black"/>
<path d="M279.966 247.571C278.639 251.012 276.799 254.067 274.555 256.553C272.311 259.039 269.709 260.907 266.905 262.043C259.441 264.938 255.374 255.96 257.24 246.394C258.956 237.759 264.703 225.887 272.54 227.113C274.222 227.447 275.817 228.318 277.184 229.65C278.551 230.982 279.649 232.734 280.382 234.752C281.114 236.771 281.46 238.995 281.387 241.229C281.315 243.464 280.827 245.641 279.966 247.571Z" fill="#B55B52"/>
<path opacity="0.2" d="M279.966 247.571C278.639 251.012 276.799 254.067 274.555 256.553C272.311 259.039 269.709 260.907 266.905 262.043C259.441 264.938 255.374 255.96 257.24 246.394C258.956 237.759 264.703 225.887 272.54 227.113C274.222 227.447 275.817 228.318 277.184 229.65C278.551 230.982 279.649 232.734 280.382 234.752C281.114 236.771 281.46 238.995 281.387 241.229C281.315 243.464 280.827 245.641 279.966 247.571Z" fill="black"/>
<path d="M258.322 227.602C265.785 236.58 279.407 187.325 264.143 173.637C248.88 159.95 243.544 178.543 243.805 189.876C244.066 201.209 247.052 214.307 258.322 227.602Z" fill="#263238"/>
<path d="M207.343 219.314C210.851 250.515 211.71 269.01 224.659 284.072C244.102 306.688 272.203 289.713 275.748 257.923C278.957 229.273 272.688 183.01 248.841 172.56C243.619 170.227 238.025 169.722 232.61 171.095C227.194 172.468 222.144 175.671 217.956 180.389C213.768 185.107 210.587 191.177 208.727 198.003C206.866 204.828 206.389 212.173 207.343 219.314Z" fill="#B55B52"/>
<path d="M205.852 245.803C209.957 249.286 215.592 258.706 224.064 242.026C224.064 237.708 215.742 230.448 215.107 220.243C214.361 208.371 212.383 195.714 205.069 191.544C188.387 181.732 185.327 200.571 186.969 211.854C188.611 223.138 193.127 234.863 205.852 245.803Z" fill="#263238"/>
<path d="M203.613 202.534C242.983 194.489 266.233 192.722 278.063 173.344C289.892 153.966 271.718 129.976 251.94 127.229C250.522 137.335 230.482 163.925 199.694 175.454C197.98 176.073 196.438 177.329 195.253 179.07C194.067 180.811 193.288 182.964 193.009 185.272C192.729 187.58 192.961 189.944 193.677 192.083C194.393 194.222 195.562 196.045 197.045 197.334C200.814 200.523 203.613 202.534 203.613 202.534Z" fill="#263238"/>
<path d="M199.023 254.83C202.609 261.235 207.974 265.519 213.951 266.751C221.75 268.321 224.549 258.755 221.414 249.63C218.615 241.388 211.189 230.693 203.8 233.293C196.411 235.893 194.657 246.932 199.023 254.83Z" fill="#B55B52"/>
<path d="M243.581 225.054C243.581 227.605 244.924 229.617 246.156 229.469C247.387 229.322 248.283 227.213 248.134 224.564C247.984 221.914 246.827 220.05 245.559 220.148C244.29 220.246 243.432 222.307 243.581 225.054Z" fill="#263238"/>
<path d="M265.226 222.942C265.413 225.493 266.57 227.456 267.801 227.357C269.033 227.259 269.928 225.101 269.779 222.452C269.63 219.802 268.436 217.889 267.204 218.036C265.973 218.183 265.077 220.391 265.226 222.942Z" fill="#263238"/>
<path d="M258.435 225.053C261.235 232.66 264.799 239.739 269.033 246.099C267.803 247.46 266.357 248.444 264.801 248.979C263.246 249.513 261.619 249.585 260.039 249.19L258.435 225.053Z" fill="#A02724"/>
<path d="M254.924 256.5C254.996 256.495 255.067 256.469 255.131 256.426C255.195 256.382 255.252 256.322 255.298 256.248C255.343 256.174 255.377 256.089 255.396 255.997C255.415 255.905 255.42 255.809 255.409 255.715C255.404 255.619 255.385 255.524 255.353 255.437C255.32 255.35 255.275 255.273 255.219 255.209C255.164 255.145 255.099 255.096 255.029 255.065C254.959 255.034 254.886 255.022 254.812 255.029C252.41 255.295 249.994 254.817 247.758 253.632C245.522 252.448 243.528 250.591 241.937 248.209C241.893 248.132 241.838 248.067 241.775 248.018C241.711 247.968 241.641 247.936 241.569 247.922C241.496 247.909 241.422 247.914 241.351 247.938C241.279 247.962 241.212 248.004 241.154 248.062C241.095 248.12 241.045 248.193 241.008 248.276C240.97 248.359 240.946 248.451 240.935 248.547C240.925 248.643 240.929 248.74 240.947 248.834C240.965 248.927 240.998 249.015 241.042 249.092C242.735 251.699 244.88 253.733 247.296 255.022C249.712 256.311 252.328 256.818 254.924 256.5Z" fill="#263238"/>
<path d="M236.453 216.126C236.625 216.121 236.793 216.06 236.943 215.948C237.093 215.837 237.219 215.679 237.311 215.488C238.022 213.882 239.018 212.526 240.214 211.536C241.409 210.545 242.769 209.948 244.178 209.797C244.326 209.804 244.474 209.771 244.612 209.699C244.751 209.628 244.876 209.52 244.981 209.381C245.086 209.243 245.168 209.078 245.223 208.897C245.277 208.715 245.303 208.521 245.297 208.326C245.297 207.922 245.176 207.535 244.959 207.25C244.742 206.965 244.447 206.805 244.141 206.805C242.359 206.94 240.629 207.652 239.106 208.875C237.583 210.099 236.313 211.797 235.408 213.82C235.327 213.987 235.272 214.173 235.247 214.368C235.222 214.563 235.227 214.762 235.262 214.955C235.297 215.147 235.361 215.328 235.45 215.487C235.539 215.646 235.652 215.78 235.781 215.881C235.875 215.978 235.983 216.051 236.098 216.093C236.214 216.135 236.334 216.146 236.453 216.126Z" fill="#263238"/>
<path d="M274.294 211.856L274.742 211.611C274.871 211.503 274.981 211.361 275.066 211.194C275.152 211.027 275.21 210.839 275.238 210.641C275.266 210.444 275.263 210.24 275.229 210.044C275.195 209.848 275.131 209.664 275.04 209.502C274.074 207.491 272.758 205.81 271.201 204.599C269.644 203.388 267.89 202.681 266.084 202.535C265.934 202.535 265.785 202.575 265.647 202.652C265.508 202.729 265.383 202.842 265.279 202.983C265.174 203.125 265.093 203.293 265.039 203.478C264.985 203.662 264.959 203.859 264.964 204.056C264.974 204.451 265.1 204.825 265.316 205.1C265.532 205.374 265.821 205.528 266.121 205.528C267.553 205.667 268.938 206.251 270.165 207.232C271.391 208.213 272.422 209.562 273.174 211.17C273.301 211.4 273.47 211.584 273.666 211.704C273.862 211.824 274.078 211.877 274.294 211.856Z" fill="#263238"/>
<path d="M154.353 368.599L184.581 391.951C184.581 391.951 146.442 490.069 150.584 505.375C156.219 525.98 164.765 571.262 174.766 593.682C173.796 598.588 168.198 610.509 164.914 612.716C140.881 591.523 114.572 522.105 114.647 502.285C114.983 457.297 154.353 368.599 154.353 368.599Z" fill="#B55B52"/>
<path d="M167.862 326.752C145.247 331.07 121.177 434.682 121.177 434.682L174.691 457.102C184.23 433.579 192.498 409.201 199.433 384.151C209.36 345.885 192.119 322.092 167.862 326.752Z" fill="#407BFF"/>
</g>
</svg>
