<svg width="9" height="9" viewBox="0 0 9 9" fill="none" xmlns="http://www.w3.org/2000/svg">
<g id="copyright" clip-path="url(#clip0_859_266)">
<path id="Vector" d="M3.78 4.0725C3.79875 3.94875 3.84 3.84 3.8925 3.75C4.005 3.54 4.19625 3.43125 4.455 3.4275C4.62375 3.4275 4.7775 3.5025 4.88625 3.61125C4.99125 3.7275 5.0625 3.88875 5.0625 4.05H5.7375C5.73 3.87375 5.69625 3.7125 5.625 3.5625C5.56875 3.42 5.4825 3.2925 5.37 3.1875C4.82625 2.685 3.8175 2.75625 3.35625 3.32625C2.8725 3.9525 2.86125 5.0475 3.3525 5.67375C3.80625 6.2325 4.8 6.31125 5.34 5.8125C5.45625 5.71875 5.55 5.6025 5.625 5.4675C5.685 5.3325 5.72625 5.19 5.73 5.03625H5.0625C5.0625 5.115 5.03625 5.18625 5.0025 5.25C4.96875 5.32125 4.92375 5.3775 4.875 5.42625C4.75125 5.52375 4.605 5.57625 4.4475 5.57625C4.3125 5.5725 4.2 5.54625 4.11375 5.49C4.02 5.4375 3.9375 5.35125 3.8925 5.25C3.705 4.9125 3.735 4.44375 3.78 4.0725ZM4.5 0.75C2.4375 0.75 0.75 2.4375 0.75 4.5C0.94875 9.47625 8.0625 9.4725 8.25 4.5C8.25 2.4375 6.5625 0.75 4.5 0.75ZM4.5 7.5C2.84625 7.5 1.5 6.15375 1.5 4.5C1.665 0.52125 7.335 0.52125 7.5 4.5C7.5 6.15375 6.15375 7.5 4.5 7.5Z" fill="white"/>
</g>
<defs>
<clipPath id="clip0_859_266">
<rect width="9" height="9" fill="white"/>
</clipPath>
</defs>
</svg>
