<svg width="60" height="60" viewBox="0 0 60 60" fill="none" xmlns="http://www.w3.org/2000/svg">
<path opacity="0.928" fill-rule="evenodd" clip-rule="evenodd" d="M41.8946 0.879385C43.2232 0.859871 44.5514 0.879401 45.8789 0.937979C46.1329 1.03563 46.3087 1.21141 46.4063 1.46532C46.5767 2.44323 46.7525 3.41979 46.9336 4.39501C47.9703 4.65558 48.9273 5.08527 49.8047 5.68407C50.4989 5.17091 51.1825 4.64356 51.8555 4.10204C52.1914 3.93132 52.5429 3.89226 52.9102 3.98485C53.8636 4.82105 54.7817 5.69995 55.6641 6.62157C55.8348 6.95743 55.8739 7.30899 55.7813 7.67626C55.2132 8.47828 54.6468 9.27907 54.0821 10.0786C54.553 11.0423 54.9437 12.0383 55.2539 13.0669C56.067 13.2416 56.8873 13.3784 57.7149 13.477C58.0615 13.5039 58.3545 13.6406 58.5938 13.8872C58.782 15.3242 58.821 16.7695 58.711 18.2231C58.5742 18.5161 58.3594 18.7309 58.0664 18.8677C57.1301 18.9789 56.2122 19.1547 55.3125 19.395C55.0337 20.3876 54.6626 21.3447 54.1992 22.2661C54.7218 23.0958 55.2882 23.8965 55.8985 24.6684C55.9766 24.981 55.9766 25.2934 55.8985 25.6059C54.9805 26.5239 54.0625 27.4419 53.1446 28.3599C52.7973 28.5767 52.4458 28.5767 52.0899 28.3599C51.3672 27.7935 50.6446 27.227 49.9219 26.6606C49.0189 27.1999 48.0618 27.6295 47.0508 27.9497C46.811 28.9194 46.5961 29.8959 46.4063 30.8794C46.2695 31.0161 46.1329 31.1528 45.9961 31.2895C44.5899 31.3677 43.1836 31.3677 41.7774 31.2895C41.4725 31.18 41.2967 30.9652 41.25 30.645C41.0967 29.7087 40.96 28.7712 40.8399 27.8325C39.801 27.6063 38.8245 27.2158 37.9102 26.6606C37.1562 27.1603 36.4531 27.7268 35.8008 28.3599C35.3478 28.6083 34.918 28.5692 34.5117 28.2427C33.711 27.4419 32.9101 26.6411 32.1094 25.8403C31.8885 25.5574 31.8103 25.2449 31.875 24.9028C32.4121 23.9947 33.0176 23.1354 33.6914 22.3247C33.1684 21.3573 32.7777 20.3417 32.5196 19.2778C31.4548 19.1619 30.4001 18.9861 29.3555 18.7505C29.2148 18.6447 29.117 18.508 29.0625 18.3403C28.9844 16.8951 28.9844 15.4497 29.0625 14.0044C29.1993 13.8676 29.3359 13.731 29.4727 13.5942C30.481 13.3971 31.4966 13.2605 32.5196 13.1841C32.7476 12.1097 33.1383 11.094 33.6914 10.1372C33.1537 9.33521 32.5873 8.55396 31.9922 7.79345C31.7578 7.44188 31.7578 7.09032 31.9922 6.73876C32.9137 5.77809 33.8707 4.86013 34.8633 3.98485C35.1367 3.90672 35.4102 3.90672 35.6836 3.98485C36.4091 4.57373 37.1513 5.14014 37.9102 5.68407C38.8349 5.15468 39.8116 4.76406 40.8399 4.5122C40.9709 3.53606 41.1076 2.5595 41.25 1.58251C41.4094 1.28689 41.6242 1.05252 41.8946 0.879385ZM42.9492 2.87157C43.5352 2.87157 44.1211 2.87157 44.7071 2.87157C44.8381 3.76931 44.9748 4.66774 45.1172 5.56688C45.1717 5.73456 45.2694 5.87128 45.4102 5.97704C46.2453 6.20331 47.0656 6.47674 47.8711 6.79735C48.5011 7.22952 49.1651 7.60062 49.8633 7.91063C50.7816 7.4423 51.6215 6.85636 52.3828 6.15282C52.793 6.56298 53.2032 6.97313 53.6133 7.38329C52.9242 8.19558 52.3383 9.07448 51.8555 10.02C52.1946 10.8155 52.5657 11.5967 52.9688 12.3638C53.2356 13.0472 53.431 13.7503 53.5547 14.4731C53.697 14.6547 53.8728 14.7913 54.0821 14.8833C54.9812 15.0257 55.8796 15.1624 56.7774 15.2934C56.7774 15.9184 56.7774 16.5435 56.7774 17.1684C55.7753 17.2194 54.7988 17.3952 53.8477 17.6958C53.5883 18.3609 53.3735 19.0445 53.2032 19.7466C52.8071 20.6361 52.3969 21.515 51.9727 22.3833C52.4384 23.3383 53.0243 24.2172 53.7305 25.02C53.4004 25.4088 53.0488 25.78 52.6758 26.1333C52.5108 26.1702 52.3546 26.1312 52.2071 26.0161C51.6938 25.5417 51.147 25.112 50.5664 24.727C50.27 24.5604 49.9574 24.5214 49.6289 24.6099C48.3469 25.4071 46.9797 26.0126 45.5274 26.4263C45.4003 26.5628 45.3027 26.719 45.2344 26.895C45.0632 27.7122 44.9069 28.5325 44.7657 29.3559C44.1797 29.5122 43.5938 29.5122 43.0078 29.3559C42.8907 28.5356 42.7735 27.7153 42.6563 26.895C42.6157 26.6199 42.479 26.4051 42.2461 26.2505C40.7737 25.9828 39.4455 25.3969 38.2617 24.4927C37.8945 24.4001 37.5429 24.4391 37.2071 24.6099C36.5951 25.2264 35.931 25.7342 35.2149 26.1333C34.8419 25.78 34.4903 25.4088 34.1602 25.02C34.6259 24.3395 35.1141 23.6754 35.625 23.0278C35.7373 22.8287 35.7959 22.6138 35.8008 22.3833C35.4497 21.5436 35.0787 20.7038 34.6875 19.8638C34.4764 19.2925 34.3201 18.7065 34.2188 18.1059C34.0711 17.7628 33.8172 17.548 33.4571 17.4614C32.6024 17.3142 31.7431 17.2165 30.8789 17.1684C30.8789 16.5435 30.8789 15.9184 30.8789 15.2934C31.8176 15.1733 32.7551 15.0366 33.6914 14.8833C33.8591 14.8288 33.9958 14.7311 34.1016 14.5903C34.2996 13.7984 34.534 13.0171 34.8047 12.2466C35.2025 11.5297 35.5344 10.7875 35.8008 10.02C35.4449 9.09606 34.9176 8.27574 34.2188 7.55907C34.1406 7.44188 34.1406 7.3247 34.2188 7.20751C34.5703 6.85595 34.9219 6.50438 35.2735 6.15282C35.957 6.68017 36.6407 7.20751 37.3242 7.73485C37.5256 7.7754 37.7209 7.83399 37.9102 7.91063C39.2151 7.08273 40.6213 6.47726 42.1289 6.09423C42.4329 5.93731 42.6087 5.68342 42.6563 5.33251C42.7925 4.51587 42.8902 3.69555 42.9492 2.87157ZM42.9492 12.7153C45.1506 12.4397 46.6155 13.3382 47.3438 15.4106C47.577 18.3411 46.2293 19.806 43.3008 19.8052C41.4212 19.3513 40.4056 18.1599 40.2539 16.2309C40.4216 14.4857 41.32 13.3138 42.9492 12.7153Z" fill="#0569B6"/>
<path opacity="0.925" fill-rule="evenodd" clip-rule="evenodd" d="M20.0979 2.7539C20.6008 2.6994 21.0696 2.79705 21.5041 3.04687C22.6173 3.77935 23.7501 4.48247 24.9026 5.15624C25.2183 5.46719 25.3159 5.83829 25.1955 6.26953C24.422 7.70617 23.6017 9.11242 22.7346 10.4883C21.4311 10.9812 20.9233 10.5516 21.2112 9.19921C21.5727 8.67185 21.9047 8.12497 22.2072 7.55859C18.2392 8.833 14.8213 11.0205 11.9533 14.1211C11.2307 15 10.508 15.8789 9.78537 16.7578C8.40831 16.8771 8.03721 16.3107 8.67209 15.0586C12.0372 10.5217 16.3928 7.33809 21.7385 5.50781C21.084 5.11229 20.4395 4.70213 19.8049 4.27734C19.5244 3.69459 19.6221 3.18677 20.0979 2.7539Z" fill="#0569B6"/>
<path opacity="0.927" fill-rule="evenodd" clip-rule="evenodd" d="M43.1834 10.7229C45.5323 10.579 47.3487 11.4775 48.6326 13.4182C50.0739 16.5539 49.3903 19.1126 46.5818 21.094C43.9656 22.2895 41.6414 21.8794 39.6091 19.8635C38.0174 17.5415 37.9782 15.1977 39.4919 12.8323C40.4802 11.6844 41.7107 10.9813 43.1834 10.7229ZM42.949 12.7151C41.3197 13.3136 40.4214 14.4854 40.2537 16.2307C40.4053 18.1596 41.421 19.3511 43.3005 19.8049C46.2291 19.8057 47.5767 18.3409 47.3435 15.4104C46.6152 13.3379 45.1503 12.4395 42.949 12.7151Z" fill="#0569B6"/>
<path opacity="0.897" fill-rule="evenodd" clip-rule="evenodd" d="M15.0586 19.6288C15.5629 19.5463 15.973 19.7026 16.2891 20.0975C16.3673 20.6445 16.3673 21.1913 16.2891 21.7382C16.2305 21.953 16.0937 22.0897 15.8789 22.1483C15.3267 22.3174 14.8776 22.1808 14.5313 21.7382C14.4531 21.2304 14.4531 20.7225 14.5313 20.2147C14.6514 19.9584 14.8272 19.7631 15.0586 19.6288Z" fill="#0569B6"/>
<path opacity="0.874" fill-rule="evenodd" clip-rule="evenodd" d="M8.49619 21.3867C9.27997 21.4612 9.76824 21.8909 9.96104 22.6758C10.1309 23.2931 9.9161 23.7033 9.31651 23.9063C9.02691 23.989 8.75347 23.95 8.49619 23.7891C7.87178 23.2815 7.65693 22.637 7.85166 21.8555C8.02742 21.6247 8.24226 21.4685 8.49619 21.3867Z" fill="#0569B6"/>
<path opacity="0.875" fill-rule="evenodd" clip-rule="evenodd" d="M21.8555 21.3867C23.1056 21.563 23.3986 22.1879 22.7344 23.2617C21.865 24.267 21.1814 24.1692 20.6836 22.9688C20.8748 22.2899 21.2654 21.7625 21.8555 21.3867Z" fill="#0569B6"/>
<path opacity="0.938" fill-rule="evenodd" clip-rule="evenodd" d="M14.004 23.0277C19.5536 22.6861 23.4794 25.0299 25.7813 30.059C27.1755 34.5994 26.199 38.5446 22.8516 41.8949C22.2084 42.6348 21.8178 43.4942 21.6798 44.473C21.4712 45.7444 21.2563 47.014 21.0352 48.2816C22.1625 48.9728 22.7093 49.9884 22.6759 51.3285C22.6112 53.2409 21.6347 54.276 19.7462 54.434C19.5233 57.0592 18.0975 58.5046 15.4688 58.7699C12.7772 58.5586 11.3123 57.1133 11.0743 54.434C9.72599 54.3563 8.80803 53.6922 8.3204 52.4418C8.1898 51.4445 8.26793 50.4679 8.55477 49.5121C8.83446 49.0371 9.22508 48.6856 9.72665 48.4574C9.58343 47.0502 9.38811 45.644 9.14071 44.2386C9.03121 43.7538 8.87495 43.2851 8.67196 42.8324C7.8907 41.8167 7.10946 40.8012 6.32821 39.7855C3.99795 35.6749 4.07608 31.6125 6.56258 27.598C8.44709 25.1031 10.9276 23.5797 14.004 23.0277ZM14.4727 24.9027C18.6304 24.7106 21.6969 26.4293 23.672 30.059C24.9703 33.0051 24.775 35.8566 23.086 38.6136C22.4659 39.4293 21.8019 40.2106 21.0938 40.9574C20.4415 41.8329 20.0117 42.8094 19.8048 43.8871C19.577 45.2926 19.3622 46.6989 19.1602 48.1058C18.2227 48.1058 17.2852 48.1058 16.3477 48.1058C16.3477 44.6292 16.3477 41.1527 16.3477 37.6761C17.7457 37.2138 18.4878 36.2372 18.5743 34.7465C18.3399 32.8715 17.2852 31.8168 15.4102 31.5824C13.5337 31.8183 12.479 32.873 12.2462 34.7465C12.3482 36.1633 13.0514 37.1398 14.3556 37.6761C14.4727 41.1518 14.5118 44.6284 14.4727 48.1058C13.5352 48.1058 12.5977 48.1058 11.6602 48.1058C11.4434 46.3358 11.1504 44.578 10.7813 42.8324C10.1654 41.4836 9.34512 40.2726 8.3204 39.1996C5.82833 35.4082 5.94552 31.6972 8.67196 28.0668C10.2357 26.3185 12.1693 25.2638 14.4727 24.9027ZM14.9415 33.5746C16.1706 33.4559 16.6979 34.0028 16.5235 35.2152C16.1949 35.7876 15.7262 36.0219 15.1173 35.9183C14.0172 35.2159 13.9586 34.4347 14.9415 33.5746ZM10.7227 50.098C13.887 50.0784 17.0511 50.098 20.2149 50.1566C20.4297 50.2152 20.5665 50.352 20.6251 50.5668C20.7434 51.1595 20.6849 51.7259 20.4493 52.266C20.2633 52.367 20.068 52.4452 19.8634 52.5004C16.8947 52.5785 13.9258 52.5785 10.9571 52.5004C10.349 52.3206 10.0756 51.9104 10.1368 51.2699C10.0874 50.7436 10.2827 50.3529 10.7227 50.098ZM13.0665 54.434C14.67 54.3949 16.2716 54.4341 17.8712 54.5511C17.5056 56.2628 16.4509 56.9854 14.7071 56.7191C13.6297 56.327 13.0829 55.5653 13.0665 54.434Z" fill="#0569B6"/>
<path opacity="0.876" fill-rule="evenodd" clip-rule="evenodd" d="M3.57425 26.3086C4.18369 26.4274 4.75009 26.6618 5.27346 27.0117C5.68033 27.8773 5.42642 28.4242 4.51175 28.6523C3.90948 28.5172 3.38214 28.2438 2.92971 27.832C2.6901 27.098 2.90494 26.5902 3.57425 26.3086Z" fill="#0569B6"/>
<path opacity="0.877" fill-rule="evenodd" clip-rule="evenodd" d="M26.6599 26.309C27.3808 26.2684 27.8105 26.6005 27.949 27.3051C27.6649 28.0552 27.1181 28.5044 26.3084 28.6527C25.4908 28.4236 25.2368 27.9158 25.5467 27.1293C25.9062 26.8266 26.2773 26.5532 26.6599 26.309Z" fill="#0569B6"/>
<path opacity="0.882" fill-rule="evenodd" clip-rule="evenodd" d="M1.58198 32.9887C2.16922 32.9693 2.75515 32.9888 3.33979 33.0473C3.86402 33.5231 3.92261 34.0504 3.51557 34.6293C2.84399 34.9182 2.16039 34.9378 1.46479 34.6879C0.995205 34.0861 1.03427 33.5196 1.58198 32.9887Z" fill="#0569B6"/>
<path opacity="0.894" fill-rule="evenodd" clip-rule="evenodd" d="M27.5978 32.9887C28.1461 32.9693 28.6929 32.9888 29.2384 33.0473C29.8923 33.6902 29.8533 34.2761 29.1212 34.8051C28.5602 34.9081 28.0134 34.869 27.4806 34.6879C26.8917 34.0849 26.9308 33.5184 27.5978 32.9887Z" fill="#0569B6"/>
<path opacity="0.884" fill-rule="evenodd" clip-rule="evenodd" d="M4.16016 39.3169C5.11614 39.2376 5.5263 39.6673 5.39063 40.606C4.89603 41.3316 4.21244 41.6245 3.33985 41.4849C3.12501 41.4263 2.98828 41.2895 2.92969 41.0747C2.85156 40.7622 2.85156 40.4497 2.92969 40.1372C3.281 39.7577 3.69115 39.4844 4.16016 39.3169Z" fill="#0569B6"/>
<path opacity="0.88" fill-rule="evenodd" clip-rule="evenodd" d="M25.9568 39.3164C26.6601 39.2578 27.246 39.4922 27.7146 40.0195C28.0017 40.487 27.9627 40.9363 27.5974 41.3672C26.802 41.6646 26.1183 41.4888 25.5467 40.8398C25.2359 40.1999 25.3725 39.6921 25.9568 39.3164Z" fill="#0569B6"/>
<path opacity="0.923" fill-rule="evenodd" clip-rule="evenodd" d="M49.8634 43.0668C50.9365 42.9483 51.3857 43.417 51.2111 44.473C47.9742 49.2312 43.6187 52.532 38.1447 54.3753C38.7992 54.7709 39.4437 55.181 40.0783 55.6058C40.4312 56.7371 40.0211 57.2253 38.8478 57.0707C37.4318 56.275 36.0451 55.4352 34.6876 54.5511C34.521 54.2546 34.482 53.9421 34.5705 53.6136C35.4054 52.1972 36.2843 50.8105 37.2072 49.4535C38.4906 49.0575 38.9788 49.5067 38.672 50.8011C38.3169 51.2931 37.9849 51.801 37.6759 52.3246C37.7149 52.3636 37.7541 52.4027 37.7931 52.4418C42.8452 50.6309 46.8686 47.5058 49.8634 43.0668Z" fill="#0569B6"/>
</svg>
