<svg width="60" height="60" viewBox="0 0 60 60" fill="none" xmlns="http://www.w3.org/2000/svg">
<g clip-path="url(#clip0_1156_111)">
<path opacity="0.962" fill-rule="evenodd" clip-rule="evenodd" d="M15.5274 0.879394C20.5275 0.859864 25.5276 0.879395 30.5274 0.937988C30.6347 0.981844 30.7325 1.04044 30.8203 1.11377C31.0143 5.94767 31.0533 10.7914 30.9375 15.645C30.7227 16.1724 30.3516 16.5435 29.8242 16.7583C25.293 16.8365 20.7618 16.8365 16.2305 16.7583C15.5138 16.4711 15.1036 15.9437 15 15.1763C14.9219 10.6841 14.9219 6.19189 15 1.69971C15.0621 1.33818 15.2379 1.06475 15.5274 0.879394ZM16.9336 2.75439C17.8321 2.75439 18.7305 2.75439 19.6289 2.75439C19.576 4.55963 19.6346 6.3565 19.8047 8.14502C19.9105 8.28581 20.0472 8.38347 20.2149 8.43799C22.0899 8.51612 23.9649 8.51612 25.8399 8.43799C25.9472 8.39414 26.045 8.33554 26.1328 8.26221C26.305 6.4375 26.3636 4.60157 26.3086 2.75439C27.2071 2.75439 28.1055 2.75439 29.0039 2.75439C29.0039 6.8169 29.0039 10.8794 29.0039 14.9419C24.9805 14.9419 20.957 14.9419 16.9336 14.9419C16.9336 10.8794 16.9336 6.8169 16.9336 2.75439ZM21.6211 2.75439C22.5196 2.75439 23.418 2.75439 24.3164 2.75439C24.3164 4.0044 24.3164 5.25439 24.3164 6.50439C23.418 6.50439 22.5196 6.50439 21.6211 6.50439C21.6211 5.25439 21.6211 4.0044 21.6211 2.75439Z" fill="#0569B6"/>
<path opacity="0.963" fill-rule="evenodd" clip-rule="evenodd" d="M10.2539 5.80078C10.4958 5.8227 10.7302 5.88129 10.957 5.97656C11.783 6.68545 12.6423 7.34952 13.5352 7.96875C14.1601 8.55469 14.1601 9.14062 13.5352 9.72656C12.6423 10.3458 11.783 11.0099 10.957 11.7188C9.77436 12.0347 9.28608 11.5854 9.49219 10.3711C9.66797 10.1953 9.84375 10.0195 10.0195 9.84375C7.1289 9.80469 4.23829 9.76562 1.34766 9.72656C1.13281 9.66797 0.996094 9.53125 0.9375 9.31641C0.859375 9.0039 0.859375 8.69141 0.9375 8.37891C0.996094 8.16407 1.13281 8.02734 1.34766 7.96875C4.23829 7.92969 7.1289 7.89062 10.0195 7.85156C9.41385 7.4051 9.27713 6.8387 9.60938 6.15234C9.82923 6.02242 10.0441 5.90523 10.2539 5.80078Z" fill="#0569B6"/>
<path opacity="0.971" fill-rule="evenodd" clip-rule="evenodd" d="M32.6367 7.44143C40.3418 7.38367 48.037 7.44226 55.7227 7.61721C55.8352 7.78354 55.9328 7.95933 56.0156 8.14455C56.0938 15.4883 56.0938 22.832 56.0156 30.1758C55.9354 30.4755 55.7596 30.6904 55.4883 30.8203C49.0039 30.8594 42.5195 30.8985 36.0352 30.9375C36.7521 31.5359 36.7911 32.161 36.1523 32.8125C35.6413 33.0338 35.1725 32.9557 34.7461 32.5781C33.9062 31.8946 33.0664 31.2109 32.2266 30.5274C31.9922 30.1368 31.9922 29.7461 32.2266 29.3555C33.0664 28.6719 33.9062 27.9883 34.7461 27.3047C35.4103 26.7315 36.0158 26.7901 36.5625 27.4805C36.7343 28.094 36.5585 28.5822 36.0352 28.9453C42.0506 29.0039 48.0663 29.0235 54.082 29.0039C54.082 22.4414 54.082 15.8789 54.082 9.31643C46.9335 9.33596 39.785 9.31643 32.6367 9.25783C31.8649 8.65311 31.8649 8.04765 32.6367 7.44143Z" fill="#0569B6"/>
<path opacity="0.962" fill-rule="evenodd" clip-rule="evenodd" d="M15.5274 21.9722C20.5275 21.9526 25.5276 21.9722 30.5274 22.0308C30.6347 22.0746 30.7325 22.1332 30.8203 22.2066C31.0143 27.0404 31.0533 31.8843 30.9375 36.7378C30.7227 37.2652 30.3516 37.6363 29.8242 37.8511C25.293 37.9293 20.7618 37.9293 16.2305 37.8511C15.5138 37.5639 15.1036 37.0365 15 36.2691C14.9219 31.7769 14.9219 27.2846 15 22.7925C15.0621 22.431 15.2379 22.1576 15.5274 21.9722ZM16.9336 23.8472C17.8321 23.8472 18.7305 23.8472 19.6289 23.8472C19.576 25.6525 19.6346 27.4493 19.8047 29.2378C19.9105 29.3786 20.0472 29.4763 20.2149 29.5308C22.0899 29.6089 23.9649 29.6089 25.8399 29.5308C25.9472 29.4869 26.045 29.4284 26.1328 29.355C26.305 27.5303 26.3636 25.6944 26.3086 23.8472C27.2071 23.8472 28.1055 23.8472 29.0039 23.8472C29.0039 27.9097 29.0039 31.9721 29.0039 36.0347C24.9805 36.0347 20.957 36.0347 16.9336 36.0347C16.9336 31.9721 16.9336 27.9097 16.9336 23.8472ZM21.6211 23.8472C22.5196 23.8472 23.418 23.8472 24.3164 23.8472C24.3164 25.0972 24.3164 26.3471 24.3164 27.5972C23.418 27.5972 22.5196 27.5972 21.6211 27.5972C21.6211 26.3471 21.6211 25.0972 21.6211 23.8472Z" fill="#0569B6"/>
<path opacity="0.964" fill-rule="evenodd" clip-rule="evenodd" d="M4.39453 28.5347C7.4026 28.5151 10.4104 28.5347 13.418 28.5933C14.006 29.0295 14.1036 29.5568 13.7109 30.1753C13.623 30.2487 13.5253 30.3073 13.418 30.3511C10.8792 30.4097 8.34014 30.4293 5.80078 30.4097C5.80078 36.9722 5.80078 43.5347 5.80078 50.0972C11.8165 50.1168 17.8322 50.0972 23.8477 50.0386C23.1307 49.4402 23.0917 48.8152 23.7305 48.1636C24.2415 47.9423 24.7103 48.0204 25.1367 48.398C25.9766 49.0815 26.8164 49.7652 27.6563 50.4487C27.9213 51.0096 27.8236 51.4979 27.3633 51.9136C26.5998 52.4713 25.8577 53.0572 25.1367 53.6714C24.4725 54.2446 23.867 54.186 23.3203 53.4956C23.1485 52.8821 23.3243 52.3939 23.8477 52.0308C17.2754 52.0298 10.713 51.9517 4.16016 51.7964C3.99689 51.6592 3.89924 51.4834 3.86719 51.2691C3.78906 43.9253 3.78906 36.5816 3.86719 29.2378C3.93733 28.9151 4.11311 28.6807 4.39453 28.5347Z" fill="#0569B6"/>
<path opacity="0.963" fill-rule="evenodd" clip-rule="evenodd" d="M29.3555 43.0659C34.3557 43.0464 39.3557 43.0659 44.3555 43.1245C44.6595 43.2814 44.8353 43.5354 44.8828 43.8862C44.961 48.3784 44.961 52.8707 44.8828 57.3628C44.7792 58.1303 44.3691 58.6576 43.6524 58.9448C39.1211 59.023 34.5899 59.023 30.0586 58.9448C29.5313 58.73 29.1601 58.3589 28.9453 57.8316C28.8672 53.0659 28.8672 48.3003 28.9453 43.5347C29.0262 43.3179 29.1628 43.1616 29.3555 43.0659ZM30.8789 44.9409C31.7774 44.9409 32.6758 44.9409 33.5742 44.9409C33.5193 46.7882 33.5779 48.624 33.75 50.4487C33.8379 50.5221 33.9357 50.5807 34.043 50.6245C35.918 50.7027 37.793 50.7027 39.668 50.6245C39.9393 50.4946 40.1151 50.2796 40.1953 49.98C40.2539 48.3008 40.2735 46.6211 40.2539 44.9409C41.1524 44.9409 42.0508 44.9409 42.9492 44.9409C42.9492 49.0035 42.9492 53.0659 42.9492 57.1284C38.9258 57.1284 34.9023 57.1284 30.8789 57.1284C30.8789 53.0659 30.8789 49.0035 30.8789 44.9409ZM35.5664 44.9409C36.4649 44.9409 37.3633 44.9409 38.2617 44.9409C38.2617 46.191 38.2617 47.4409 38.2617 48.6909C37.3633 48.6909 36.4649 48.6909 35.5664 48.6909C35.5664 47.4409 35.5664 46.191 35.5664 44.9409Z" fill="#0569B6"/>
<path opacity="0.963" fill-rule="evenodd" clip-rule="evenodd" d="M55.3711 47.9883C55.613 48.0102 55.8474 48.0688 56.0743 48.1641C56.9514 48.8954 57.8499 49.5986 58.7696 50.2734C59.0821 50.7812 59.0821 51.2891 58.7696 51.7969C57.8499 52.4718 56.9514 53.1749 56.0743 53.9062C54.8916 54.2222 54.4033 53.7729 54.6094 52.5586C54.7688 52.3705 54.9446 52.1947 55.1368 52.0312C52.2461 51.9922 49.3555 51.9531 46.4649 51.9141C45.8768 51.4779 45.7792 50.9505 46.1719 50.332C46.2598 50.2587 46.3575 50.2001 46.4649 50.1562C49.3555 50.1172 52.2461 50.0781 55.1368 50.0391C54.5312 49.5979 54.3946 49.0314 54.7266 48.3398C54.9464 48.2099 55.1612 48.0927 55.3711 47.9883Z" fill="#0569B6"/>
</g>
<defs>
<clipPath id="clip0_1156_111">
<rect width="60" height="60" fill="white"/>
</clipPath>
</defs>
</svg>
