<svg width="20" height="20" viewBox="0 0 20 20" fill="none" xmlns="http://www.w3.org/2000/svg">
<g id="react-icons/fi/FiLinkedin">
<path id="Vector (Stroke)" fill-rule="evenodd" clip-rule="evenodd" d="M13.3333 7.50016C12.2283 7.50016 11.1685 7.93915 10.3871 8.72055C9.60565 9.50195 9.16667 10.5618 9.16667 11.6668V16.6668H10.8333V11.6668C10.8333 11.0038 11.0967 10.3679 11.5656 9.89906C12.0344 9.43022 12.6703 9.16683 13.3333 9.16683C13.9964 9.16683 14.6323 9.43022 15.1011 9.89906C15.5699 10.3679 15.8333 11.0038 15.8333 11.6668V16.6668H17.5V11.6668C17.5 10.5618 17.061 9.50195 16.2796 8.72055C15.4982 7.93915 14.4384 7.50016 13.3333 7.50016ZM9.20854 7.54204C10.3025 6.44808 11.7862 5.8335 13.3333 5.8335C14.8804 5.8335 16.3642 6.44808 17.4581 7.54204C18.5521 8.636 19.1667 10.1197 19.1667 11.6668V17.5002C19.1667 17.9604 18.7936 18.3335 18.3333 18.3335H15C14.5398 18.3335 14.1667 17.9604 14.1667 17.5002V11.6668C14.1667 11.4458 14.0789 11.2339 13.9226 11.0776C13.7663 10.9213 13.5543 10.8335 13.3333 10.8335C13.1123 10.8335 12.9004 10.9213 12.7441 11.0776C12.5878 11.2339 12.5 11.4458 12.5 11.6668V17.5002C12.5 17.9604 12.1269 18.3335 11.6667 18.3335H8.33333C7.8731 18.3335 7.5 17.9604 7.5 17.5002V11.6668C7.5 10.1197 8.11458 8.636 9.20854 7.54204Z" fill="white" fill-opacity="0.44"/>
<path id="Vector (Stroke)_2" fill-rule="evenodd" clip-rule="evenodd" d="M0.833496 7.49984C0.833496 7.0396 1.20659 6.6665 1.66683 6.6665H5.00016C5.4604 6.6665 5.8335 7.0396 5.8335 7.49984V17.4998C5.8335 17.9601 5.4604 18.3332 5.00016 18.3332H1.66683C1.20659 18.3332 0.833496 17.9601 0.833496 17.4998V7.49984ZM2.50016 8.33317V16.6665H4.16683V8.33317H2.50016Z" fill="white" fill-opacity="0.44"/>
<path id="Vector (Stroke)_3" fill-rule="evenodd" clip-rule="evenodd" d="M3.3335 2.50016C2.87326 2.50016 2.50016 2.87326 2.50016 3.3335C2.50016 3.79373 2.87326 4.16683 3.3335 4.16683C3.79373 4.16683 4.16683 3.79373 4.16683 3.3335C4.16683 2.87326 3.79373 2.50016 3.3335 2.50016ZM0.833496 3.3335C0.833496 1.95278 1.95278 0.833496 3.3335 0.833496C4.71421 0.833496 5.8335 1.95278 5.8335 3.3335C5.8335 4.71421 4.71421 5.8335 3.3335 5.8335C1.95278 5.8335 0.833496 4.71421 0.833496 3.3335Z" fill="white" fill-opacity="0.44"/>
</g>
</svg>
