<svg width="342" height="449" viewBox="0 0 342 449" fill="none" xmlns="http://www.w3.org/2000/svg">
<mask id="mask0_603_802" style="mask-type:luminance" maskUnits="userSpaceOnUse" x="0" y="0" width="342" height="449">
<path d="M170.532 448.367C264.714 448.367 341.064 347.996 341.064 224.183C341.064 100.37 264.714 0 170.532 0C76.3498 0 0 100.37 0 224.183C0 347.996 76.3498 448.367 170.532 448.367Z" fill="white"/>
</mask>
<g mask="url(#mask0_603_802)">
<path d="M162.683 53.8087C137.087 50.7799 121.139 102.555 126.467 181.589C158.867 205.773 195.983 181.589 225.683 201.04C253.151 145.81 245.843 21.2484 162.683 53.8087Z" fill="black"/>
<path d="M122.724 282.584C119.045 300.539 113.866 317.903 107.28 334.359C103.734 343.363 99.3037 351.717 94.1036 359.205C92.5795 361.357 90.9306 363.351 89.1716 365.168C86.4124 368.297 83.1123 370.491 79.5596 371.557C76.8237 372.292 73.9923 372.13 71.3156 371.084C68.9347 370.131 66.7372 368.517 64.8716 366.351C62.5234 363.571 60.6151 360.21 59.2556 356.46C57.4766 351.43 56.1593 346.14 55.3316 340.7C54.5554 336.014 53.9784 331.274 53.6036 326.503C52.8116 317.037 52.4516 308.235 52.3436 299.243C52.145 281.463 52.7581 263.684 54.1796 246.001L67.4276 246.332C68.5796 263.37 69.9116 280.596 71.6036 297.35C72.5036 305.726 73.5116 314.056 74.8076 322.007C75.4556 325.935 76.2116 329.815 77.0036 333.365C77.6518 336.436 78.5826 339.392 79.7755 342.168C80.1715 343.019 80.6756 343.493 80.0636 342.593C79.4428 341.89 78.7204 341.359 77.9396 341.032C76.8562 340.592 75.7091 340.495 74.5916 340.748C72.9716 341.126 72.8636 341.742 73.5116 340.748C74.2698 339.734 74.9792 338.659 75.6356 337.53C78.9188 331.632 81.707 325.285 83.9516 318.599C86.5758 311.303 88.9071 303.831 90.9356 296.214C93.0956 288.594 95.1115 280.407 96.8755 273.024L122.724 282.584Z" fill="#FFB573"/>
<path d="M104.941 237.008C94.1411 240.652 86.5811 299.053 86.5811 299.053L127.873 335.967C127.873 335.967 144.865 266.729 136.549 251.111C128.233 235.494 120.781 231.566 104.941 237.008Z" fill="#0569B6"/>
<path opacity="0.2" d="M105.913 250.07L97.5972 308.944L114.337 323.852L105.913 250.07Z" fill="#0569B6"/>
<path d="M68.0043 251.205L73.4763 214.906L51.5164 223.283C51.5164 223.283 49.3563 248.413 58.2123 256.695L68.0043 251.205Z" fill="#FFB573"/>
<path d="M71.2801 198.957L53.136 208.848L51.5161 223.283L73.476 214.906L71.2801 198.957Z" fill="#FFB573"/>
<path d="M104.94 237.008C104.94 237.008 92.4478 242.829 117.468 444.911H223.848C222.084 388.12 222.012 352.862 242.712 236.014C227.814 231.989 212.715 229.379 197.532 228.205C181.448 226.689 165.303 226.689 149.22 228.205C128.484 230.714 104.94 237.008 104.94 237.008Z" fill="#0569B6"/>
<path opacity="0.2" d="M233.964 282.3C224.316 285.423 215.388 299.29 216.468 324.893C217.07 336.478 220.152 347.602 225.36 356.98C227.052 337.387 229.896 314.623 234.432 285.565L233.964 282.3Z" fill="#0569B6"/>
<path d="M154.837 273.022C154.837 273.022 172.261 291.953 172.261 311.972C186.661 298.01 206.281 259.913 208.261 235.73C208.33 234.749 208.247 233.761 208.017 232.824C207.788 231.887 207.416 231.021 206.925 230.278C206.434 229.535 205.833 228.93 205.16 228.501C204.486 228.071 203.753 227.826 203.005 227.779C201.7 227.664 200.401 227.442 199.117 227.116C198.575 226.965 198.013 226.98 197.476 227.16C196.939 227.341 196.441 227.682 196.021 228.157L154.837 273.022Z" fill="#FAFAFA"/>
<path d="M154.836 273.023C150.088 277.645 146.096 283.475 143.097 290.166C140.097 296.857 138.152 304.273 137.376 311.972C122.688 297.774 128.772 254.093 136.944 233.458C137.586 231.848 138.52 230.471 139.662 229.448C140.805 228.424 142.122 227.786 143.496 227.59C145.62 227.259 147.276 226.88 148.356 226.596C148.551 226.542 148.752 226.541 148.947 226.594C149.142 226.646 149.326 226.752 149.489 226.903C149.651 227.054 149.788 227.248 149.89 227.472C149.993 227.696 150.059 227.946 150.084 228.205L154.836 273.023Z" fill="#FAFAFA"/>
<path d="M192.78 156.696C189.756 177.141 186.696 214.576 197.568 228.206C185.78 246.776 171.257 262.021 154.872 273.024C133.272 250.355 149.257 228.206 149.257 228.206C166.609 222.764 166.141 205.868 163.117 189.966L192.78 156.696Z" fill="#FFB573"/>
<path opacity="0.2" d="M180.648 170.279L163.116 189.967C163.849 193.66 164.343 197.428 164.592 201.231C171.216 200 181.62 192.57 183.06 183.105C183.082 178.632 182.253 174.223 180.648 170.279Z" fill="#0569B6"/>
<path d="M218.808 123.852C211.608 156.696 209.124 170.799 193.428 184.193C169.848 204.259 140.724 185.47 140.292 150.449C139.896 118.93 151.74 70.5156 178.776 64.5052C184.732 63.144 190.855 63.8074 196.561 66.4326C202.268 69.0577 207.369 73.5572 211.38 79.5038C215.391 85.4504 218.179 92.6466 219.479 100.409C220.779 108.171 220.548 116.24 218.808 123.852Z" fill="#FFB573"/>
<path d="M199.621 93.2313C204.013 126.028 205.705 138.712 214.525 147.183C223.345 155.654 231.553 116.752 225.037 101.797C218.521 86.8423 199.621 93.2313 199.621 93.2313Z" fill="black"/>
<path d="M158.148 62.469C152.856 70.7038 163.728 87.9305 174.276 93.5623C173.627 91.7548 173.156 89.8466 172.872 87.8832C180.488 94.7288 189.048 99.5518 198.072 102.081C197.055 100.387 196.374 98.3861 196.092 96.2599C196.092 94.6508 222.084 117.273 225.864 100.993C229.644 84.7123 216.756 63.4156 197.064 56.6007C180.288 51.0635 164.664 52.2939 158.148 62.469Z" fill="black"/>
<path d="M176.905 120.918C176.473 123.615 174.997 125.65 173.629 125.082C172.261 124.514 171.577 122.195 172.045 119.45C172.513 116.706 173.953 114.718 175.321 115.286C176.689 115.854 177.373 117.983 176.905 120.918Z" fill="black"/>
<path d="M153.612 114.103C153.144 116.801 151.668 118.836 150.336 118.268C149.004 117.7 148.248 115.381 148.716 112.636C149.184 109.891 150.624 107.903 151.992 108.471C153.36 109.039 154.044 111.358 153.612 114.103Z" fill="black"/>
<path d="M152.569 108.802L147.925 105.441C147.925 105.441 149.581 111.262 152.569 108.802Z" fill="black"/>
<path d="M159.948 121.059C157.071 126.699 153.618 131.795 149.688 136.203C150.586 137.531 151.698 138.578 152.944 139.266C154.191 139.954 155.538 140.266 156.888 140.178L159.948 121.059Z" fill="#ED893E"/>
<path d="M166.176 154.092C165.136 153.986 164.102 153.796 163.08 153.524C162.921 153.468 162.783 153.334 162.696 153.149C162.609 152.964 162.579 152.743 162.612 152.53C162.629 152.423 162.662 152.321 162.71 152.231C162.758 152.142 162.819 152.066 162.89 152.008C162.96 151.951 163.039 151.913 163.122 151.897C163.204 151.88 163.288 151.887 163.368 151.915C165.919 152.732 168.58 152.751 171.137 151.97C173.695 151.189 176.077 149.63 178.092 147.419C178.213 147.265 178.374 147.18 178.542 147.18C178.71 147.18 178.872 147.265 178.992 147.419C179.099 147.575 179.157 147.777 179.157 147.986C179.157 148.196 179.099 148.398 178.992 148.554C177.24 150.544 175.205 152.058 173.006 153.008C170.806 153.959 168.485 154.327 166.176 154.092Z" fill="black"/>
<path d="M220.464 156.647C217.643 162.099 213.293 165.859 208.368 167.106C201.816 168.716 199.116 160.812 201.456 152.909C203.544 145.952 209.448 136.77 215.856 138.711C217.251 139.16 218.537 140.066 219.595 141.343C220.653 142.619 221.448 144.227 221.908 146.015C222.367 147.804 222.476 149.716 222.223 151.575C221.971 153.433 221.366 155.178 220.464 156.647Z" fill="#FFB573"/>
<path d="M188.352 114.953C188.091 114.915 187.847 114.765 187.658 114.525C187.47 114.285 187.346 113.97 187.308 113.628C186.69 111.09 185.68 108.746 184.343 106.743C183.005 104.74 181.367 103.12 179.532 101.986C179.36 101.917 179.201 101.801 179.066 101.644C178.931 101.488 178.823 101.296 178.75 101.08C178.676 100.864 178.638 100.63 178.639 100.394C178.64 100.157 178.679 99.9238 178.755 99.7089C178.83 99.4941 178.939 99.3029 179.075 99.1483C179.211 98.9936 179.371 98.8791 179.544 98.8123C179.716 98.7456 179.898 98.7283 180.076 98.7615C180.254 98.7947 180.424 98.8775 180.576 99.0046C182.784 100.374 184.743 102.349 186.32 104.799C187.898 107.248 189.057 110.114 189.72 113.202C189.774 113.622 189.703 114.052 189.522 114.404C189.341 114.757 189.064 115.004 188.748 115.096L188.352 114.953Z" fill="black"/>
<path d="M149.003 92.381C148.784 92.3894 148.566 92.3244 148.371 92.1919C148.176 92.0595 148.009 91.864 147.887 91.6237C147.709 91.2586 147.647 90.816 147.714 90.3912C147.781 89.9664 147.973 89.5934 148.247 89.3522C149.869 87.8817 151.734 86.9426 153.688 86.6133C155.642 86.2839 157.628 86.5738 159.479 87.459C159.633 87.5411 159.773 87.6639 159.89 87.8195C160.007 87.9751 160.099 88.1604 160.16 88.3641C160.22 88.5679 160.249 88.7859 160.243 89.0045C160.238 89.2232 160.198 89.4382 160.127 89.6361C160.061 89.8288 159.967 90.0025 159.849 90.1473C159.732 90.292 159.594 90.405 159.444 90.4797C159.294 90.5544 159.133 90.5894 158.973 90.5827C158.812 90.576 158.654 90.5277 158.507 90.4406C157.029 89.787 155.456 89.5964 153.912 89.884C152.368 90.1715 150.897 90.9294 149.615 92.097C149.434 92.2603 149.222 92.3582 149.003 92.381Z" fill="black"/>
<path d="M175.861 115.616L171.253 112.256C171.253 112.256 172.909 117.982 175.861 115.616Z" fill="black"/>
<path d="M225.468 436.725L228.168 449.219C228.564 450.213 227.664 451.207 226.44 451.207H116.928C115.956 451.207 115.164 450.544 115.128 449.787L114.156 437.246C114.156 436.394 114.912 435.637 115.956 435.637H223.74C224.075 435.602 224.412 435.684 224.715 435.875C225.019 436.066 225.278 436.36 225.468 436.725Z" fill="#407BFF"/>
<path opacity="0.2" d="M225.468 436.725L228.168 449.219C228.564 450.213 227.664 451.207 226.44 451.207H116.928C115.956 451.207 115.164 450.544 115.128 449.787L114.156 437.246C114.156 436.394 114.912 435.637 115.956 435.637H223.74C224.075 435.602 224.412 435.684 224.715 435.875C225.019 436.066 225.278 436.36 225.468 436.725Z" fill="#0569B6"/>
<path d="M210.78 452.531H213.66C214.236 452.531 214.668 452.152 214.632 451.679L213.264 435.399C213.264 434.925 212.724 434.547 212.148 434.547H209.268C208.692 434.547 208.26 434.925 208.296 435.399L209.664 451.679C209.556 452.152 210.06 452.531 210.78 452.531Z" fill="#407BFF"/>
<path opacity="0.4" d="M210.78 452.531H213.66C214.236 452.531 214.668 452.152 214.632 451.679L213.264 435.399C213.264 434.925 212.724 434.547 212.148 434.547H209.268C208.692 434.547 208.26 434.925 208.296 435.399L209.664 451.679C209.556 452.152 210.06 452.531 210.78 452.531Z" fill="#0569B6"/>
<path d="M125.027 452.531H127.907C128.483 452.531 128.951 452.152 128.915 451.679L127.547 435.399C127.547 434.925 127.007 434.547 126.431 434.547H123.551C122.975 434.547 122.543 434.925 122.579 435.399L123.911 451.679C123.947 452.152 124.379 452.531 125.027 452.531Z" fill="#407BFF"/>
<path opacity="0.4" d="M125.027 452.531H127.907C128.483 452.531 128.951 452.152 128.915 451.679L127.547 435.399C127.547 434.925 127.007 434.547 126.431 434.547H123.551C122.975 434.547 122.543 434.925 122.579 435.399L123.911 451.679C123.947 452.152 124.379 452.531 125.027 452.531Z" fill="#0569B6"/>
<path d="M167.58 452.531H170.46C171.036 452.531 171.468 452.152 171.432 451.679L170.1 435.399C170.1 434.925 169.56 434.547 168.984 434.547H166.104C165.528 434.547 165.06 434.925 165.096 435.399L166.464 451.679C166.572 452.152 167.076 452.531 167.58 452.531Z" fill="#407BFF"/>
<path opacity="0.4" d="M167.58 452.531H170.46C171.036 452.531 171.468 452.152 171.432 451.679L170.1 435.399C170.1 434.925 169.56 434.547 168.984 434.547H166.104C165.528 434.547 165.06 434.925 165.096 435.399L166.464 451.679C166.572 452.152 167.076 452.531 167.58 452.531Z" fill="#0569B6"/>
<path d="M255.133 277.519C256.321 289.35 257.257 301.182 258.337 313.013L261.073 348.555C262.045 360.386 262.729 372.218 263.521 384.097L264.781 401.939L265.069 406.387C265.069 406.861 265.069 408.706 265.249 409.984C265.303 411.356 265.303 412.73 265.249 414.102C264.814 419.186 263.588 424.1 261.649 428.536C258.523 435.383 254.386 441.337 249.481 446.047C245.366 450.114 241.007 453.739 236.449 456.884C227.926 462.642 219.08 467.531 209.989 471.508C192.382 479.272 174.322 485.128 155.989 489.019L153.037 472.029C161.425 468.384 169.993 464.646 178.237 460.481C186.481 456.316 194.833 452.199 202.789 447.419C210.63 442.906 218.231 437.704 225.541 431.849C228.891 429.143 232.081 426.105 235.081 422.762C237.418 420.268 239.363 417.197 240.805 413.723C241.118 412.964 241.302 412.124 241.345 411.262L240.733 405.63L238.825 387.93C237.565 376.146 236.161 364.267 235.225 352.53L231.805 317.083C230.833 305.204 229.681 293.42 228.853 281.541L255.133 277.519Z" fill="#FFB573"/>
<path d="M242.713 236.014C253.513 240.273 266.185 288.546 266.185 288.546L228.781 339.043C228.781 339.043 209.629 286.984 214.129 269.048C218.881 250.165 230.545 231.187 242.713 236.014Z" fill="#0569B6"/>
</g>
</svg>
