<svg width="56" height="56" viewBox="0 0 56 56" fill="none" xmlns="http://www.w3.org/2000/svg">
<g clip-path="url(#clip0_106_70)">
<path d="M19.508 1.84193C13.9128 3.78298 9.08742 7.46716 5.74075 12.3533C2.39408 17.2395 0.702502 23.0701 0.914475 28.9887C1.12645 34.9072 3.2308 40.6019 6.91844 45.2361C10.6061 49.8703 15.6826 53.1999 21.4024 54.7357C26.0396 55.9322 30.898 55.9848 35.5599 54.8888C39.7832 53.9402 43.6877 51.911 46.8912 49.0001C50.2253 45.8778 52.6453 41.9059 53.8912 37.5113C55.2449 32.7323 55.4858 27.7067 54.5955 22.8201H28.5555V33.6219H43.6362C43.3348 35.3448 42.6889 36.9891 41.7372 38.4564C40.7855 39.9238 39.5475 41.1841 38.0974 42.1619C36.2561 43.3805 34.1802 44.2002 32.003 44.5682C29.8197 44.9743 27.5802 44.9743 25.3968 44.5682C23.1837 44.1111 21.0902 43.1978 19.2499 41.8863C16.2931 39.7933 14.0729 36.8197 12.9062 33.3901C11.7201 29.8961 11.7201 26.1084 12.9062 22.6144C13.7367 20.1654 15.1096 17.9355 16.9224 16.0913C18.997 13.9421 21.6235 12.4058 24.5137 11.651C27.404 10.8962 30.4462 10.9521 33.3068 11.8126C35.5415 12.4982 37.5851 13.6968 39.2743 15.3126C40.9747 13.6209 42.6722 11.9248 44.3668 10.2244C45.2418 9.31005 46.1955 8.43943 47.0574 7.50318C44.4785 5.10357 41.4515 3.23626 38.1499 2.00818C32.1374 -0.174992 25.5586 -0.233662 19.508 1.84193Z" fill="white"/>
<path d="M19.5081 1.84186C25.5582 -0.235144 32.137 -0.178018 38.15 2.00373C41.4522 3.24015 44.4778 5.11646 47.0531 7.52498C46.1781 8.46123 45.255 9.33623 44.3625 10.2462C42.665 11.9408 40.969 13.6296 39.2744 15.3125C37.5852 13.6967 35.5416 12.4981 33.3069 11.8125C30.4473 10.949 27.4051 10.8899 24.5141 11.6416C21.6231 12.3933 18.995 13.9268 16.9181 16.0737C15.1053 17.918 13.7324 20.1478 12.9019 22.5969L3.83252 15.575C7.07881 9.13744 12.6995 4.21321 19.5081 1.84186Z" fill="#E33629"/>
<path d="M1.42628 22.5312C1.91339 20.1152 2.7227 17.7755 3.83253 15.575L12.9019 22.6143C11.7158 26.1083 11.7158 29.896 12.9019 33.39C9.88023 35.7233 6.85711 38.0683 3.83253 40.425C1.05506 34.8963 0.207982 28.5971 1.42628 22.5312Z" fill="#F8BD00"/>
<path d="M28.5557 22.8157H54.5957C55.4859 27.7023 55.245 32.7279 53.8913 37.5069C52.6454 41.9015 50.2254 45.8734 46.8913 48.9957C43.9644 46.7119 41.0244 44.4457 38.0975 42.1619C39.5486 41.1831 40.7871 39.9215 41.7389 38.4525C42.6906 36.9835 43.336 35.3376 43.6363 33.6132H28.5557C28.5513 30.0169 28.5557 26.4163 28.5557 22.8157Z" fill="#587DBD"/>
<path d="M3.82812 40.4249C6.85271 38.0916 9.87583 35.7466 12.8975 33.3899C14.0665 36.8208 16.2899 39.7944 19.25 41.8861C21.096 43.1915 23.194 44.0975 25.41 44.5461C27.5934 44.9522 29.8329 44.9522 32.0163 44.5461C34.1934 44.1781 36.2693 43.3585 38.1106 42.1399C41.0375 44.4236 43.9775 46.6899 46.9044 48.9736C43.7014 51.8862 39.7968 53.9169 35.5731 54.8668C30.9112 55.9627 26.0528 55.9102 21.4156 54.7136C17.7481 53.7344 14.3223 52.0081 11.3531 49.643C8.21068 47.1476 5.6439 44.0033 3.82812 40.4249Z" fill="#319F43"/>
</g>
<defs>
<clipPath id="clip0_106_70">
<rect width="56" height="56" fill="white"/>
</clipPath>
</defs>
</svg>
