<svg width="60" height="60" viewBox="0 0 60 60" fill="none" xmlns="http://www.w3.org/2000/svg">
<g clip-path="url(#clip0_1156_173)">
<path opacity="0.943" fill-rule="evenodd" clip-rule="evenodd" d="M59.9414 20.5665C59.9414 21.7774 59.9414 22.9885 59.9414 24.1994C59.4928 26.6174 58.6139 28.883 57.3047 30.9962C55.6564 33.5875 53.7814 36.0094 51.6797 38.2619C45.2402 44.7836 38.1894 50.5063 30.5273 55.4298C30.1368 55.508 29.7461 55.508 29.3555 55.4298C21.6934 50.5063 14.6426 44.7836 8.20312 38.2619C6.10138 36.0094 4.22638 33.5875 2.57812 30.9962C1.26892 28.883 0.390015 26.6174 -0.0585938 24.1994C-0.0585938 22.9885 -0.0585938 21.7774 -0.0585938 20.5665C0.96047 13.8199 4.51515 8.91756 10.6055 5.85952C17.691 3.0821 24.1363 4.15633 29.9414 9.08217C35.5253 4.30391 41.7752 3.15156 48.6914 5.62514C55.1217 8.58168 58.8717 13.5621 59.9414 20.5665ZM17.7539 6.73842C22.3274 6.85753 26.1554 8.59581 29.2383 11.9533C29.707 12.1876 30.1758 12.1876 30.6445 11.9533C35.5225 6.9547 41.2646 5.62658 47.8711 7.96889C53.9173 10.8555 57.1205 15.6601 57.4805 22.383C57.5285 23.481 57.3919 24.5553 57.0703 25.6056C56.135 28.2194 54.807 30.6021 53.0859 32.754C50.145 36.3982 46.8832 39.7381 43.3008 42.7736C39.0363 46.3701 34.5832 49.7099 29.9414 52.7931C22.872 48.1687 16.329 42.8562 10.3125 36.8556C8.33721 34.7249 6.54034 32.4593 4.92188 30.0587C1.72287 25.0504 1.56661 19.9331 4.45312 14.7072C7.49053 9.73906 11.9242 7.08281 17.7539 6.73842Z" fill="#0569B6"/>
<path opacity="0.89" fill-rule="evenodd" clip-rule="evenodd" d="M40.3713 10.8399C41.6587 10.7406 42.186 11.3265 41.9533 12.5977C41.3379 13.4151 40.6348 13.4933 39.8439 12.8321C39.3866 11.9972 39.5624 11.3332 40.3713 10.8399Z" fill="#0569B6"/>
<path opacity="0.935" fill-rule="evenodd" clip-rule="evenodd" d="M44.9413 11.0742C47.7143 11.6505 49.9213 13.0958 51.5623 15.4102C53.144 17.6748 53.8081 20.1748 53.5545 22.9102C52.9006 23.7918 52.1975 23.8309 51.4452 23.0273C51.3444 19.752 50.0749 17.0371 47.6366 14.8828C46.5679 14.1886 45.4546 13.5832 44.2967 13.0664C43.9034 12.1801 44.1182 11.5161 44.9413 11.0742Z" fill="#0569B6"/>
</g>
<defs>
<clipPath id="clip0_1156_173">
<rect width="60" height="60" fill="white"/>
</clipPath>
</defs>
</svg>
