<svg width="21" height="21" viewBox="0 0 21 21" fill="none" xmlns="http://www.w3.org/2000/svg">
<g id="react-icons/fi/FiArrowRight">
<path id="Vector (Stroke)" fill-rule="evenodd" clip-rule="evenodd" d="M3.4873 10.5853C3.4873 10.125 3.8604 9.75195 4.32064 9.75195H15.9873C16.4475 9.75195 16.8206 10.125 16.8206 10.5853C16.8206 11.0455 16.4475 11.4186 15.9873 11.4186H4.32064C3.8604 11.4186 3.4873 11.0455 3.4873 10.5853Z" fill="#0569B6"/>
<path id="Vector (Stroke)_2" fill-rule="evenodd" clip-rule="evenodd" d="M9.56439 4.16205C9.88983 3.83661 10.4175 3.83661 10.7429 4.16205L16.5762 9.99538C16.9017 10.3208 16.9017 10.8485 16.5762 11.1739L10.7429 17.0072C10.4175 17.3327 9.88983 17.3327 9.56439 17.0072C9.23895 16.6818 9.23895 16.1542 9.56439 15.8287L14.8085 10.5846L9.56439 5.34056C9.23895 5.01512 9.23895 4.48748 9.56439 4.16205Z" fill="#0569B6"/>
</g>
</svg>
