<svg width="61" height="60" viewBox="0 0 61 60" fill="none" xmlns="http://www.w3.org/2000/svg">
<path opacity="0.897" fill-rule="evenodd" clip-rule="evenodd" d="M28.5844 1.23068C33.904 0.816952 38.6307 2.26227 42.7641 5.56661C42.7682 4.20513 42.7878 2.83794 42.8227 1.46505C43.075 1.23725 43.368 1.17866 43.7016 1.28927C43.8648 1.42651 43.9626 1.60229 43.9946 1.81661C44.1086 3.72998 44.1477 5.64404 44.1118 7.5588C43.937 7.73502 43.7222 7.83268 43.4672 7.85177C41.5931 7.96895 39.718 8.008 37.8422 7.96896C37.4799 7.48639 37.558 7.09577 38.0766 6.79708C39.3681 6.75791 40.6572 6.67978 41.9438 6.56271C36.5847 2.41317 30.6863 1.4366 24.2485 3.63302C21.903 4.49666 19.8718 5.82478 18.1547 7.61739C17.2053 8.01492 16.8537 7.72195 17.1 6.73849C20.301 3.60087 24.1291 1.76493 28.5844 1.23068Z" fill="#0569B6"/>
<path opacity="0.915" fill-rule="evenodd" clip-rule="evenodd" d="M13.5845 9.78515C15.3428 9.76563 17.1006 9.78516 18.8579 9.84375C19.1576 9.92405 19.3725 10.0998 19.5024 10.3711C19.5609 10.799 19.5804 11.2287 19.561 11.6602C21.9051 11.6406 24.2489 11.6602 26.5923 11.7187C27.5768 11.9611 28.2213 12.5665 28.5259 13.5352C28.604 24.2774 28.604 35.0195 28.5259 45.7617C28.1832 46.6123 27.5777 47.1787 26.7095 47.4609C19.7172 47.5391 12.7251 47.5391 5.73291 47.4609C4.86465 47.1787 4.25917 46.6123 3.91651 45.7617C3.83838 35.0195 3.83838 24.2774 3.91651 13.5352C4.22104 12.5665 4.86557 11.9611 5.8501 11.7187C8.19352 11.6602 10.5373 11.6406 12.8814 11.6602C12.862 11.2287 12.8815 10.799 12.9399 10.3711C13.0697 10.0649 13.2845 9.86956 13.5845 9.78515ZM14.1704 11.0742C15.5376 11.0742 16.9047 11.0742 18.272 11.0742C18.272 12.793 18.272 14.5117 18.272 16.2305C16.9047 16.2305 15.5376 16.2305 14.1704 16.2305C14.1704 14.5117 14.1704 12.793 14.1704 11.0742ZM6.08448 12.9492C8.3501 12.9492 10.6157 12.9492 12.8814 12.9492C12.8814 13.4961 12.8814 14.0429 12.8814 14.5898C10.9278 14.5703 8.97471 14.5898 7.02198 14.6484C6.88525 14.707 6.7876 14.8046 6.72901 14.9414C6.65088 24.707 6.65088 34.4727 6.72901 44.2383C6.77286 44.3456 6.83145 44.4434 6.90479 44.5312C13.1157 44.6094 19.3267 44.6094 25.5376 44.5312C25.611 44.4434 25.6696 44.3456 25.7134 44.2383C25.7915 34.4727 25.7915 24.707 25.7134 14.9414C25.6548 14.8046 25.5572 14.707 25.4204 14.6484C23.4677 14.5898 21.5146 14.5703 19.561 14.5898C19.561 14.0429 19.561 13.4961 19.561 12.9492C21.827 12.9296 24.0927 12.9492 26.3579 13.0078C26.7607 13.1373 27.0537 13.3912 27.2368 13.7695C27.315 24.3164 27.315 34.8633 27.2368 45.4102C27.061 45.7421 26.8071 45.9961 26.4751 46.1719C19.6392 46.25 12.8032 46.25 5.96729 46.1719C5.63526 45.9961 5.38135 45.7421 5.20557 45.4102C5.12744 34.8633 5.12744 24.3164 5.20557 13.7695C5.40976 13.3891 5.70273 13.1157 6.08448 12.9492ZM7.95948 15.8789C9.6001 15.8789 11.2407 15.8789 12.8814 15.8789C12.862 16.2326 12.8816 16.5841 12.9399 16.9336C13.0376 17.1875 13.2133 17.3633 13.4673 17.4609C15.3033 17.5391 17.1391 17.5391 18.9751 17.4609C19.229 17.3633 19.4048 17.1875 19.5024 16.9336C19.5608 16.5841 19.5804 16.2326 19.561 15.8789C21.2017 15.8789 22.8423 15.8789 24.4829 15.8789C24.4829 25.0586 24.4829 34.2383 24.4829 43.418C18.9751 43.418 13.4673 43.418 7.95948 43.418C7.95948 34.2383 7.95948 25.0586 7.95948 15.8789ZM16.6314 22.793C18.272 22.793 19.9126 22.793 21.5532 22.793C21.5532 23.0273 21.5532 23.2617 21.5532 23.4961C19.9126 23.4961 18.272 23.4961 16.6314 23.4961C16.6314 23.2617 16.6314 23.0273 16.6314 22.793ZM16.6314 29.2383C18.272 29.2383 19.9126 29.2383 21.5532 29.2383C21.5532 29.4727 21.5532 29.707 21.5532 29.9414C19.9126 29.9414 18.272 29.9414 16.6314 29.9414C16.6314 29.707 16.6314 29.4727 16.6314 29.2383ZM16.6314 35.6836C18.272 35.6836 19.9126 35.6836 21.5532 35.6836C21.5532 35.918 21.5532 36.1523 21.5532 36.3867C19.9126 36.3867 18.272 36.3867 16.6314 36.3867C16.6314 36.1523 16.6314 35.918 16.6314 35.6836Z" fill="#0569B6"/>
<path opacity="0.9" fill-rule="evenodd" clip-rule="evenodd" d="M47.3345 11.543C48.0311 11.5778 48.6953 11.7537 49.3267 12.0703C51.9893 13.1774 54.626 14.3297 57.2368 15.5273C57.315 18.1055 57.315 20.6836 57.2368 23.2617C54.1386 24.6919 50.994 26.02 47.8032 27.2461C44.8622 26.0898 41.9325 24.8984 39.0142 23.6719C38.7092 23.5684 38.4553 23.3926 38.2524 23.1445C38.1561 20.6004 38.1757 18.0614 38.311 15.5273C41.3121 14.1632 44.3198 12.835 47.3345 11.543ZM47.686 12.832C50.122 13.8352 52.5439 14.8704 54.9517 15.9375C52.556 16.9498 50.1536 17.9459 47.7446 18.9258C45.3813 17.9297 43.0181 16.9336 40.6548 15.9375C40.7518 15.8303 40.869 15.7522 41.0063 15.7031C43.2688 14.8003 45.4953 13.8432 47.686 12.832ZM39.4829 16.9336C42.0219 17.9393 44.5414 18.994 47.0415 20.0977C47.1197 21.9336 47.1197 23.7695 47.0415 25.6055C44.5678 24.5399 42.0874 23.4852 39.6001 22.4414C39.483 20.6072 39.4439 18.7712 39.4829 16.9336ZM55.772 16.9336C55.9279 17.809 56.0061 18.727 56.0063 19.6875C55.9868 20.6054 55.9673 21.5235 55.9478 22.4414C53.4758 23.5112 50.9954 24.5659 48.5063 25.6055C48.3697 23.7708 48.3501 21.9348 48.4478 20.0977C50.9047 19.0541 53.3461 17.9994 55.772 16.9336Z" fill="#0569B6"/>
<path opacity="0.87" fill-rule="evenodd" clip-rule="evenodd" d="M13.8187 21.1525C14.5411 21.0738 14.8341 21.3864 14.6976 22.09C13.8223 23.0826 12.9044 24.0396 11.9437 24.9611C11.6312 25.1954 11.3187 25.1954 11.0062 24.9611C10.557 24.5119 10.1077 24.0626 9.65851 23.6134C9.42354 22.7943 9.71651 22.4622 10.5374 22.6173C10.8368 22.9992 11.1884 23.2728 11.5921 23.4376C12.358 22.6913 13.1002 21.9296 13.8187 21.1525Z" fill="#0569B6"/>
<path opacity="0.906" fill-rule="evenodd" clip-rule="evenodd" d="M16.0455 21.5039C18.0772 21.4844 20.1084 21.5039 22.1392 21.5625C22.3882 21.694 22.603 21.8698 22.7838 22.0899C22.8619 22.754 22.8619 23.4179 22.7838 24.082C22.647 24.375 22.4322 24.5898 22.1392 24.7266C20.1471 24.8047 18.1549 24.8047 16.1627 24.7266C15.5075 24.4128 15.2341 23.8854 15.3424 23.1445C15.2621 22.4473 15.4965 21.9005 16.0455 21.5039ZM16.6314 22.793C16.6314 23.0274 16.6314 23.2617 16.6314 23.4961C18.2721 23.4961 19.9127 23.4961 21.5533 23.4961C21.5533 23.2617 21.5533 23.0274 21.5533 22.793C19.9127 22.793 18.2721 22.793 16.6314 22.793Z" fill="#0569B6"/>
<path opacity="0.871" fill-rule="evenodd" clip-rule="evenodd" d="M13.9363 27.5977C14.6163 27.634 14.8703 27.9855 14.698 28.6523C13.7409 29.6094 12.784 30.5664 11.8269 31.5234C11.5373 31.6062 11.2639 31.5671 11.0066 31.4062C10.5574 30.9571 10.1081 30.5078 9.65892 30.0586C9.41755 29.2455 9.71052 28.9136 10.5378 29.0625C10.8372 29.4444 11.1888 29.7179 11.5925 29.8828C12.3615 29.0941 13.1428 28.3324 13.9363 27.5977Z" fill="#0569B6"/>
<path opacity="0.906" fill-rule="evenodd" clip-rule="evenodd" d="M16.1626 27.9492C18.1552 27.9297 20.1474 27.9492 22.1392 28.0078C22.4322 28.1446 22.647 28.3594 22.7837 28.6524C22.8619 29.3165 22.8619 29.9804 22.7837 30.6445C22.6029 30.8646 22.3881 31.0404 22.1392 31.1719C20.108 31.2501 18.0767 31.2501 16.0455 31.1719C15.4804 30.8025 15.246 30.2752 15.3423 29.5899C15.2494 28.8381 15.5228 28.2912 16.1626 27.9492ZM16.6314 29.2383C16.6314 29.4727 16.6314 29.707 16.6314 29.9414C18.272 29.9414 19.9126 29.9414 21.5533 29.9414C21.5533 29.707 21.5533 29.4727 21.5533 29.2383C19.9126 29.2383 18.272 29.2383 16.6314 29.2383Z" fill="#0569B6"/>
<path opacity="0.9" fill-rule="evenodd" clip-rule="evenodd" d="M47.3345 31.8165C47.7377 31.7932 48.1283 31.8518 48.5063 31.9923C51.4516 33.1949 54.3617 34.4644 57.2368 35.8009C57.315 38.379 57.315 40.9571 57.2368 43.5353C54.1386 44.9654 50.994 46.2935 47.8032 47.5196C44.7745 46.3472 41.7668 45.1167 38.7798 43.8282C38.5705 43.7362 38.3947 43.5996 38.2524 43.4181C38.1561 40.8739 38.1757 38.3349 38.311 35.8009C41.3121 34.4367 44.3198 33.1085 47.3345 31.8165ZM47.686 33.1056C50.122 34.1087 52.5439 35.1439 54.9517 36.211C52.5689 37.2071 50.186 38.2032 47.8032 39.1993C45.4204 38.2032 43.0376 37.2071 40.6548 36.211C40.7518 36.1038 40.869 36.0258 41.0063 35.9767C43.2688 35.0738 45.4953 34.1168 47.686 33.1056ZM39.4829 37.2071C42.0219 38.2128 44.5414 39.2675 47.0415 40.3712C47.1197 42.2072 47.1197 44.043 47.0415 45.879C44.5678 44.8134 42.0874 43.7587 39.6001 42.7149C39.483 40.8807 39.4439 39.0447 39.4829 37.2071ZM55.772 37.2071C55.9279 38.0825 56.0061 39.0006 56.0063 39.961C55.9868 40.879 55.9673 41.797 55.9478 42.7149C53.4758 43.7847 50.9954 44.8394 48.5063 45.879C48.3697 44.0443 48.3501 42.2083 48.4478 40.3712C50.9047 39.3276 53.3461 38.2729 55.772 37.2071Z" fill="#0569B6"/>
<path opacity="0.875" fill-rule="evenodd" clip-rule="evenodd" d="M14.0534 34.043C14.6767 34.1398 14.8917 34.4913 14.698 35.0977C13.7409 36.0547 12.7839 37.0117 11.8269 37.9688C11.5925 38.0469 11.3581 38.0469 11.1237 37.9688C10.6355 37.4804 10.1472 36.9922 9.65889 36.5039C9.46004 35.5983 9.79206 35.3053 10.655 35.625C10.916 35.9689 11.2285 36.2033 11.5925 36.3281C12.3681 35.4929 13.1885 34.7312 14.0534 34.043Z" fill="#0569B6"/>
<path opacity="0.907" fill-rule="evenodd" clip-rule="evenodd" d="M16.2798 34.3945C18.1943 34.375 20.1083 34.3945 22.022 34.4531C22.3833 34.5453 22.6371 34.7601 22.7837 35.0977C22.8619 35.7618 22.8619 36.4258 22.7837 37.0899C22.647 37.3047 22.4712 37.4804 22.2564 37.6172C20.186 37.6954 18.1158 37.6954 16.0454 37.6172C15.7023 37.4695 15.4875 37.2156 15.4009 36.8555C15.3227 36.3086 15.3227 35.7618 15.4009 35.2149C15.608 34.8314 15.9009 34.558 16.2798 34.3945ZM16.6314 35.6836C16.6314 35.918 16.6314 36.1524 16.6314 36.3867C18.272 36.3867 19.9126 36.3867 21.5533 36.3867C21.5533 36.1524 21.5533 35.918 21.5533 35.6836C19.9126 35.6836 18.272 35.6836 16.6314 35.6836Z" fill="#0569B6"/>
<path opacity="0.898" fill-rule="evenodd" clip-rule="evenodd" d="M20.4987 51.8554C21.4371 51.836 22.3746 51.8554 23.3112 51.914C23.6736 52.3966 23.5954 52.7872 23.0769 53.0859C21.7849 53.12 20.4958 53.1982 19.2097 53.3203C24.789 57.6117 30.8827 58.5102 37.4909 56.0156C39.0922 55.2938 40.5766 54.3954 41.9441 53.3203C42.3386 52.8863 42.7684 52.4957 43.2331 52.1484C43.9948 51.9726 44.2878 52.2656 44.112 53.0273C39.7713 57.2742 34.5564 59.1296 28.4675 58.5937C24.6706 58.1591 21.3112 56.7334 18.3894 54.3164C18.3853 55.6779 18.3657 57.0451 18.3308 58.4179C18.0785 58.6457 17.7855 58.7043 17.4519 58.5937C17.2886 58.4565 17.1909 58.2807 17.1589 58.0664C17.0273 56.1535 16.9883 54.2395 17.0417 52.3242C17.2164 52.1479 17.4312 52.0503 17.6862 52.0312C18.6445 52.0112 19.582 51.9526 20.4987 51.8554Z" fill="#0569B6"/>
</svg>
