<svg width="500" height="500" viewBox="0 0 500 500" fill="none" xmlns="http://www.w3.org/2000/svg">
<path d="M449.9 398.49H416.78V398.74H449.9V398.49Z" fill="#EBEBEB"/>
<path d="M331.22 401.21H322.53V401.46H331.22V401.21Z" fill="#EBEBEB"/>
<path d="M415.78 389.21H396.59V389.46H415.78V389.21Z" fill="#EBEBEB"/>
<path d="M95.65 390.89H52.46V391.14H95.65V390.89Z" fill="#EBEBEB"/>
<path d="M110.89 390.89H104.56V391.14H110.89V390.89Z" fill="#EBEBEB"/>
<path d="M225.15 395.11H131.47V395.36H225.15V395.11Z" fill="#EBEBEB"/>
<path d="M238.4 337.8H45.2998C43.7855 337.8 42.3331 337.198 41.2623 336.128C40.1914 335.057 39.5898 333.604 39.5898 332.09V60.66C39.603 59.1543 40.2104 57.7147 41.2798 56.6547C42.3492 55.5947 43.7941 54.9999 45.2998 55H238.4C239.15 55 239.892 55.1477 240.585 55.4346C241.278 55.7216 241.907 56.1422 242.437 56.6724C242.968 57.2026 243.388 57.8321 243.675 58.5249C243.962 59.2176 244.11 59.9602 244.11 60.71V332.09C244.11 332.84 243.962 333.582 243.675 334.275C243.388 334.968 242.968 335.597 242.437 336.128C241.907 336.658 241.278 337.078 240.585 337.365C239.892 337.652 239.15 337.8 238.4 337.8ZM45.2998 55.2C43.8526 55.2026 42.4653 55.7787 41.442 56.8021C40.4186 57.8255 39.8425 59.2127 39.8398 60.66V332.09C39.8425 333.537 40.4186 334.924 41.442 335.948C42.4653 336.971 43.8526 337.547 45.2998 337.55H238.4C239.847 337.547 241.234 336.971 242.258 335.948C243.281 334.924 243.857 333.537 243.86 332.09V60.66C243.857 59.2127 243.281 57.8255 242.258 56.8021C241.234 55.7787 239.847 55.2026 238.4 55.2H45.2998Z" fill="#EBEBEB"/>
<path d="M454.7 337.8H261.6C260.086 337.8 258.633 337.198 257.563 336.128C256.492 335.057 255.89 333.604 255.89 332.09V60.66C255.903 59.1543 256.511 57.7147 257.58 56.6547C258.65 55.5947 260.094 54.9999 261.6 55H454.7C456.215 55 457.667 55.6016 458.738 56.6724C459.809 57.7433 460.41 59.1956 460.41 60.71V332.09C460.41 333.604 459.809 335.057 458.738 336.128C457.667 337.198 456.215 337.8 454.7 337.8ZM261.6 55.2C260.153 55.2026 258.766 55.7787 257.742 56.8021C256.719 57.8255 256.143 59.2127 256.14 60.66V332.09C256.143 333.537 256.719 334.924 257.742 335.948C258.766 336.971 260.153 337.547 261.6 337.55H454.7C456.147 337.547 457.535 336.971 458.558 335.948C459.581 334.924 460.158 333.537 460.16 332.09V60.66C460.158 59.2127 459.581 57.8255 458.558 56.8021C457.535 55.7787 456.147 55.2026 454.7 55.2H261.6Z" fill="#EBEBEB"/>
<path d="M500 382.4H0V382.65H500V382.4Z" fill="#EBEBEB"/>
<path d="M412.21 246.66H393.4V265.47H412.21V246.66Z" fill="#F5F5F5"/>
<path d="M423.78 246.66H412.22V265.47H423.78V246.66Z" fill="#EBEBEB"/>
<path d="M416.84 246.66V253.78L417.14 253.5L417.67 253.84L418.13 253.5L418.72 253.84L419.35 253.5L419.75 253.84L420.21 253.59V246.66H416.84Z" fill="#E0E0E0"/>
<path opacity="0.7" d="M416.84 246.66V253.78L417.14 253.5L417.67 253.84L418.13 253.5L418.72 253.84L419.35 253.5L419.75 253.84L420.21 253.59V246.66H416.84Z" fill="#E0E0E0"/>
<path d="M413.06 268.94H388.45V293.55H413.06V268.94Z" fill="#F5F5F5"/>
<path d="M428.18 268.94H413.06V293.55H428.18V268.94Z" fill="#E6E6E6"/>
<path d="M408.36 275.86H383.75L388.45 268.94H413.06L408.36 275.86Z" fill="#E6E6E6"/>
<path d="M417.52 275.86H432.63L428.18 268.94H413.06L417.52 275.86Z" fill="#F5F5F5"/>
<path d="M101.52 271.5C109.053 271.5 115.16 265.393 115.16 257.86C115.16 250.327 109.053 244.22 101.52 244.22C93.9867 244.22 87.8799 250.327 87.8799 257.86C87.8799 265.393 93.9867 271.5 101.52 271.5Z" fill="#E0E0E0"/>
<path d="M99.3998 271.5C106.933 271.5 113.04 265.393 113.04 257.86C113.04 250.327 106.933 244.22 99.3998 244.22C91.8666 244.22 85.7598 250.327 85.7598 257.86C85.7598 265.393 91.8666 271.5 99.3998 271.5Z" fill="#EBEBEB"/>
<path opacity="0.2" d="M106.819 265.276C110.915 261.179 110.915 254.537 106.819 250.441C102.722 246.344 96.0801 246.344 91.9835 250.441C87.8869 254.537 87.8869 261.179 91.9835 265.276C96.0801 269.372 102.722 269.372 106.819 265.276Z" fill="white"/>
<path d="M90.5099 257.86C90.5101 255.218 91.5089 252.674 93.306 250.738C95.1031 248.802 97.5656 247.617 100.2 247.42C99.9299 247.42 99.6699 247.42 99.3999 247.42C96.6151 247.42 93.9444 248.526 91.9753 250.495C90.0061 252.464 88.8999 255.135 88.8999 257.92C88.8999 260.705 90.0061 263.375 91.9753 265.345C93.9444 267.314 96.6151 268.42 99.3999 268.42C99.6699 268.42 99.9299 268.42 100.2 268.42C97.5457 268.219 95.0672 267.016 93.2676 265.055C91.468 263.094 90.482 260.522 90.5099 257.86Z" fill="#E0E0E0"/>
<path d="M103.27 261.66C102.517 262.32 101.569 262.717 100.57 262.79V264.53H99.0001V262.83C98.2522 262.795 97.5123 262.661 96.8001 262.43C96.1977 262.244 95.63 261.961 95.1201 261.59L95.9801 259.68C96.4071 259.99 96.8748 260.239 97.3701 260.42C97.8954 260.613 98.4432 260.737 99.0001 260.79V258.19C98.3612 258.042 97.7357 257.841 97.1301 257.59C96.6314 257.384 96.1916 257.058 95.8501 256.64C95.4897 256.156 95.3093 255.562 95.3401 254.96C95.3347 254.545 95.4155 254.133 95.5773 253.751C95.7391 253.369 95.9784 253.025 96.2801 252.74C97.0327 252.066 97.9916 251.668 99.0001 251.61V249.88H100.56V251.58C101.679 251.633 102.767 251.959 103.73 252.53L102.95 254.45C102.218 254.017 101.404 253.741 100.56 253.64V256.29C101.192 256.421 101.811 256.608 102.41 256.85C102.902 257.063 103.337 257.388 103.68 257.8C104.038 258.281 104.218 258.871 104.19 259.47C104.194 259.878 104.114 260.283 103.956 260.66C103.798 261.036 103.564 261.377 103.27 261.66ZM98.1601 255.47C98.4119 255.669 98.7009 255.815 99.0101 255.9V253.68C98.6824 253.742 98.38 253.898 98.1401 254.13C97.9566 254.32 97.8559 254.575 97.8601 254.84C97.857 254.961 97.8825 255.081 97.9347 255.191C97.9868 255.3 98.064 255.396 98.1601 255.47ZM101.41 260.32C101.501 260.234 101.573 260.13 101.622 260.015C101.67 259.899 101.693 259.775 101.69 259.65C101.694 259.529 101.671 259.409 101.623 259.298C101.574 259.187 101.502 259.089 101.41 259.01C101.158 258.817 100.874 258.671 100.57 258.58V260.73C100.885 260.681 101.178 260.538 101.41 260.32Z" fill="#E0E0E0"/>
<path d="M279.71 148.45C287.243 148.45 293.35 142.343 293.35 134.81C293.35 127.277 287.243 121.17 279.71 121.17C272.177 121.17 266.07 127.277 266.07 134.81C266.07 142.343 272.177 148.45 279.71 148.45Z" fill="#E0E0E0"/>
<path d="M277.58 148.45C285.113 148.45 291.22 142.343 291.22 134.81C291.22 127.277 285.113 121.17 277.58 121.17C270.047 121.17 263.94 127.277 263.94 134.81C263.94 142.343 270.047 148.45 277.58 148.45Z" fill="#EBEBEB"/>
<path opacity="0.2" d="M285.001 142.234C289.098 138.137 289.098 131.495 285.001 127.399C280.905 123.302 274.263 123.302 270.166 127.399C266.069 131.495 266.069 138.137 270.166 142.234C274.263 146.331 280.905 146.331 285.001 142.234Z" fill="white"/>
<path d="M268.69 134.81C268.692 132.168 269.692 129.624 271.488 127.687C273.285 125.75 275.746 124.562 278.38 124.36C278.12 124.36 277.85 124.36 277.58 124.36C274.795 124.36 272.125 125.466 270.155 127.435C268.186 129.405 267.08 132.075 267.08 134.86C267.08 137.645 268.186 140.316 270.155 142.285C272.125 144.254 274.795 145.36 277.58 145.36C277.85 145.36 278.12 145.36 278.38 145.36C275.727 145.162 273.248 143.961 271.448 142.002C269.649 140.042 268.662 137.471 268.69 134.81Z" fill="#E0E0E0"/>
<path d="M281.45 138.6C280.702 139.268 279.751 139.666 278.75 139.73V141.48H277.2V139.78C276.452 139.743 275.712 139.605 275 139.37C274.394 139.186 273.823 138.902 273.31 138.53L274.17 136.63C274.599 136.934 275.066 137.18 275.56 137.36C276.088 137.557 276.639 137.685 277.2 137.74V135.13C276.557 134.99 275.928 134.792 275.32 134.54C274.821 134.315 274.385 133.972 274.05 133.54C273.684 133.063 273.499 132.471 273.53 131.87C273.531 131.449 273.62 131.033 273.793 130.649C273.965 130.264 274.216 129.921 274.53 129.64C275.285 128.97 276.243 128.572 277.25 128.51V126.78H278.8V128.48C279.918 128.536 281.006 128.862 281.97 129.43L281.19 131.35C280.458 130.917 279.644 130.641 278.8 130.54V133.19C279.431 133.329 280.05 133.519 280.65 133.76C281.147 133.964 281.584 134.291 281.92 134.71C282.283 135.185 282.467 135.773 282.44 136.37C282.44 136.79 282.353 137.206 282.182 137.59C282.011 137.974 281.762 138.318 281.45 138.6ZM276.34 132.42C276.594 132.619 276.887 132.762 277.2 132.84V130.63C276.87 130.687 276.564 130.84 276.32 131.07C276.137 131.26 276.036 131.516 276.04 131.78C276.038 131.903 276.064 132.024 276.116 132.135C276.168 132.246 276.244 132.343 276.34 132.42ZM279.6 137.27C279.774 137.09 279.874 136.851 279.88 136.6C279.882 136.479 279.857 136.358 279.807 136.247C279.757 136.137 279.683 136.039 279.59 135.96C279.341 135.761 279.055 135.612 278.75 135.52V137.67C279.065 137.618 279.359 137.479 279.6 137.27Z" fill="#E0E0E0"/>
<path d="M183.9 282.85C189.318 282.85 193.71 278.458 193.71 273.04C193.71 267.622 189.318 263.23 183.9 263.23C178.482 263.23 174.09 267.622 174.09 273.04C174.09 278.458 178.482 282.85 183.9 282.85Z" fill="#E0E0E0"/>
<path d="M182.37 282.85C187.788 282.85 192.18 278.458 192.18 273.04C192.18 267.622 187.788 263.23 182.37 263.23C176.952 263.23 172.56 267.622 172.56 273.04C172.56 278.458 176.952 282.85 182.37 282.85Z" fill="#F5F5F5"/>
<path opacity="0.2" d="M182.37 280.58C186.534 280.58 189.91 277.204 189.91 273.04C189.91 268.876 186.534 265.5 182.37 265.5C178.206 265.5 174.83 268.876 174.83 273.04C174.83 277.204 178.206 280.58 182.37 280.58Z" fill="white"/>
<path d="M176 273C176.002 271.095 176.725 269.26 178.023 267.866C179.322 266.471 181.099 265.619 183 265.48C182.81 265.48 182.62 265.48 182.42 265.48C180.466 265.551 178.616 266.377 177.26 267.784C175.903 269.192 175.145 271.07 175.145 273.025C175.145 274.98 175.903 276.858 177.26 278.266C178.616 279.673 180.466 280.499 182.42 280.57C182.613 280.58 182.807 280.58 183 280.57C181.09 280.433 179.304 279.574 178.004 278.168C176.704 276.763 175.987 274.915 176 273Z" fill="#E0E0E0"/>
<path d="M185.16 275.77C184.613 276.242 183.93 276.526 183.21 276.58V277.84H182.09V276.61C181.552 276.586 181.021 276.488 180.51 276.32C180.076 276.188 179.668 275.985 179.3 275.72L179.92 274.35C180.227 274.572 180.564 274.75 180.92 274.88C181.296 275.021 181.69 275.108 182.09 275.14V273.27C181.632 273.166 181.183 273.022 180.75 272.84C180.389 272.697 180.072 272.463 179.83 272.16C179.569 271.812 179.438 271.384 179.46 270.95C179.456 270.651 179.514 270.354 179.631 270.078C179.748 269.803 179.921 269.555 180.14 269.35C180.695 268.86 181.4 268.574 182.14 268.54V267.29H183.26V268.52C184.064 268.556 184.847 268.79 185.54 269.2L184.98 270.58C184.454 270.268 183.868 270.07 183.26 270V271.9C183.714 271.999 184.159 272.136 184.59 272.31C184.949 272.46 185.266 272.697 185.51 273C185.766 273.342 185.897 273.763 185.88 274.19C185.875 274.489 185.809 274.783 185.685 275.055C185.561 275.327 185.382 275.57 185.16 275.77ZM181.48 271.32C181.66 271.461 181.868 271.563 182.09 271.62V270C181.855 270.041 181.639 270.153 181.47 270.32C181.336 270.456 181.26 270.639 181.26 270.83C181.252 270.924 181.267 271.018 181.306 271.104C181.344 271.189 181.404 271.264 181.48 271.32ZM183.82 274.81C183.948 274.679 184.02 274.503 184.02 274.32C184.021 274.234 184.003 274.149 183.966 274.071C183.93 273.993 183.876 273.924 183.81 273.87C183.634 273.723 183.43 273.614 183.21 273.55V275.1C183.436 275.062 183.647 274.961 183.82 274.81Z" fill="#E0E0E0"/>
<path d="M216.613 100.991C220.444 97.1599 220.444 90.9485 216.613 87.1175C212.782 83.2864 206.571 83.2864 202.74 87.1175C198.909 90.9485 198.909 97.1599 202.74 100.991C206.571 104.822 212.782 104.822 216.613 100.991Z" fill="#E0E0E0"/>
<path d="M215.082 101.003C218.913 97.1718 218.913 90.9605 215.082 87.1294C211.251 83.2984 205.039 83.2984 201.208 87.1294C197.377 90.9605 197.377 97.1718 201.208 101.003C205.039 104.834 211.251 104.834 215.082 101.003Z" fill="#F5F5F5"/>
<path opacity="0.2" d="M208.15 101.6C212.314 101.6 215.69 98.2242 215.69 94.06C215.69 89.8958 212.314 86.52 208.15 86.52C203.986 86.52 200.61 89.8958 200.61 94.06C200.61 98.2242 203.986 101.6 208.15 101.6Z" fill="white"/>
<path d="M201.75 94.0599C201.753 92.1555 202.476 90.3227 203.774 88.9296C205.073 87.5365 206.851 86.6863 208.75 86.55C208.56 86.54 208.37 86.54 208.18 86.55C206.227 86.6211 204.377 87.4471 203.02 88.8543C201.663 90.2615 200.905 92.1401 200.905 94.0949C200.905 96.0498 201.663 97.9284 203.02 99.3356C204.377 100.743 206.227 101.569 208.18 101.64C208.37 101.64 208.56 101.64 208.75 101.64C206.84 101.498 205.055 100.637 203.756 99.2297C202.457 97.8227 201.74 95.9751 201.75 94.0599Z" fill="#E0E0E0"/>
<path d="M210.93 96.7901C210.392 97.2695 209.709 97.5547 208.99 97.6001V98.8601H207.87V97.6401C207.333 97.6111 206.802 97.5137 206.29 97.3501C205.856 97.2146 205.447 97.0085 205.08 96.7401L205.7 95.3701C206.006 95.5948 206.343 95.7734 206.7 95.9001C207.081 96.0383 207.477 96.129 207.88 96.1701V94.2901C207.421 94.1932 206.972 94.0525 206.54 93.8701C206.181 93.7195 205.865 93.4824 205.62 93.1801C205.358 92.8332 205.226 92.4045 205.25 91.9701C205.245 91.6731 205.302 91.3783 205.418 91.1046C205.533 90.8308 205.704 90.5841 205.92 90.3801C206.474 89.8865 207.179 89.5972 207.92 89.5601V88.3201H209V89.5401C209.804 89.5764 210.587 89.8099 211.28 90.2201L210.72 91.6001C210.194 91.2849 209.608 91.0807 209 91.0001V92.9101C209.455 93.004 209.901 93.1412 210.33 93.3201C210.687 93.4686 211.003 93.702 211.25 94.0001C211.507 94.3424 211.637 94.7627 211.62 95.1901C211.624 95.4903 211.565 95.7881 211.446 96.0639C211.327 96.3396 211.151 96.5871 210.93 96.7901ZM207.25 92.3401C207.437 92.4787 207.647 92.5836 207.87 92.6501V91.0501C207.635 91.098 207.417 91.2086 207.24 91.3701C207.112 91.5093 207.041 91.6911 207.04 91.8801C207.037 91.9677 207.055 92.0548 207.091 92.1346C207.128 92.2144 207.182 92.2847 207.25 92.3401ZM209.6 95.8301C209.664 95.7678 209.715 95.6931 209.749 95.6106C209.784 95.5281 209.801 95.4394 209.8 95.3501C209.803 95.2624 209.785 95.1753 209.749 95.0955C209.712 95.0157 209.658 94.9454 209.59 94.8901C209.413 94.7472 209.209 94.6417 208.99 94.5801V96.1201C209.217 96.0838 209.429 95.9831 209.6 95.8301Z" fill="#E0E0E0"/>
<path d="M123.38 320.27L109.7 316L124.97 316.81C121.62 310.98 120.13 308.11 117.47 302.53C121.29 306.88 123.28 309.09 127.47 313.53C128.551 307.055 130.139 300.676 132.22 294.45C131.213 299.991 130.778 305.62 130.92 311.25L131.2 311.31C135.733 306.176 140.647 301.393 145.9 297C140.881 302.379 136.418 308.253 132.58 314.53C138.267 312.383 143.997 310.34 149.77 308.4C143.99 311.56 138.34 314.82 132.7 318.24L146.84 322.75L132.22 321.86C135.3 325.47 136.9 327.29 140.22 330.94C136.11 328.23 134.08 326.88 130.07 324.18C130.511 327.94 131.179 331.67 132.07 335.35C130.07 330.79 129.19 328.52 127.65 324.05C124.78 337.78 125.53 351.05 128.3 364.74L124.86 364.12C122.836 350.713 123.382 337.043 126.47 323.84C123.01 327.41 121.39 329.22 118.39 332.84C120.127 329.471 122.067 326.212 124.2 323.08C119.27 324.16 116.84 324.71 112.01 325.81C116.44 323.59 118.71 322.47 123.38 320.27Z" fill="#EBEBEB"/>
<path d="M118.53 325L131.17 318.3L116.32 322C118.52 315.65 119.46 312.55 121.02 306.57C118.08 311.57 116.54 314.1 113.27 319.28C110.988 313.102 108.222 307.114 105 301.37C107.024 306.625 108.505 312.074 109.42 317.63L109.15 317.73C103.734 313.512 98.0075 309.708 92.0201 306.35C97.9493 310.704 103.427 315.642 108.37 321.09C102.37 320.043 96.3701 319.107 90.3701 318.28C96.6401 320.28 102.8 322.45 108.98 324.76L95.9201 331.83L110.12 328.23C107.77 332.35 106.54 334.43 103.96 338.64C107.5 335.21 109.24 333.5 112.67 330.11C112.941 333.884 112.981 337.671 112.79 341.45C113.9 336.6 114.34 334.21 115.02 329.52C120.4 342.52 122.16 355.69 122.02 369.62L125.28 368.37C124.763 354.818 121.675 341.488 116.18 329.09C120.25 331.96 122.18 333.44 125.81 336.47C123.473 333.488 120.959 330.649 118.28 327.97C123.28 328.11 125.82 328.19 130.76 328.37C126 327 123.52 326.31 118.53 325Z" fill="#F0F0F0"/>
<path d="M130.89 332.53L121.68 327.65L132.5 330.3C130.89 325.68 130.21 323.42 129.07 319.06C131.21 322.69 132.34 324.54 134.72 328.32C136.377 323.836 138.383 319.49 140.72 315.32C139.246 319.15 138.167 323.121 137.5 327.17L137.7 327.25C141.648 324.172 145.823 321.397 150.19 318.95C145.863 322.125 141.867 325.726 138.26 329.7C142.634 328.933 147.017 328.25 151.41 327.65C146.84 329.13 142.35 330.65 137.85 332.37L147.36 337.52L137 334.88C138.71 337.88 139.61 339.4 141.49 342.47C138.92 339.97 137.65 338.72 135.14 336.25C134.943 339.002 134.916 341.764 135.06 344.52C134.25 340.98 133.92 339.24 133.43 335.82C129.51 345.27 128.23 354.9 128.36 365.05L125.98 364.14C126.351 354.261 128.604 344.544 132.62 335.51C129.62 337.6 128.24 338.68 125.62 340.89C127.324 338.715 129.157 336.644 131.11 334.69C127.44 334.8 125.62 334.86 122.01 334.99C125.47 334 127.25 333.48 130.89 332.53Z" fill="#F5F5F5"/>
<path d="M135.1 382.38H112.89L110.71 346.99H137.28L135.1 382.38Z" fill="#EBEBEB"/>
<path d="M139 348.81H108.77L108.23 344.1H139.54L139 348.81Z" fill="#F5F5F5"/>
<path d="M374.28 382.28H415.74V306.93H374.28V382.28Z" fill="#F0F0F0"/>
<path d="M362.55 382.28H374.28V306.93H362.55V382.28Z" fill="#E6E6E6"/>
<path d="M378.27 332.87H411.43V313H378.27V332.87Z" fill="#FAFAFA"/>
<path d="M378.27 354.91H411.43V335.04H378.27V354.91Z" fill="#FAFAFA"/>
<path d="M378.27 376.94H411.43V357.07H378.27V376.94Z" fill="#FAFAFA"/>
<path d="M393.17 317.42C393.17 317.857 393.3 318.284 393.542 318.648C393.785 319.011 394.13 319.294 394.534 319.462C394.938 319.629 395.382 319.673 395.811 319.587C396.24 319.502 396.634 319.292 396.943 318.983C397.252 318.674 397.462 318.28 397.547 317.851C397.633 317.422 397.589 316.978 397.422 316.574C397.254 316.17 396.971 315.825 396.608 315.582C396.244 315.34 395.817 315.21 395.38 315.21C394.794 315.21 394.232 315.443 393.817 315.857C393.403 316.272 393.17 316.834 393.17 317.42Z" fill="#E0E0E0"/>
<path d="M394.32 317.42C394.32 317.857 394.449 318.284 394.692 318.648C394.935 319.011 395.28 319.294 395.684 319.462C396.088 319.629 396.532 319.673 396.961 319.587C397.39 319.502 397.783 319.292 398.093 318.983C398.402 318.674 398.612 318.28 398.697 317.851C398.783 317.422 398.739 316.978 398.572 316.574C398.404 316.17 398.121 315.825 397.758 315.582C397.394 315.34 396.967 315.21 396.53 315.21C395.944 315.21 395.382 315.443 394.967 315.857C394.553 316.272 394.32 316.834 394.32 317.42Z" fill="#F0F0F0"/>
<path d="M393.17 339.38C393.17 339.817 393.3 340.244 393.542 340.608C393.785 340.971 394.13 341.254 394.534 341.422C394.938 341.589 395.382 341.633 395.811 341.547C396.24 341.462 396.634 341.252 396.943 340.943C397.252 340.634 397.462 340.24 397.547 339.811C397.633 339.382 397.589 338.938 397.422 338.534C397.254 338.13 396.971 337.785 396.608 337.542C396.244 337.3 395.817 337.17 395.38 337.17C394.794 337.17 394.232 337.403 393.817 337.817C393.403 338.232 393.17 338.794 393.17 339.38Z" fill="#E0E0E0"/>
<path d="M394.32 339.38C394.32 339.817 394.449 340.244 394.692 340.608C394.935 340.971 395.28 341.254 395.684 341.422C396.088 341.589 396.532 341.633 396.961 341.547C397.39 341.462 397.783 341.252 398.093 340.943C398.402 340.634 398.612 340.24 398.697 339.811C398.783 339.382 398.739 338.938 398.572 338.534C398.404 338.13 398.121 337.785 397.758 337.542C397.394 337.3 396.967 337.17 396.53 337.17C395.944 337.17 395.382 337.403 394.967 337.817C394.553 338.232 394.32 338.794 394.32 339.38Z" fill="#F0F0F0"/>
<path d="M393.17 361.33C393.17 361.767 393.3 362.194 393.542 362.558C393.785 362.921 394.13 363.205 394.534 363.372C394.938 363.539 395.382 363.583 395.811 363.498C396.24 363.412 396.634 363.202 396.943 362.893C397.252 362.584 397.462 362.19 397.547 361.761C397.633 361.333 397.589 360.888 397.422 360.484C397.254 360.081 396.971 359.735 396.608 359.493C396.244 359.25 395.817 359.12 395.38 359.12C394.794 359.12 394.232 359.353 393.817 359.767C393.403 360.182 393.17 360.744 393.17 361.33Z" fill="#E0E0E0"/>
<path d="M394.32 361.33C394.32 361.767 394.449 362.194 394.692 362.558C394.935 362.921 395.28 363.205 395.684 363.372C396.088 363.539 396.532 363.583 396.961 363.498C397.39 363.412 397.783 363.202 398.093 362.893C398.402 362.584 398.612 362.19 398.697 361.761C398.783 361.333 398.739 360.888 398.572 360.484C398.404 360.081 398.121 359.735 397.758 359.493C397.394 359.25 396.967 359.12 396.53 359.12C395.944 359.12 395.382 359.353 394.967 359.767C394.553 360.182 394.32 360.744 394.32 361.33Z" fill="#F0F0F0"/>
<path d="M159.22 115.77C156.38 116.93 146.95 115.53 146.95 115.53L145.95 115.96C143.176 117.139 140.173 117.681 137.161 117.546C134.15 117.411 131.207 116.603 128.55 115.18C128.55 115.18 120.8 115.49 118.29 114.98C114.46 114.21 108.75 111.18 110.18 101.62C111.61 92.06 125.95 100.33 125.95 100.33C125.95 100.33 121.81 86.88 135.78 90.94C139.72 92.0279 143.251 94.253 145.933 97.3371C148.616 100.421 150.329 104.227 150.86 108.28C150.86 108.28 172.62 110.28 159.22 115.77Z" fill="#F5F5F5"/>
<path d="M121.23 128.21C119.23 129.01 112.74 128.05 112.74 128.05L112.04 128.35C110.125 129.159 108.054 129.529 105.978 129.434C103.901 129.339 101.873 128.78 100.04 127.8C97.6731 127.922 95.3004 127.875 92.9401 127.66C90.2901 127.13 86.3401 125.03 87.3301 118.42C88.3201 111.81 98.2401 117.53 98.2401 117.53C98.2401 117.53 95.3801 108.22 105.04 111.03C107.768 111.781 110.213 113.321 112.07 115.455C113.927 117.59 115.113 120.225 115.48 123.03C115.48 123.03 130.51 124.41 121.23 128.21Z" fill="#F0F0F0"/>
<path d="M265.27 155.33C262.43 156.49 253 155.1 253 155.1L252 155.53C249.225 156.708 246.222 157.248 243.21 157.111C240.199 156.974 237.257 156.164 234.6 154.74C234.6 154.74 226.85 155.05 224.34 154.54C220.51 153.77 214.81 150.74 216.23 141.19C217.65 131.64 232 139.89 232 139.89C232 139.89 227.86 126.44 241.83 130.51C245.77 131.595 249.302 133.818 251.984 136.9C254.666 139.983 256.38 143.788 256.91 147.84C256.91 147.84 278.67 149.84 265.27 155.33Z" fill="#F5F5F5"/>
<path d="M387.53 115.69C387.105 112.469 385.741 109.445 383.606 106.996C381.472 104.547 378.663 102.781 375.53 101.92C370.08 100.33 368.1 102.11 367.53 104.32C363.984 99.9726 359.165 96.846 353.75 95.38C335.58 90.1 341 107.58 341 107.58C341 107.58 322.35 96.84 320.5 109.27C318.65 121.7 326 125.63 331 126.63C334.27 127.29 344.34 126.89 344.34 126.89C347.795 128.739 351.621 129.789 355.536 129.962C359.451 130.135 363.355 129.427 366.96 127.89L368.29 127.33C368.29 127.33 380.55 129.15 384.24 127.64C390.08 125.24 390.78 123.36 389.13 121.92C390.818 122.124 392.528 122.022 394.18 121.62C404.83 117.28 387.53 115.69 387.53 115.69Z" fill="#F5F5F5"/>
<path d="M245.18 423.71C352.263 423.71 439.07 418.642 439.07 412.39C439.07 406.138 352.263 401.07 245.18 401.07C138.098 401.07 51.29 406.138 51.29 412.39C51.29 418.642 138.098 423.71 245.18 423.71Z" fill="#F5F5F5"/>
<path d="M337.51 148C327.147 135.69 314.304 125.705 299.819 118.697C285.334 111.689 269.533 107.816 253.449 107.331C237.365 106.846 221.36 109.76 206.479 115.882C191.598 122.004 178.176 131.197 167.09 142.86C166.82 143.149 166.447 143.319 166.052 143.334C165.657 143.349 165.271 143.207 164.98 142.94C164.835 142.804 164.717 142.641 164.635 142.46C164.553 142.279 164.507 142.083 164.5 141.884C164.494 141.686 164.527 141.487 164.597 141.301C164.667 141.115 164.774 140.945 164.91 140.8C176.286 128.83 190.059 119.395 205.33 113.111C220.601 106.827 237.025 103.835 253.531 104.332C270.037 104.828 286.252 108.801 301.118 115.992C315.983 123.182 329.164 133.428 339.8 146.06L337.51 148Z" fill="#263238"/>
<path d="M340.16 148.19H330.82C330.422 148.19 330.041 148.032 329.76 147.751C329.478 147.469 329.32 147.088 329.32 146.69C329.32 146.292 329.478 145.91 329.76 145.629C330.041 145.348 330.422 145.19 330.82 145.19H337.16V138.85C337.16 138.452 337.318 138.07 337.6 137.789C337.881 137.508 338.262 137.35 338.66 137.35C339.057 137.352 339.437 137.511 339.718 137.792C339.999 138.073 340.158 138.453 340.16 138.85V148.19Z" fill="#263238"/>
<path d="M316 318.73L314.31 316.25C327.483 307.29 338.64 295.677 347.066 282.156C355.492 268.635 361.001 253.503 363.24 237.73C363.295 237.339 363.5 236.986 363.812 236.745C364.124 236.504 364.518 236.394 364.91 236.44C365.309 236.492 365.671 236.7 365.916 237.019C366.162 237.338 366.271 237.741 366.22 238.14C363.921 254.329 358.266 269.859 349.618 283.737C340.971 297.614 329.52 309.533 316 318.73Z" fill="#263238"/>
<path d="M321.37 321.21L312.28 319.11L314.38 310.01C314.424 309.818 314.505 309.638 314.619 309.478C314.732 309.318 314.876 309.182 315.043 309.078C315.209 308.974 315.394 308.904 315.588 308.871C315.781 308.839 315.979 308.845 316.17 308.89C316.363 308.933 316.545 309.015 316.706 309.129C316.867 309.243 317.004 309.388 317.109 309.555C317.214 309.722 317.285 309.909 317.318 310.103C317.351 310.298 317.345 310.497 317.3 310.69L315.87 316.86L322.05 318.28C322.437 318.37 322.773 318.61 322.983 318.948C323.193 319.285 323.26 319.693 323.17 320.08C323.08 320.467 322.84 320.803 322.503 321.015C322.166 321.227 321.759 321.297 321.37 321.21Z" fill="#263238"/>
<path d="M163.14 300.62C148.004 284.026 137.973 263.42 134.25 241.27L137.2 240.77C140.828 262.354 150.605 282.434 165.36 298.6C165.625 298.892 165.765 299.277 165.75 299.671C165.735 300.066 165.566 300.439 165.28 300.71C165.134 300.845 164.962 300.95 164.776 301.019C164.589 301.087 164.39 301.118 164.191 301.11C163.992 301.102 163.797 301.054 163.617 300.97C163.436 300.886 163.274 300.767 163.14 300.62Z" fill="#263238"/>
<path d="M129.87 246.34C129.548 246.106 129.331 245.753 129.267 245.36C129.204 244.967 129.298 244.564 129.53 244.24L135.02 236.69L142.57 242.18C142.73 242.295 142.865 242.44 142.968 242.608C143.071 242.776 143.14 242.962 143.17 243.156C143.201 243.35 143.193 243.549 143.147 243.74C143.1 243.931 143.016 244.111 142.9 244.27C142.785 244.43 142.64 244.565 142.472 244.668C142.304 244.771 142.118 244.84 141.924 244.87C141.73 244.901 141.531 244.893 141.34 244.846C141.149 244.8 140.969 244.716 140.81 244.6L135.68 240.88L132 246C131.885 246.165 131.737 246.305 131.567 246.412C131.396 246.519 131.206 246.59 131.007 246.622C130.808 246.653 130.605 246.645 130.41 246.596C130.215 246.548 130.031 246.461 129.87 246.34Z" fill="#263238"/>
<path d="M395.76 176.44H387.76L388.76 143.44H394.76L395.76 176.44Z" fill="#263238"/>
<path opacity="0.7" d="M395.76 176.44H387.76L388.76 143.44H394.76L395.76 176.44Z" fill="white"/>
<path d="M395.25 159.69L395.16 156.44H388.37L388.27 159.69H395.25Z" fill="#0569B6"/>
<path d="M388.47 153.19H395.06L394.96 149.94H388.56L388.47 153.19Z" fill="#0569B6"/>
<path d="M395.45 166.19L395.35 162.94H388.17L388.07 166.19H395.45Z" fill="#0569B6"/>
<path d="M395.65 172.69L395.55 169.44H387.97L387.88 172.69H395.65Z" fill="#0569B6"/>
<path d="M394.86 146.69L394.76 143.44H388.76L388.66 146.69H394.86Z" fill="#0569B6"/>
<path d="M409.1 176.44H401.1L402.1 143.44H408.1L409.1 176.44Z" fill="#263238"/>
<path opacity="0.7" d="M409.1 176.44H401.1L402.1 143.44H408.1L409.1 176.44Z" fill="white"/>
<path d="M408.59 159.69L408.49 156.44H401.7L401.6 159.69H408.59Z" fill="#0569B6"/>
<path d="M401.8 153.19H408.39L408.29 149.94H401.9L401.8 153.19Z" fill="#0569B6"/>
<path d="M408.78 166.19L408.69 162.94H401.5L401.41 166.19H408.78Z" fill="#0569B6"/>
<path d="M408.98 172.69L408.88 169.44H401.31L401.21 172.69H408.98Z" fill="#0569B6"/>
<path d="M408.19 146.69L408.1 143.44H402.1L402 146.69H408.19Z" fill="#0569B6"/>
<path d="M295.43 231.44H418.1V179.53L356.76 149.27L295.43 179.53V231.44Z" fill="#0569B6"/>
<path opacity="0.5" d="M295.43 231.44H418.1V179.53L356.76 149.27L295.43 179.53V231.44Z" fill="white"/>
<path d="M381.1 190.35H332.43V231.43H381.1V190.35Z" fill="#263238"/>
<path d="M341.1 190.35H332.43V231.43H341.1V190.35Z" fill="#263238"/>
<path opacity="0.5" d="M341.1 190.35H332.43V231.43H341.1V190.35Z" fill="white"/>
<path d="M353.26 202.69H345.93V211.79H353.26V202.69Z" fill="#263238"/>
<path opacity="0.6" d="M353.26 202.69H345.93V211.79H353.26V202.69Z" fill="white"/>
<path d="M357.76 202.69H353.26V211.79H357.76V202.69Z" fill="#263238"/>
<path opacity="0.4" d="M357.76 202.69H353.26V211.79H357.76V202.69Z" fill="white"/>
<path d="M355.06 202.69V205.46L355.18 205.36L355.38 205.49L355.56 205.36L355.8 205.49L356.04 205.36L356.19 205.49L356.37 205.39V202.69H355.06Z" fill="#0569B6"/>
<path opacity="0.7" d="M355.06 202.69V205.46L355.18 205.36L355.38 205.49L355.56 205.36L355.8 205.49L356.04 205.36L356.19 205.49L356.37 205.39V202.69H355.06Z" fill="#0569B6"/>
<path d="M366.38 202.69H359.05V211.79H366.38V202.69Z" fill="#263238"/>
<path opacity="0.6" d="M366.38 202.69H359.05V211.79H366.38V202.69Z" fill="white"/>
<path d="M370.89 202.69H366.39V211.79H370.89V202.69Z" fill="#263238"/>
<path opacity="0.4" d="M370.89 202.69H366.39V211.79H370.89V202.69Z" fill="white"/>
<path d="M368.19 202.69V205.46L368.3 205.36L368.51 205.49L368.69 205.36L368.92 205.49L369.17 205.36L369.32 205.49L369.5 205.39V202.69H368.19Z" fill="#0569B6"/>
<path opacity="0.7" d="M368.19 202.69V205.46L368.3 205.36L368.51 205.49L368.69 205.36L368.92 205.49L369.17 205.36L369.32 205.49L369.5 205.39V202.69H368.19Z" fill="#0569B6"/>
<path d="M417.25 181.35L356.76 151.5L296.27 181.35C296.034 181.466 295.778 181.535 295.516 181.552C295.253 181.57 294.99 181.535 294.741 181.451C294.493 181.366 294.263 181.233 294.065 181.06C293.868 180.886 293.706 180.676 293.59 180.44C293.474 180.204 293.405 179.948 293.388 179.686C293.37 179.423 293.405 179.16 293.49 178.911C293.574 178.662 293.707 178.433 293.88 178.235C294.054 178.038 294.264 177.876 294.5 177.76L356.76 147L419 177.76C419.236 177.876 419.447 178.038 419.62 178.235C419.793 178.433 419.926 178.662 420.011 178.911C420.095 179.16 420.13 179.423 420.113 179.686C420.095 179.948 420.026 180.204 419.91 180.44C419.676 180.911 419.265 181.271 418.767 181.441C418.269 181.612 417.724 181.579 417.25 181.35Z" fill="#263238"/>
<g opacity="0.5">
<path d="M417.25 181.35L356.76 151.5L296.27 181.35C296.034 181.466 295.778 181.535 295.516 181.552C295.253 181.57 294.99 181.535 294.741 181.451C294.493 181.366 294.263 181.233 294.065 181.06C293.868 180.886 293.706 180.676 293.59 180.44C293.474 180.204 293.405 179.948 293.388 179.686C293.37 179.423 293.405 179.16 293.49 178.911C293.574 178.662 293.707 178.433 293.88 178.235C294.054 178.038 294.264 177.876 294.5 177.76L356.76 147L419 177.76C419.236 177.876 419.447 178.038 419.62 178.235C419.793 178.433 419.926 178.662 420.011 178.911C420.095 179.16 420.13 179.423 420.113 179.686C420.095 179.948 420.026 180.204 419.91 180.44C419.676 180.911 419.265 181.271 418.767 181.441C418.269 181.612 417.724 181.579 417.25 181.35Z" fill="white"/>
</g>
<path d="M381.1 190.35H372.43V231.43H381.1V190.35Z" fill="#263238"/>
<path opacity="0.5" d="M381.1 190.35H372.43V231.43H381.1V190.35Z" fill="white"/>
<path d="M372.43 217.94H343.76V231.44H372.43V217.94Z" fill="#263238"/>
<path opacity="0.4" d="M372.43 217.94H343.76V231.44H372.43V217.94Z" fill="white"/>
<path d="M326.77 213.6H321.92V231.43H326.77V213.6Z" fill="#0569B6"/>
<path d="M343.76 219.76C342.699 219.76 341.682 219.339 340.932 218.588C340.182 217.838 339.76 216.821 339.76 215.76C339.76 214.699 340.182 213.682 340.932 212.932C341.682 212.181 342.699 211.76 343.76 211.76H372.43V219.76H343.76Z" fill="#0569B6"/>
<path d="M345.93 215.77C345.93 216.199 345.803 216.619 345.564 216.975C345.326 217.332 344.987 217.61 344.59 217.775C344.194 217.939 343.757 217.982 343.336 217.898C342.916 217.814 342.529 217.608 342.225 217.304C341.922 217.001 341.715 216.614 341.632 216.193C341.548 215.772 341.591 215.336 341.755 214.939C341.919 214.543 342.197 214.204 342.554 213.966C342.911 213.727 343.331 213.6 343.76 213.6C344.335 213.6 344.887 213.828 345.294 214.235C345.701 214.642 345.93 215.194 345.93 215.77Z" fill="#263238"/>
<path d="M324.69 213.6H303.76V231.43H324.69V213.6Z" fill="#0569B6"/>
<path opacity="0.3" d="M324.69 213.6H303.76V231.43H324.69V213.6Z" fill="white"/>
<path opacity="0.8" d="M318.42 221.58H314.89L316.29 217.21L310.04 223.46H313.57L312.17 227.83L318.42 221.58Z" fill="white"/>
<path d="M146.41 291.47C157.466 291.47 166.43 282.507 166.43 271.45C166.43 260.393 157.466 251.43 146.41 251.43C135.353 251.43 126.39 260.393 126.39 271.45C126.39 282.507 135.353 291.47 146.41 291.47Z" fill="#0569B6"/>
<path d="M143.3 291.47C154.357 291.47 163.32 282.507 163.32 271.45C163.32 260.393 154.357 251.43 143.3 251.43C132.243 251.43 123.28 260.393 123.28 271.45C123.28 282.507 132.243 291.47 143.3 291.47Z" fill="#0569B6"/>
<path opacity="0.3" d="M143.3 291.47C154.357 291.47 163.32 282.507 163.32 271.45C163.32 260.393 154.357 251.43 143.3 251.43C132.243 251.43 123.28 260.393 123.28 271.45C123.28 282.507 132.243 291.47 143.3 291.47Z" fill="white"/>
<path opacity="0.2" d="M143.3 286.84C151.799 286.84 158.69 279.949 158.69 271.45C158.69 262.95 151.799 256.06 143.3 256.06C134.8 256.06 127.91 262.95 127.91 271.45C127.91 279.949 134.8 286.84 143.3 286.84Z" fill="white"/>
<path opacity="0.1" d="M130.24 271.45C130.241 267.573 131.707 263.839 134.344 260.997C136.981 258.154 140.594 256.412 144.46 256.12C144.08 256.12 143.69 256.06 143.3 256.06C139.218 256.06 135.303 257.681 132.417 260.567C129.531 263.454 127.91 267.368 127.91 271.45C127.91 275.532 129.531 279.446 132.417 282.332C135.303 285.218 139.218 286.84 143.3 286.84C143.69 286.84 144.08 286.84 144.46 286.78C140.593 286.49 136.978 284.749 134.341 281.906C131.704 279.062 130.239 275.328 130.24 271.45Z" fill="black"/>
<g opacity="0.1">
<path d="M150.53 277C149.417 277.981 148.01 278.565 146.53 278.66V281.22H144.24V278.73C143.144 278.676 142.061 278.474 141.02 278.13C140.131 277.866 139.296 277.45 138.55 276.9L139.8 274.11C140.416 274.554 141.088 274.914 141.8 275.18C142.573 275.467 143.379 275.652 144.2 275.73V271.91C143.264 271.697 142.347 271.406 141.46 271.04C140.726 270.733 140.08 270.249 139.58 269.63C139.048 268.924 138.783 268.053 138.83 267.17C138.823 266.561 138.943 265.957 139.18 265.396C139.417 264.835 139.768 264.329 140.21 263.91C141.318 262.923 142.728 262.341 144.21 262.26V259.72H146.5V262.21C148.138 262.289 149.731 262.77 151.14 263.61L150 266.42C148.927 265.787 147.736 265.382 146.5 265.23V269.12C147.426 269.317 148.332 269.595 149.21 269.95C149.936 270.256 150.575 270.737 151.07 271.35C151.604 272.048 151.873 272.912 151.83 273.79C151.846 274.386 151.738 274.978 151.515 275.531C151.291 276.083 150.956 276.583 150.53 277ZM143 268C143.376 268.285 143.804 268.496 144.26 268.62V265.37C143.787 265.452 143.349 265.671 143 266C142.744 266.271 142.597 266.627 142.59 267C142.574 267.187 142.602 267.376 142.674 267.55C142.745 267.724 142.857 267.878 143 268ZM147.78 275.11C147.917 274.983 148.025 274.827 148.097 274.655C148.17 274.483 148.205 274.297 148.2 274.11C148.204 273.931 148.168 273.753 148.093 273.59C148.019 273.428 147.908 273.284 147.77 273.17C147.406 272.883 146.993 272.666 146.55 272.53V275.69C147.02 275.611 147.456 275.391 147.8 275.06L147.78 275.11Z" fill="black"/>
</g>
<path d="M149 277C147.888 277.983 146.481 278.567 145 278.66V281.22H142.71V278.73C141.615 278.675 140.532 278.473 139.49 278.13C138.603 277.864 137.767 277.448 137.02 276.9L138.28 274.11C138.894 274.557 139.567 274.917 140.28 275.18C141.053 275.467 141.86 275.652 142.68 275.73V271.91C141.744 271.696 140.828 271.405 139.94 271.04C139.208 270.73 138.562 270.246 138.06 269.63C137.529 268.924 137.263 268.053 137.31 267.17C137.304 266.561 137.423 265.957 137.66 265.396C137.898 264.835 138.248 264.329 138.69 263.91C139.799 262.924 141.209 262.343 142.69 262.26V259.72H145V262.21C146.642 262.287 148.239 262.768 149.65 263.61L148.5 266.42C147.428 265.787 146.236 265.382 145 265.23V269.12C145.926 269.317 146.833 269.595 147.71 269.95C148.438 270.258 149.079 270.739 149.58 271.35C150.107 272.051 150.372 272.914 150.33 273.79C150.344 274.388 150.233 274.983 150.004 275.535C149.775 276.088 149.433 276.587 149 277ZM141.5 267.93C141.874 268.213 142.298 268.424 142.75 268.55V265.3C142.269 265.386 141.824 265.612 141.47 265.95C141.214 266.221 141.068 266.577 141.06 266.95C141.036 267.145 141.061 267.343 141.133 267.527C141.204 267.71 141.32 267.872 141.47 268L141.5 267.93ZM146.28 275.04C146.414 274.911 146.52 274.755 146.59 274.583C146.661 274.411 146.695 274.226 146.69 274.04C146.694 273.862 146.659 273.685 146.586 273.523C146.513 273.36 146.405 273.216 146.27 273.1C145.903 272.813 145.486 272.596 145.04 272.46V275.62C145.487 275.549 145.906 275.355 146.25 275.06L146.28 275.04Z" fill="#0569B6"/>
<path d="M263.379 119.929C271.197 112.11 271.197 99.4345 263.379 91.6162C255.561 83.7979 242.885 83.7979 235.066 91.6162C227.248 99.4345 227.248 112.11 235.066 119.929C242.885 127.747 255.561 127.747 263.379 119.929Z" fill="#0569B6"/>
<path d="M265.577 110.368C268.117 99.6074 261.453 88.8249 250.692 86.285C239.93 83.7452 229.148 90.4098 226.608 101.171C224.068 111.932 230.733 122.714 241.494 125.254C252.255 127.794 263.038 121.13 265.577 110.368Z" fill="#0569B6"/>
<path opacity="0.3" d="M265.577 110.368C268.117 99.6074 261.453 88.8249 250.692 86.285C239.93 83.7452 229.148 90.4098 226.608 101.171C224.068 111.932 230.733 122.714 241.494 125.254C252.255 127.794 263.038 121.13 265.577 110.368Z" fill="white"/>
<path opacity="0.2" d="M246.1 121.17C254.6 121.17 261.49 114.28 261.49 105.78C261.49 97.2802 254.6 90.3899 246.1 90.3899C237.6 90.3899 230.71 97.2802 230.71 105.78C230.71 114.28 237.6 121.17 246.1 121.17Z" fill="white"/>
<path opacity="0.1" d="M233.05 105.78C233.052 101.903 234.517 98.1692 237.154 95.3267C239.791 92.4841 243.404 90.7423 247.27 90.4499C246.88 90.4499 246.5 90.3899 246.1 90.3899C242.018 90.3899 238.104 92.0113 235.218 94.8975C232.331 97.7837 230.71 101.698 230.71 105.78C230.71 109.862 232.331 113.776 235.218 116.662C238.104 119.548 242.018 121.17 246.1 121.17C246.5 121.17 246.88 121.17 247.27 121.11C243.404 120.817 239.791 119.076 237.154 116.233C234.517 113.391 233.052 109.657 233.05 105.78Z" fill="black"/>
<g opacity="0.1">
<path d="M253.33 111.34C252.222 112.329 250.812 112.914 249.33 113V115.57H247.04V113.07C245.942 113.014 244.856 112.816 243.81 112.48C242.923 112.208 242.088 111.789 241.34 111.24L242.6 108.45C243.213 108.901 243.886 109.264 244.6 109.53C245.371 109.82 246.179 110.002 247 110.07V106.25C246.06 106.04 245.14 105.749 244.25 105.38C243.519 105.076 242.877 104.595 242.38 103.98C241.844 103.275 241.575 102.404 241.62 101.52C241.612 100.91 241.732 100.305 241.971 99.7433C242.211 99.182 242.564 98.6768 243.01 98.2598C244.116 97.2689 245.527 96.6836 247.01 96.5998V94.0598H249.3V96.5498C250.962 96.6393 252.576 97.1373 254 97.9998L252.86 100.81C251.785 100.182 250.595 99.7777 249.36 99.6198V103.51C250.284 103.716 251.191 103.997 252.07 104.35C252.795 104.652 253.434 105.13 253.93 105.74C254.46 106.44 254.728 107.303 254.69 108.18C254.692 108.772 254.573 109.358 254.339 109.901C254.105 110.445 253.761 110.935 253.33 111.34ZM245.83 102.27C246.204 102.559 246.632 102.77 247.09 102.89V99.6398C246.609 99.7283 246.165 99.9541 245.81 100.29C245.552 100.56 245.406 100.917 245.4 101.29C245.387 101.476 245.419 101.662 245.494 101.833C245.569 102.004 245.684 102.154 245.83 102.27ZM250.61 109.39C250.744 109.261 250.85 109.106 250.921 108.933C250.992 108.761 251.025 108.576 251.02 108.39C251.025 108.213 250.989 108.038 250.917 107.877C250.844 107.716 250.736 107.573 250.6 107.46C250.239 107.169 249.824 106.951 249.38 106.82V110C249.84 109.918 250.267 109.707 250.61 109.39Z" fill="black"/>
</g>
<path d="M251.78 111.34C250.67 112.325 249.261 112.91 247.78 113V115.57H245.49V113.07C244.392 113.014 243.306 112.815 242.26 112.48C241.372 112.208 240.537 111.789 239.79 111.24L241.05 108.45C241.663 108.901 242.336 109.264 243.05 109.53C243.821 109.818 244.629 110 245.45 110.07V106.25C244.509 106.04 243.589 105.749 242.7 105.38C241.971 105.074 241.328 104.593 240.83 103.98C240.298 103.273 240.029 102.403 240.07 101.52C240.064 100.91 240.184 100.305 240.424 99.7444C240.663 99.1834 241.015 98.6779 241.46 98.2598C242.566 97.2689 243.977 96.6836 245.46 96.5998V94.0598H247.75V96.5498C249.387 96.6338 250.979 97.1142 252.39 97.9498L251.25 100.76C250.175 100.132 248.984 99.7277 247.75 99.5698V103.46C248.674 103.665 249.581 103.946 250.46 104.3C251.185 104.602 251.824 105.08 252.32 105.69C252.854 106.387 253.123 107.252 253.08 108.13C253.095 108.726 252.988 109.318 252.764 109.87C252.541 110.423 252.205 110.923 251.78 111.34ZM244.27 102.27C244.644 102.559 245.072 102.77 245.53 102.89V99.6398C245.049 99.7283 244.605 99.9541 244.25 100.29C243.992 100.56 243.845 100.917 243.84 101.29C243.826 101.476 243.859 101.662 243.934 101.833C244.009 102.004 244.124 102.154 244.27 102.27ZM249.05 109.39C249.185 109.262 249.293 109.106 249.365 108.934C249.438 108.762 249.473 108.577 249.47 108.39C249.472 108.212 249.435 108.037 249.361 107.876C249.286 107.715 249.177 107.573 249.04 107.46C248.679 107.169 248.264 106.951 247.82 106.82V110C248.279 109.918 248.706 109.707 249.05 109.39Z" fill="#0569B6"/>
<path d="M295.67 251.17H272.11C271.839 251.163 271.569 251.212 271.318 251.312C271.066 251.413 270.837 251.563 270.645 251.755C270.454 251.947 270.303 252.176 270.202 252.428C270.102 252.679 270.053 252.949 270.06 253.22V276.77C270.059 277.04 270.111 277.308 270.213 277.558C270.316 277.808 270.467 278.035 270.657 278.226C270.848 278.418 271.074 278.569 271.323 278.673C271.573 278.777 271.84 278.83 272.11 278.83V282.83C272.115 283.11 272.201 283.382 272.358 283.613C272.516 283.844 272.737 284.024 272.996 284.13C273.254 284.237 273.539 284.265 273.813 284.212C274.088 284.158 274.34 284.026 274.54 283.83L279.54 278.83H295.67C295.94 278.83 296.208 278.777 296.457 278.673C296.706 278.569 296.933 278.418 297.123 278.226C297.314 278.035 297.465 277.808 297.567 277.558C297.669 277.308 297.722 277.04 297.72 276.77V253.22C297.727 252.949 297.679 252.679 297.578 252.428C297.478 252.176 297.327 251.947 297.135 251.755C296.943 251.563 296.715 251.413 296.463 251.312C296.211 251.212 295.941 251.163 295.67 251.17Z" fill="#0569B6"/>
<g opacity="0.9">
<path d="M290.48 262.68H277.93L277.46 260.94H273.25V261.72H276.86L279.47 271.36H288.11V270.58H280.11L279.65 268.89H288.43L290.48 262.68ZM279.4 268.11L278.14 263.46H289.39L287.83 268.11H279.4Z" fill="white"/>
<path d="M279.9 273.19C280.331 273.19 280.68 272.841 280.68 272.41C280.68 271.979 280.331 271.63 279.9 271.63C279.469 271.63 279.12 271.979 279.12 272.41C279.12 272.841 279.469 273.19 279.9 273.19Z" fill="white"/>
<path d="M288.89 272.41C288.89 272.564 288.844 272.715 288.759 272.843C288.673 272.972 288.551 273.072 288.409 273.131C288.266 273.19 288.109 273.205 287.958 273.175C287.807 273.145 287.668 273.071 287.559 272.962C287.449 272.853 287.375 272.714 287.345 272.562C287.315 272.411 287.33 272.254 287.389 272.112C287.448 271.969 287.548 271.847 287.677 271.762C287.805 271.676 287.956 271.63 288.11 271.63C288.317 271.63 288.515 271.712 288.662 271.859C288.808 272.005 288.89 272.203 288.89 272.41Z" fill="white"/>
</g>
<path d="M287.91 264.75C290.445 264.75 292.5 262.695 292.5 260.16C292.5 257.625 290.445 255.57 287.91 255.57C285.375 255.57 283.32 257.625 283.32 260.16C283.32 262.695 285.375 264.75 287.91 264.75Z" fill="#0569B6"/>
<path opacity="0.3" d="M287.91 264.75C290.445 264.75 292.5 262.695 292.5 260.16C292.5 257.625 290.445 255.57 287.91 255.57C285.375 255.57 283.32 257.625 283.32 260.16C283.32 262.695 285.375 264.75 287.91 264.75Z" fill="black"/>
<g opacity="0.9">
<path d="M287.77 263.13L284 259.22C283.714 258.932 283.553 258.542 283.553 258.135C283.553 257.729 283.714 257.339 284 257.05C284.143 256.907 284.312 256.794 284.498 256.716C284.684 256.639 284.884 256.599 285.085 256.599C285.287 256.599 285.487 256.639 285.673 256.716C285.859 256.794 286.028 256.907 286.17 257.05L287.82 258.76L292.82 253.71C292.963 253.567 293.132 253.454 293.318 253.376C293.504 253.299 293.704 253.259 293.905 253.259C294.107 253.259 294.307 253.299 294.493 253.376C294.679 253.454 294.848 253.567 294.99 253.71C295.276 253.997 295.437 254.385 295.437 254.79C295.437 255.195 295.276 255.583 294.99 255.87L287.77 263.13Z" fill="white"/>
</g>
<path d="M180.55 159.65H92.21V231.44H180.55V159.65Z" fill="#0569B6"/>
<path opacity="0.5" d="M180.55 159.65H92.21V231.44H180.55V159.65Z" fill="white"/>
<path d="M102.65 151.64H89.1602V161.2H102.65V151.64Z" fill="#0569B6"/>
<path d="M129.47 151.64H115.98V161.2H129.47V151.64Z" fill="#0569B6"/>
<path d="M156.3 151.64H142.81V161.2H156.3V151.64Z" fill="#0569B6"/>
<path d="M183.13 151.64H169.64V161.2H183.13V151.64Z" fill="#0569B6"/>
<g opacity="0.2">
<path d="M102.65 151.64H89.1602V161.2H102.65V151.64Z" fill="white"/>
<path d="M129.47 151.64H115.98V161.2H129.47V151.64Z" fill="white"/>
<path d="M156.3 151.64H142.81V161.2H156.3V151.64Z" fill="white"/>
<path d="M183.13 151.64H169.64V161.2H183.13V151.64Z" fill="white"/>
</g>
<path d="M103.06 167.81C103.06 170.14 99.9501 172.03 96.0601 172.03C92.1701 172.03 89.0601 170.14 89.0601 167.81V161.1H102.55L103.06 167.81Z" fill="#0569B6"/>
<path d="M129.91 167.81C129.91 170.14 126.8 172.03 122.91 172.03C119.02 172.03 115.96 170.14 115.96 167.81V161.1H129.46L129.91 167.81Z" fill="#0569B6"/>
<path d="M156.76 167.81C156.76 170.14 153.65 172.03 149.81 172.03C145.97 172.03 142.86 170.14 142.86 167.81V161.1H156.36L156.76 167.81Z" fill="#0569B6"/>
<path d="M183.14 167.81C183.14 170.14 180.43 172.03 176.59 172.03C172.75 172.03 169.59 170.14 169.59 167.81V161.1H183.09L183.14 167.81Z" fill="#0569B6"/>
<path d="M116.06 161.1V151.64H102.57V161.19V167.81C102.57 170.14 105.68 172.03 109.57 172.03C113.46 172.03 116.12 170.14 116.12 167.81V161.1H116.06Z" fill="#263238"/>
<path opacity="0.8" d="M116.06 151.64H102.57V167.81C102.57 170.14 105.68 172.03 109.57 172.03C113.46 172.03 116.12 170.14 116.12 167.81L116.06 151.64Z" fill="white"/>
<path d="M143 161.1V151.64H129.48V161.19V167.81C129.48 170.14 132.59 172.03 136.43 172.03C140.27 172.03 142.98 170.14 142.98 167.81V161.1H143Z" fill="#263238"/>
<path opacity="0.8" d="M143 151.64H129.48V167.81C129.48 170.14 132.59 172.03 136.43 172.03C140.27 172.03 142.98 170.14 142.98 167.81L143 151.64Z" fill="white"/>
<path d="M169.8 161.1V151.64H156.31V161.19V167.81C156.31 170.14 159.42 172.03 163.31 172.03C167.2 172.03 169.86 170.14 169.86 167.81V161.1H169.8Z" fill="#263238"/>
<path opacity="0.8" d="M169.8 151.64H156.31V167.81C156.31 170.14 159.42 172.03 163.31 172.03C167.2 172.03 169.86 170.14 169.86 167.81L169.8 151.64Z" fill="white"/>
<path opacity="0.5" d="M171 182.11H130.71V204.97H171V182.11Z" fill="white"/>
<path opacity="0.4" d="M156.51 204.95H149.22L154.69 182.34H161.99L156.51 204.95Z" fill="white"/>
<path opacity="0.4" d="M160.05 204.95H158.43L163.91 182.34H165.52L160.05 204.95Z" fill="white"/>
<path opacity="0.4" d="M137.58 204.95H136.76L142.24 182.34H143.06L137.58 204.95Z" fill="white"/>
<path d="M171.8 205.77H129.91V181.31H171.8V205.77ZM131.51 204.17H170.2V182.91H131.51V204.17Z" fill="#0569B6"/>
<path d="M120.89 173.75H96.6699V231.24H120.89V173.75Z" fill="#0569B6"/>
<path opacity="0.7" d="M119.86 174.79H97.7002V231.23H119.86V174.79Z" fill="white"/>
<path opacity="0.1" d="M108.26 182.24H99.3799V202.91H108.26V182.24Z" fill="black"/>
<path opacity="0.1" d="M118.3 182.24H109.42V202.91H118.3V182.24Z" fill="black"/>
<path opacity="0.1" d="M118.3 209.16H99.3799V229.83H118.3V209.16Z" fill="black"/>
<path opacity="0.1" d="M118.31 181.17H99.3799C99.3799 179.876 99.894 178.634 100.809 177.719C101.724 176.804 102.966 176.29 104.26 176.29H113.43C114.724 176.29 115.965 176.804 116.881 177.719C117.796 178.634 118.31 179.876 118.31 181.17Z" fill="black"/>
<path d="M101 203.84H99.3799V208.05H101V203.84Z" fill="#0569B6"/>
<path opacity="0.3" d="M101 203.84H99.3799V208.05H101V203.84Z" fill="white"/>
<path d="M100.99 208.05H101.31V203.84H100.99V208.05Z" fill="#0569B6"/>
<path d="M100.46 205.49C100.46 205.624 100.42 205.756 100.345 205.868C100.271 205.979 100.165 206.067 100.04 206.118C99.9161 206.17 99.7793 206.183 99.6474 206.157C99.5155 206.131 99.3944 206.066 99.2993 205.971C99.2042 205.876 99.1394 205.754 99.1132 205.622C99.0869 205.491 99.1004 205.354 99.1519 205.23C99.2033 205.105 99.2905 204.999 99.4023 204.924C99.5141 204.85 99.6456 204.81 99.7801 204.81C99.9604 204.81 100.133 204.881 100.261 205.009C100.388 205.137 100.46 205.309 100.46 205.49Z" fill="#263238"/>
<path opacity="0.5" d="M100.33 206.67H99.98V207.52H100.33V206.67Z" fill="white"/>
<path d="M99.18 206.44C99.7046 206.44 100.13 206.014 100.13 205.49C100.13 204.965 99.7046 204.54 99.18 204.54C98.6553 204.54 98.23 204.965 98.23 205.49C98.23 206.014 98.6553 206.44 99.18 206.44Z" fill="#263238"/>
<path opacity="0.2" d="M99.18 206.44C99.7046 206.44 100.13 206.014 100.13 205.49C100.13 204.965 99.7046 204.54 99.18 204.54C98.6553 204.54 98.23 204.965 98.23 205.49C98.23 206.014 98.6553 206.44 99.18 206.44Z" fill="white"/>
<path d="M354.01 248.92H318.38L325.19 257.86H360.81L354.01 248.92Z" fill="#0569B6"/>
<path opacity="0.3" d="M354.01 248.92H318.38L325.19 257.86H360.81L354.01 248.92Z" fill="white"/>
<path d="M367.26 248.92H389.14L382.7 257.86H360.81L367.26 248.92Z" fill="#0569B6"/>
<path opacity="0.1" d="M367.26 248.92H389.14L382.7 257.86H360.81L367.26 248.92Z" fill="white"/>
<path d="M360.82 257.86H325.19V293.49H360.82V257.86Z" fill="#0569B6"/>
<path opacity="0.5" d="M360.82 257.86H325.19V293.49H360.82V257.86Z" fill="white"/>
<path opacity="0.2" d="M346.22 257.86H339.77V265.88H346.22V257.86Z" fill="black"/>
<path opacity="0.2" d="M346.22 287.05H339.77V293.49H346.22V287.05Z" fill="black"/>
<path d="M382.69 257.86H360.81V293.49H382.69V257.86Z" fill="#0569B6"/>
<path opacity="0.3" d="M382.69 257.86H360.81V293.49H382.69V257.86Z" fill="white"/>
<path opacity="0.8" d="M373.17 291.15V284.7H363.34V291.15H373.17Z" fill="white"/>
<path d="M274.32 390.58C282.56 391 286.68 391.26 294.91 391.91C293.577 362.27 291.854 332.657 289.74 303.07C289.46 299.31 285.82 296.07 281.62 295.82L273.62 295.42C242.43 294.26 211.38 294.6 180.22 296.42C187.187 327.673 193.677 359.007 199.69 390.42C224.64 389.48 249.4 389.51 274.32 390.58Z" fill="#0569B6"/>
<path opacity="0.5" d="M274.32 390.58C282.56 391 286.68 391.26 294.91 391.91C293.577 362.27 291.854 332.657 289.74 303.07C289.46 299.31 285.82 296.07 281.62 295.82L273.62 295.42C242.43 294.26 211.38 294.6 180.22 296.42C187.187 327.673 193.677 359.007 199.69 390.42C224.64 389.48 249.4 389.51 274.32 390.58Z" fill="white"/>
<path d="M208.91 390.1C200.67 390.4 196.55 390.61 188.31 391.1C182.75 361.953 176.837 332.883 170.57 303.89C169.76 300.21 172.51 296.95 176.72 296.65C179.9 296.43 181.5 296.32 184.72 296.13C188.93 295.87 192.92 298.7 193.62 302.4C199.074 331.587 204.17 360.82 208.91 390.1Z" fill="#0569B6"/>
<path d="M220.4 406.53L216.5 361.91C216.412 360.945 215.998 360.038 215.325 359.34C214.653 358.641 213.762 358.194 212.8 358.07L211.19 357.86C209.892 357.703 208.687 357.104 207.777 356.165C206.867 355.226 206.307 354.003 206.19 352.7L205.48 344.57C205.411 343.781 205.506 342.986 205.761 342.236C206.015 341.486 206.423 340.797 206.958 340.213C207.493 339.629 208.144 339.162 208.869 338.843C209.594 338.524 210.378 338.36 211.17 338.36H175.17C174.379 338.361 173.596 338.527 172.873 338.846C172.149 339.166 171.499 339.632 170.965 340.216C170.431 340.8 170.024 341.489 169.77 342.238C169.516 342.988 169.421 343.782 169.49 344.57L170.2 352.7C170.317 354.003 170.877 355.226 171.787 356.165C172.697 357.104 173.902 357.703 175.2 357.86L176.81 358.07C177.772 358.194 178.663 358.641 179.335 359.34C180.008 360.038 180.422 360.945 180.51 361.91L184.41 406.53C184.548 408.098 185.268 409.557 186.429 410.62C187.59 411.682 189.106 412.271 190.68 412.27H226.68C225.105 412.271 223.587 411.683 222.425 410.62C221.263 409.558 220.54 408.099 220.4 406.53Z" fill="#0569B6"/>
<g opacity="0.2">
<path d="M220.4 406.53L216.5 361.91C216.412 360.945 215.998 360.038 215.325 359.34C214.653 358.641 213.762 358.194 212.8 358.07L211.19 357.86C209.892 357.703 208.687 357.104 207.777 356.165C206.867 355.226 206.307 354.003 206.19 352.7L205.48 344.57C205.411 343.781 205.506 342.986 205.761 342.236C206.015 341.486 206.423 340.797 206.958 340.213C207.493 339.629 208.144 339.162 208.869 338.843C209.594 338.524 210.378 338.36 211.17 338.36H175.17C174.379 338.361 173.596 338.527 172.873 338.846C172.149 339.166 171.499 339.632 170.965 340.216C170.431 340.8 170.024 341.489 169.77 342.238C169.516 342.988 169.421 343.782 169.49 344.57L170.2 352.7C170.317 354.003 170.877 355.226 171.787 356.165C172.697 357.104 173.902 357.703 175.2 357.86L176.81 358.07C177.772 358.194 178.663 358.641 179.335 359.34C180.008 360.038 180.422 360.945 180.51 361.91L184.41 406.53C184.548 408.098 185.268 409.557 186.429 410.62C187.59 411.682 189.106 412.271 190.68 412.27H226.68C225.105 412.271 223.587 411.683 222.425 410.62C221.263 409.558 220.54 408.099 220.4 406.53Z" fill="white"/>
</g>
<path d="M319.48 350.75C319.775 347.368 321.327 344.219 323.83 341.926C326.333 339.632 329.605 338.36 333 338.36H301.65C298.256 338.362 294.985 339.635 292.483 341.928C289.98 344.222 288.427 347.369 288.13 350.75L285 386.11H316.34L319.48 350.75Z" fill="#0569B6"/>
<path opacity="0.2" d="M319.48 350.75C319.775 347.368 321.327 344.219 323.83 341.926C326.333 339.632 329.605 338.36 333 338.36H301.65C298.256 338.362 294.985 339.635 292.483 341.928C289.98 344.222 288.427 347.369 288.13 350.75L285 386.11H316.34L319.48 350.75Z" fill="white"/>
<path d="M312.49 384.46C290.798 386.992 268.918 387.508 247.13 386C246.381 385.964 245.647 385.78 244.97 385.458C244.293 385.136 243.686 384.683 243.186 384.125C242.685 383.567 242.301 382.915 242.054 382.207C241.808 381.498 241.704 380.748 241.75 380C242.38 374.27 242.69 371.41 243.32 365.68C243.489 364.246 244.21 362.934 245.33 362.023C246.451 361.112 247.882 360.673 249.32 360.8C269.21 362.617 289.242 362.134 309.02 359.36C310.456 359.155 311.916 359.519 313.087 360.374C314.259 361.23 315.049 362.51 315.29 363.94L317.54 378.17C317.629 378.916 317.568 379.672 317.362 380.394C317.155 381.116 316.806 381.789 316.336 382.375C315.866 382.961 315.283 383.447 314.623 383.805C313.963 384.163 313.238 384.386 312.49 384.46Z" fill="#0569B6"/>
<path d="M248.93 360.8C243.93 360.35 241.5 360.07 236.57 359.39C235.133 359.182 233.671 359.545 232.497 360.401C231.323 361.256 230.531 362.538 230.29 363.97L228 378.2C227.916 378.946 227.981 379.701 228.192 380.421C228.402 381.142 228.754 381.813 229.227 382.396C229.7 382.978 230.284 383.461 230.946 383.816C231.607 384.17 232.333 384.389 233.08 384.46C238.49 385.2 241.19 385.51 246.62 386C247.57 375.92 248 370.88 248.93 360.8Z" fill="#0569B6"/>
<g opacity="0.4">
<path d="M312.49 384.46C290.798 386.992 268.918 387.508 247.13 386C246.381 385.964 245.647 385.78 244.97 385.458C244.293 385.136 243.686 384.683 243.186 384.125C242.685 383.567 242.301 382.915 242.054 382.207C241.808 381.498 241.704 380.748 241.75 380C242.38 374.27 242.69 371.41 243.32 365.68C243.489 364.246 244.21 362.934 245.33 362.023C246.451 361.112 247.882 360.673 249.32 360.8C269.21 362.617 289.242 362.134 309.02 359.36C310.456 359.155 311.916 359.519 313.087 360.374C314.259 361.23 315.049 362.51 315.29 363.94L317.54 378.17C317.629 378.916 317.568 379.672 317.362 380.394C317.155 381.116 316.806 381.789 316.336 382.375C315.866 382.961 315.283 383.447 314.623 383.805C313.963 384.163 313.238 384.386 312.49 384.46Z" fill="white"/>
</g>
<path d="M346.91 338.36H333C329.607 338.362 326.337 339.636 323.837 341.929C321.336 344.222 319.785 347.37 319.49 350.75L316.39 386.11H241.73L238.64 350.75C238.345 347.37 236.794 344.222 234.293 341.929C231.793 339.636 228.523 338.362 225.13 338.36H211.21C210.418 338.36 209.634 338.524 208.909 338.843C208.184 339.162 207.533 339.629 206.998 340.213C206.463 340.797 206.055 341.486 205.801 342.236C205.546 342.986 205.451 343.781 205.52 344.57L206.23 352.7C206.346 354.003 206.907 355.226 207.817 356.165C208.727 357.104 209.932 357.703 211.23 357.86L212.84 358.07C213.802 358.194 214.692 358.641 215.365 359.34C216.038 360.038 216.452 360.944 216.54 361.91L220.44 406.53C220.58 408.097 221.301 409.555 222.461 410.617C223.621 411.679 225.137 412.269 226.71 412.27H331.44C333.015 412.271 334.533 411.683 335.695 410.62C336.858 409.558 337.58 408.099 337.72 406.53L341.62 361.91C341.704 360.943 342.117 360.034 342.791 359.336C343.464 358.637 344.357 358.19 345.32 358.07L346.92 357.86C348.219 357.704 349.425 357.107 350.335 356.167C351.246 355.227 351.805 354.003 351.92 352.7L352.63 344.57C352.701 343.778 352.606 342.98 352.35 342.227C352.094 341.474 351.684 340.783 351.145 340.198C350.607 339.613 349.952 339.148 349.222 338.831C348.493 338.514 347.705 338.354 346.91 338.36Z" fill="#0569B6"/>
<path opacity="0.6" d="M346.91 338.36H333C329.607 338.362 326.337 339.636 323.837 341.929C321.336 344.222 319.785 347.37 319.49 350.75L316.39 386.11H241.73L238.64 350.75C238.345 347.37 236.794 344.222 234.293 341.929C231.793 339.636 228.523 338.362 225.13 338.36H211.21C210.418 338.36 209.634 338.524 208.909 338.843C208.184 339.162 207.533 339.629 206.998 340.213C206.463 340.797 206.055 341.486 205.801 342.236C205.546 342.986 205.451 343.781 205.52 344.57L206.23 352.7C206.346 354.003 206.907 355.226 207.817 356.165C208.727 357.104 209.932 357.703 211.23 357.86L212.84 358.07C213.802 358.194 214.692 358.641 215.365 359.34C216.038 360.038 216.452 360.944 216.54 361.91L220.44 406.53C220.58 408.097 221.301 409.555 222.461 410.617C223.621 411.679 225.137 412.269 226.71 412.27H331.44C333.015 412.271 334.533 411.683 335.695 410.62C336.858 409.558 337.58 408.099 337.72 406.53L341.62 361.91C341.704 360.943 342.117 360.034 342.791 359.336C343.464 358.637 344.357 358.19 345.32 358.07L346.92 357.86C348.219 357.704 349.425 357.107 350.335 356.167C351.246 355.227 351.805 354.003 351.92 352.7L352.63 344.57C352.701 343.778 352.606 342.98 352.35 342.227C352.094 341.474 351.684 340.783 351.145 340.198C350.607 339.613 349.952 339.148 349.222 338.831C348.493 338.514 347.705 338.354 346.91 338.36Z" fill="white"/>
<path d="M301.6 393.88L304.95 409.43L310.17 407.63L309.56 392.92L301.6 393.88Z" fill="#FFC3BD"/>
<path d="M252.65 328.6C257.649 328.651 262.631 328.002 267.45 326.67L272.37 337C272.37 337 303.16 331.48 307.08 341C310.43 349.09 310.57 399 310.57 399L302 400C302 400 292.61 363.67 292.65 351.64C292.653 351.428 292.596 351.219 292.486 351.037C292.375 350.856 292.216 350.709 292.026 350.614C291.836 350.519 291.623 350.48 291.411 350.5C291.2 350.521 290.998 350.6 290.83 350.73C286.1 354.41 273.51 362.37 254.45 361.14C251.5 360.95 248.05 360.31 248.93 350.68C249.771 343.258 251.013 335.888 252.65 328.6Z" fill="#0569B6"/>
<path opacity="0.1" d="M269.71 356C278.16 352.25 289.88 342 295.3 338.2C296.559 337.275 297.991 336.612 299.51 336.25C294.81 335.25 288.79 335.25 283.61 335.66L271.32 341.09L251.59 349.89L249.15 356.89C250 360.64 252.36 361.03 254.48 361.17C261.988 361.696 269.526 360.716 276.65 358.29C275.67 358.34 261.56 359.61 269.71 356Z" fill="black"/>
<path d="M328.58 365.39L339.14 376.06L343.24 372.83L335.1 360.59L328.58 365.39Z" fill="#FFC3BD"/>
<path d="M342.48 371.37L337.72 375C337.622 375.08 337.553 375.19 337.524 375.313C337.495 375.436 337.508 375.565 337.56 375.68L339.97 380.88C340.073 381.101 340.258 381.274 340.486 381.36C340.714 381.446 340.967 381.439 341.19 381.34C341.25 381.312 341.307 381.279 341.36 381.24C343.31 379.7 344.98 378.24 347.43 376.37C350.33 374.16 349.86 375.07 353.3 372.51C355.38 370.97 353.97 368.35 353.01 368.9C348.64 371.44 346.6 371.1 344.01 370.85C343.453 370.823 342.906 371.009 342.48 371.37Z" fill="#263238"/>
<path opacity="0.1" d="M255.84 336.13L261.1 337.39C261.1 337.39 270.94 329.74 266.35 332.27C263 334.13 261.35 330.27 260.66 328.08C258.57 328.37 256.74 328.5 255.36 328.56L255.84 336.13Z" fill="black"/>
<path d="M258.1 328C245.05 330.16 239.29 328.13 239.29 328.13C239.29 328.13 229.99 361.54 250.5 361.4C259.59 361.34 263.36 357.78 269.27 354.31C282.71 346.42 293.81 334.73 299.01 335.49C306.48 336.57 302.25 345.49 332.72 370.26L339.04 364.7C339.04 364.7 312.71 317.41 298.88 317.51C285.56 317.6 264.13 334.34 261.31 334.36C258.49 334.38 258.1 328 258.1 328Z" fill="#0569B6"/>
<path opacity="0.1" d="M303.17 337.39C304.889 338.034 306.293 339.317 307.09 340.97C307.603 342.407 307.959 343.896 308.15 345.41C309.01 346.65 310.03 348.04 311.23 349.56C310.43 339.54 303.17 337.39 303.17 337.39Z" fill="black"/>
<path d="M310.09 406.23L304.09 406.59C303.964 406.595 303.843 406.644 303.748 406.728C303.654 406.811 303.591 406.925 303.57 407.05L302.66 412.72C302.639 412.84 302.642 412.963 302.668 413.081C302.695 413.2 302.746 413.312 302.816 413.411C302.887 413.509 302.977 413.593 303.081 413.656C303.185 413.72 303.3 413.762 303.42 413.78C303.483 413.79 303.547 413.79 303.61 413.78C306.09 413.59 308.28 413.33 311.37 413.15C315.01 412.93 314.11 413.42 318.37 413.23C320.96 413.11 321.25 410.15 320.15 410.07C315.15 409.74 313.61 408.31 311.57 406.63C311.14 406.326 310.615 406.184 310.09 406.23Z" fill="#263238"/>
<path d="M256.56 283.66C258.25 283.01 261.05 284.13 263.48 288.47C265.91 292.81 276.25 310.71 273.31 313.01C270.37 315.31 264.74 308.79 262.67 304.11C260.6 299.43 253.6 284.81 256.56 283.66Z" fill="#263238"/>
<path opacity="0.4" d="M261.1 291.92L261.46 294.79L261.27 301C261.83 302.25 262.32 303.32 262.67 304.11C263.57 306.054 264.723 307.87 266.1 309.51C266.54 300.76 263.24 291.92 263.24 291.92H261.1Z" fill="black"/>
<path d="M238.65 328.77C238.65 328.77 256.72 330.92 268.25 327.13C268.25 327.13 264.74 322.71 264.25 313.86C263.8 305.18 267.49 294.76 258.8 284.2C258.631 283.993 258.415 283.831 258.169 283.726C257.924 283.622 257.656 283.579 257.39 283.6C252.82 283.92 231.54 285.6 231.23 289.37C230.87 294.15 240.17 304.35 238.65 328.77Z" fill="#263238"/>
<path d="M240.42 273.62C240.42 273.62 242.79 280.53 240.95 283.49C240.95 283.49 247.6 283.83 249.22 281.66C249.22 281.66 248.28 281.15 247.98 278.51C247.68 275.87 245.15 273.14 240.42 273.62Z" fill="#FFC3BD"/>
<path opacity="0.2" d="M248 278.51C247.73 276.07 245.53 273.51 241.44 273.57L241.16 273.82L240.87 274.35C240.87 274.35 243.38 281.09 248.42 280.35C248.204 279.757 248.063 279.139 248 278.51Z" fill="black"/>
<path d="M237.92 264.45C238.71 270.8 238.92 273.51 242.33 276.58C247.49 281.21 255.12 278.85 256.25 272.38C257.25 266.56 255.8 257.15 249.4 255C247.99 254.519 246.48 254.407 245.015 254.674C243.549 254.941 242.176 255.578 241.026 256.525C239.875 257.472 238.986 258.697 238.443 260.084C237.899 261.471 237.719 262.974 237.92 264.45Z" fill="#FFC3BD"/>
<path d="M252 268.19C252.538 269.346 253.231 270.422 254.06 271.39C253.809 271.597 253.517 271.746 253.202 271.827C252.888 271.909 252.559 271.92 252.24 271.86L252 268.19Z" fill="#ED893E"/>
<path d="M246.37 264.88L246.25 264.83C246.204 264.782 246.178 264.717 246.178 264.65C246.178 264.583 246.204 264.518 246.25 264.47C246.54 264.09 246.916 263.785 247.347 263.58C247.779 263.374 248.253 263.275 248.73 263.29C248.789 263.306 248.841 263.343 248.875 263.393C248.91 263.444 248.926 263.505 248.92 263.566C248.914 263.627 248.887 263.684 248.843 263.727C248.799 263.77 248.741 263.796 248.68 263.8C248.291 263.797 247.908 263.886 247.56 264.06C247.212 264.233 246.911 264.487 246.68 264.8C246.644 264.845 246.594 264.877 246.538 264.891C246.482 264.905 246.424 264.902 246.37 264.88Z" fill="#2E353A"/>
<path d="M255.8 263.87L255.68 263.82C255.374 263.576 255.014 263.408 254.63 263.329C254.245 263.251 253.848 263.265 253.47 263.37C253.44 263.383 253.407 263.39 253.373 263.39C253.34 263.39 253.307 263.383 253.276 263.37C253.245 263.357 253.217 263.338 253.194 263.314C253.171 263.29 253.153 263.261 253.14 263.23C253.128 263.199 253.122 263.165 253.124 263.131C253.125 263.098 253.134 263.065 253.149 263.034C253.164 263.004 253.185 262.977 253.211 262.956C253.238 262.935 253.268 262.919 253.3 262.91C253.757 262.776 254.239 262.752 254.707 262.84C255.175 262.929 255.615 263.128 255.99 263.42C256.017 263.439 256.04 263.463 256.058 263.491C256.076 263.519 256.088 263.55 256.093 263.583C256.099 263.615 256.098 263.648 256.091 263.681C256.083 263.713 256.07 263.743 256.05 263.77C256.023 263.81 255.985 263.841 255.941 263.861C255.897 263.88 255.848 263.887 255.8 263.88V263.87Z" fill="#2E353A"/>
<path d="M248.25 267.56C248.25 268.08 248.59 268.48 248.93 268.46C249.27 268.44 249.52 268.01 249.48 267.46C249.44 266.91 249.15 266.54 248.81 266.56C248.47 266.58 248.22 267 248.25 267.56Z" fill="#2E353A"/>
<path d="M254.13 267.19C254.13 267.71 254.46 268.11 254.8 268.09C255.14 268.07 255.38 267.64 255.35 267.09C255.32 266.54 255.02 266.17 254.68 266.19C254.34 266.21 254.09 266.67 254.13 267.19Z" fill="#2E353A"/>
<path d="M254.54 266.25L255.76 265.82C255.76 265.82 255.18 266.83 254.54 266.25Z" fill="#2E353A"/>
<path d="M248.66 266.62L249.89 266.18C249.89 266.18 249.3 267.2 248.66 266.62Z" fill="#2E353A"/>
<path d="M248.89 272.77C248.753 272.611 248.629 272.44 248.52 272.26C248.5 272.236 248.489 272.206 248.489 272.175C248.489 272.144 248.5 272.114 248.52 272.09C248.545 272.071 248.575 272.061 248.605 272.061C248.636 272.061 248.666 272.071 248.69 272.09C248.961 272.543 249.335 272.927 249.781 273.208C250.228 273.49 250.735 273.662 251.26 273.71C251.288 273.718 251.311 273.734 251.328 273.757C251.346 273.779 251.355 273.807 251.355 273.835C251.355 273.863 251.346 273.891 251.328 273.913C251.311 273.936 251.288 273.952 251.26 273.96C250.807 273.927 250.364 273.805 249.957 273.601C249.55 273.397 249.188 273.114 248.89 272.77Z" fill="#263238"/>
<path opacity="0.4" d="M240.85 306C239.85 301.48 236.42 293.69 236.42 293.69L233.93 293L232.71 294.68C234.88 300.08 238.71 308.68 238.81 322.88C243.61 322.73 248.92 315.96 248.92 315.96L246.2 309.96C243.17 311.46 241.82 310.56 240.85 306Z" fill="black"/>
<path d="M239.74 269.5C239.74 269.5 243.86 267.62 241.46 264.09C241.46 264.09 245.68 264.67 246.03 260.55C246.03 260.55 249.78 262.44 251.89 259.5C251.89 259.5 255.89 261.77 256.81 258.93C257.73 256.09 254.61 255.34 254.61 255.34C254.61 255.34 255.09 252.54 253.47 251.8C252.932 251.607 252.354 251.55 251.788 251.636C251.223 251.721 250.687 251.946 250.23 252.29C250.23 252.29 249.92 248.95 247.23 249.08C246.392 249.158 245.582 249.428 244.865 249.868C244.147 250.309 243.54 250.908 243.09 251.62C242.349 251.158 241.508 250.882 240.637 250.816C239.766 250.75 238.892 250.895 238.09 251.24C235.42 252.45 234.98 256.09 234.98 256.09C234.98 256.09 231.98 256.7 231.49 259.02C231 261.34 231.96 262.13 231.96 262.13C231.96 262.13 230.34 264.36 230.86 266.42C231.38 268.48 232.46 268.42 232.46 268.42C232.264 270.032 232.663 271.66 233.58 273C235.07 274.79 236.2 274 236.2 274C236.2 274 236.69 278 239.43 277.59C242.17 277.18 239.74 269.5 239.74 269.5Z" fill="#263238"/>
<path d="M236.72 269.59C237.151 270.751 238.025 271.693 239.15 272.21C240.65 272.89 241.64 271.61 241.43 270.07C241.25 268.69 240.24 266.66 238.64 266.63C238.079 266.641 237.544 266.872 237.153 267.275C236.762 267.678 236.545 268.219 236.55 268.78C236.553 269.059 236.611 269.334 236.72 269.59Z" fill="#FFC3BD"/>
<path d="M239.74 285.72L241.36 280.98C243.071 281.63 244.912 281.863 246.73 281.66C248.73 281.43 248.66 280.53 248.66 280.53L252.66 283.99L250.95 286.18L247.88 284.77L245.56 287.35L239.74 285.72Z" fill="#263238"/>
<path opacity="0.7" d="M239.74 285.72L241.36 280.98C243.071 281.63 244.912 281.863 246.73 281.66C248.73 281.43 248.66 280.53 248.66 280.53L252.66 283.99L250.95 286.18L247.88 284.77L245.56 287.35L239.74 285.72Z" fill="white"/>
<path d="M261.86 304.43H258C257.82 304.437 257.641 304.401 257.478 304.326C257.315 304.25 257.172 304.137 257.061 303.996C256.95 303.854 256.873 303.688 256.839 303.512C256.804 303.335 256.811 303.153 256.86 302.98L259 292.86C259.094 292.461 259.315 292.103 259.631 291.841C259.947 291.579 260.34 291.428 260.75 291.41H264.63C264.809 291.405 264.987 291.442 265.149 291.518C265.311 291.594 265.452 291.708 265.562 291.849C265.672 291.99 265.748 292.155 265.782 292.331C265.816 292.507 265.809 292.688 265.76 292.86L263.61 303C263.513 303.396 263.29 303.75 262.974 304.007C262.658 304.265 262.267 304.414 261.86 304.43Z" fill="#0569B6"/>
<path opacity="0.3" d="M261.86 304.43H258C257.82 304.437 257.641 304.401 257.478 304.326C257.315 304.25 257.172 304.137 257.061 303.996C256.95 303.854 256.873 303.688 256.839 303.512C256.804 303.335 256.811 303.153 256.86 302.98L259 292.86C259.094 292.461 259.315 292.103 259.631 291.841C259.947 291.579 260.34 291.428 260.75 291.41H264.63C264.809 291.405 264.987 291.442 265.149 291.518C265.311 291.594 265.452 291.708 265.562 291.849C265.672 291.99 265.748 292.155 265.782 292.331C265.816 292.507 265.809 292.688 265.76 292.86L263.61 303C263.513 303.396 263.29 303.75 262.974 304.007C262.658 304.265 262.267 304.414 261.86 304.43Z" fill="white"/>
<path d="M262.43 304.43H258.56C258.38 304.437 258.202 304.401 258.038 304.326C257.875 304.25 257.732 304.137 257.621 303.996C257.51 303.854 257.433 303.688 257.399 303.512C257.364 303.335 257.371 303.153 257.42 302.98L259.57 292.86C259.664 292.461 259.885 292.103 260.201 291.841C260.517 291.579 260.91 291.428 261.32 291.41H265.2C265.379 291.405 265.557 291.442 265.719 291.518C265.881 291.594 266.022 291.708 266.132 291.849C266.242 291.99 266.318 292.155 266.352 292.331C266.386 292.507 266.379 292.688 266.33 292.86L264.18 303C264.083 303.396 263.86 303.75 263.544 304.007C263.228 304.265 262.837 304.414 262.43 304.43Z" fill="#0569B6"/>
<path opacity="0.7" d="M262.43 304.43H258.56C258.38 304.437 258.202 304.401 258.038 304.326C257.875 304.25 257.732 304.137 257.621 303.996C257.51 303.854 257.433 303.688 257.399 303.512C257.364 303.335 257.371 303.153 257.42 302.98L259.57 292.86C259.664 292.461 259.885 292.103 260.201 291.841C260.517 291.579 260.91 291.428 261.32 291.41H265.2C265.379 291.405 265.557 291.442 265.719 291.518C265.881 291.594 266.022 291.708 266.132 291.849C266.242 291.99 266.318 292.155 266.352 292.331C266.386 292.507 266.379 292.688 266.33 292.86L264.18 303C264.083 303.396 263.86 303.75 263.544 304.007C263.228 304.265 262.837 304.414 262.43 304.43Z" fill="white"/>
<path d="M260.89 294.41H261.27C261.548 294.394 261.812 294.288 262.024 294.107C262.235 293.927 262.381 293.682 262.44 293.41L262.52 293.03C262.559 292.913 262.569 292.787 262.549 292.665C262.529 292.543 262.479 292.428 262.404 292.329C262.329 292.231 262.232 292.152 262.119 292.1C262.007 292.048 261.884 292.024 261.76 292.03H261.38C261.102 292.046 260.838 292.152 260.626 292.333C260.415 292.513 260.269 292.758 260.21 293.03L260.13 293.41C260.091 293.527 260.081 293.653 260.101 293.775C260.121 293.897 260.171 294.012 260.246 294.111C260.321 294.21 260.418 294.288 260.531 294.34C260.643 294.393 260.766 294.416 260.89 294.41Z" fill="#0569B6"/>
<path d="M261.82 292.67C261.797 292.781 261.737 292.882 261.65 292.954C261.563 293.027 261.454 293.068 261.34 293.07C261.29 293.074 261.239 293.065 261.193 293.045C261.147 293.025 261.106 292.994 261.074 292.955C261.043 292.915 261.021 292.869 261.012 292.819C261.002 292.769 261.005 292.718 261.02 292.67C261.048 292.56 261.111 292.461 261.199 292.389C261.287 292.317 261.396 292.275 261.51 292.27C261.56 292.268 261.609 292.278 261.654 292.299C261.699 292.319 261.738 292.351 261.768 292.39C261.799 292.429 261.819 292.475 261.828 292.524C261.837 292.572 261.834 292.623 261.82 292.67Z" fill="#263238"/>
<path d="M261.58 293.83C261.552 293.941 261.489 294.039 261.401 294.111C261.313 294.183 261.204 294.225 261.09 294.23C261.04 294.232 260.991 294.222 260.946 294.201C260.901 294.18 260.861 294.149 260.83 294.11C260.799 294.071 260.777 294.026 260.767 293.977C260.756 293.929 260.758 293.878 260.77 293.83C260.798 293.72 260.861 293.621 260.949 293.549C261.037 293.477 261.146 293.435 261.26 293.43C261.31 293.429 261.359 293.439 261.404 293.459C261.449 293.48 261.489 293.511 261.52 293.55C261.551 293.589 261.573 293.634 261.583 293.683C261.594 293.732 261.592 293.782 261.58 293.83Z" fill="#263238"/>
<path d="M272.68 308.63L267.25 304.44C267.25 304.44 265.13 299.82 263.66 299.24C263.268 299.124 262.85 299.131 262.462 299.259C262.074 299.388 261.735 299.633 261.49 299.96C260.63 301.02 260.54 304.37 261.41 305.43C262.28 306.49 264.93 307.19 264.93 307.19L270.01 312.48L272.68 308.63Z" fill="#FFC3BD"/>
<path d="M274 313.28C271.47 315.66 268.93 312.74 266.34 309.8C267.151 309.412 267.869 308.854 268.446 308.163C269.022 307.473 269.443 306.667 269.68 305.8C269.68 305.8 277.33 310.16 274 313.28Z" fill="#263238"/>
<path opacity="0.7" d="M266.35 309.8L267.1 310.65C268.77 309.729 270.025 308.205 270.61 306.39C270.07 306.02 269.69 305.81 269.69 305.81C269.451 306.675 269.03 307.48 268.454 308.168C267.877 308.856 267.16 309.413 266.35 309.8Z" fill="white"/>
<path d="M249.22 308.63L254.65 304.44C254.65 304.44 256.77 299.82 258.24 299.24C258.632 299.124 259.05 299.131 259.438 299.259C259.826 299.388 260.165 299.633 260.41 299.96C261.27 301.02 261.36 304.37 260.49 305.43C259.62 306.49 256.97 307.19 256.97 307.19L251.89 312.48L249.22 308.63Z" fill="#FFC3BD"/>
<path d="M229.76 303.52C228.89 300.07 227.92 291.43 231.26 288.68C234.6 285.93 236.52 293.45 237.84 299.24C239.16 305.03 239.84 312.79 242.79 311.59C245.456 310.258 248.002 308.699 250.4 306.93L253.79 311.71C253.79 311.71 243.44 323.64 238.89 320.12C234.34 316.6 230.87 307.89 229.76 303.52Z" fill="#263238"/>
<path opacity="0.7" d="M249.14 307.83L252.62 312.98C253.35 312.22 253.79 311.71 253.79 311.71L250.4 306.93C250.4 306.93 249.9 307.3 249.14 307.83Z" fill="white"/>
</svg>
