<svg width="24" height="29" viewBox="0 0 24 29" fill="none" xmlns="http://www.w3.org/2000/svg">
<path d="M21.6807 2.92092C22.5882 4.11996 22.9916 5.61875 22.9916 7.31739C22.9916 9.11595 22.5882 10.5148 21.6807 11.6139C21.1765 12.2135 20.4706 12.813 19.4622 13.3126C20.9748 13.8122 22.084 14.7115 22.8908 15.9105C23.6975 17.1095 24 18.5084 24 20.2071C24 21.9057 23.5966 23.5044 22.6891 24.8034C22.1849 25.7026 21.479 26.502 20.5714 27.1015C19.6639 27.801 18.5546 28.3006 17.2437 28.6003C15.9328 28.9001 14.6218 29 13.1092 29H0V0.0232437H14.1176C17.7479 -0.176596 20.2689 0.922522 21.6807 2.92092ZM5.84874 4.8194V11.2143H13.0084C14.3193 11.2143 15.3277 11.0144 16.1345 10.5148C16.9412 10.0152 17.3445 9.21587 17.3445 8.01683C17.3445 6.61795 16.8403 5.81859 15.7311 5.31899C14.8235 5.01924 13.7143 4.8194 12.3025 4.8194H5.84874ZM5.84874 16.0104V23.7042H12.9076C14.2185 23.7042 15.126 23.5044 15.8319 23.2046C17.1429 22.6051 17.7479 21.4061 17.7479 19.6075C17.7479 18.1087 17.1429 17.1095 15.9328 16.51C15.2269 16.2103 14.2185 16.0104 13.0084 16.0104H5.84874Z" fill="white"/>
</svg>
