<svg width="85" height="32" viewBox="0 0 85 32" fill="none" xmlns="http://www.w3.org/2000/svg">
<path d="M21.6807 3.14272C22.5882 4.43281 22.9916 6.04542 22.9916 7.87305C22.9916 9.80818 22.5882 11.3133 21.6807 12.4959C21.1765 13.1409 20.4706 13.786 19.4622 14.3235C20.9748 14.861 22.084 15.8286 22.8908 17.1187C23.6975 18.4088 24 19.9139 24 21.7415C24 23.5691 23.5966 25.2892 22.6891 26.6868C22.1849 27.6544 21.479 28.5145 20.5714 29.1595C19.6639 29.9121 18.5546 30.4496 17.2437 30.7721C15.9328 31.0946 14.6218 31.2022 13.1092 31.2022H0V0.0250087H14.1176C17.7479 -0.190006 20.2689 0.992575 21.6807 3.14272ZM5.84874 5.18536V12.0658H13.0084C14.3193 12.0658 15.3277 11.8508 16.1345 11.3133C16.9412 10.7757 17.3445 9.91569 17.3445 8.6256C17.3445 7.1205 16.8403 6.26044 15.7311 5.7229C14.8235 5.40038 13.7143 5.18536 12.3025 5.18536H5.84874ZM5.84874 17.2262V25.5043H12.9076C14.2185 25.5043 15.126 25.2892 15.8319 24.9667C17.1429 24.3217 17.7479 23.0316 17.7479 21.0965C17.7479 19.4838 17.1429 18.4088 15.9328 17.7637C15.2269 17.4412 14.2185 17.2262 13.0084 17.2262H5.84874Z" fill="white"/>
<path d="M26.388 30.476C26.388 30.86 26.052 31.196 25.668 31.196C25.296 31.196 24.948 30.872 24.948 30.476C24.948 30.08 25.272 29.756 25.668 29.756C26.064 29.756 26.388 30.08 26.388 30.476ZM30.8198 25.364C31.6358 25.364 32.4038 25.64 32.9678 26.252L32.2238 26.912C31.8278 26.432 31.3718 26.228 30.8078 26.228C29.6438 26.228 28.9118 27.056 28.9118 28.316C28.9118 29.492 29.6918 30.404 30.8078 30.404C31.4198 30.404 31.8878 30.188 32.2358 29.708L32.9318 30.368C32.3918 30.992 31.6238 31.268 30.8078 31.268C29.0798 31.268 27.9038 30.056 27.9038 28.316C27.9038 26.6 29.0918 25.364 30.8198 25.364ZM36.6929 25.364C38.4329 25.364 39.6929 26.576 39.6929 28.316C39.6929 30.044 38.4329 31.268 36.6929 31.268C34.9529 31.268 33.6929 30.044 33.6929 28.316C33.6929 26.6 34.9289 25.364 36.6929 25.364ZM34.7009 28.316C34.7009 29.528 35.5169 30.404 36.6929 30.404C37.8929 30.404 38.6849 29.504 38.6849 28.316C38.6849 27.128 37.8929 26.228 36.6809 26.228C35.5049 26.228 34.7009 27.128 34.7009 28.316ZM41.0939 25.508H41.9819C41.9819 25.856 42.0059 26.06 42.0059 26.432H42.0299C42.3299 25.796 43.0619 25.364 43.9139 25.364C44.6819 25.364 45.3059 25.628 45.6779 26.432C46.1219 25.7 46.6619 25.364 47.4659 25.364C48.9179 25.364 49.5899 26.132 49.5899 27.656V31.124H48.6539V27.728C48.6539 26.768 48.1859 26.228 47.2859 26.228C46.4459 26.228 45.8339 26.96 45.8339 27.848V31.124H44.8979V27.872C44.8979 26.78 44.6219 26.228 43.8059 26.228C42.6779 26.228 42.0779 27.02 42.0779 28.376V31.124H41.1419V26.756C41.1419 26.384 41.0939 25.844 41.0939 25.508Z" fill="white"/>
</svg>
