<svg width="60" height="60" viewBox="0 0 60 60" fill="none" xmlns="http://www.w3.org/2000/svg">
<g clip-path="url(#clip0_1156_77)">
<path opacity="0.924" fill-rule="evenodd" clip-rule="evenodd" d="M29.1211 0.527605C30.2698 0.28531 31.2269 0.597811 31.9922 1.4651C32.2111 1.82898 32.3479 2.21962 32.4024 2.63698C33.5358 2.61747 34.6687 2.637 35.8008 2.69557C35.9685 2.75009 36.1052 2.84775 36.211 2.98854C36.2892 4.35573 36.2892 5.72291 36.211 7.0901C36.1672 7.19747 36.1086 7.29514 36.0352 7.38307C35.5681 7.44153 35.0994 7.46106 34.629 7.44167C34.629 8.06666 34.629 8.69167 34.629 9.31667C35.0215 9.29733 35.4121 9.31687 35.8008 9.37526C35.9685 9.42978 36.1052 9.52744 36.211 9.66823C36.2892 11.0745 36.2892 12.4807 36.211 13.887C36.1524 13.9456 36.0938 14.0042 36.0352 14.0628C34.8249 14.1214 33.614 14.1408 32.4024 14.1214C32.4024 16.6213 32.4024 19.1214 32.4024 21.6214C33.0003 21.7687 33.4495 22.1202 33.7501 22.676C33.8929 23.4871 33.9711 24.3074 33.9844 25.137C36.9063 27.0364 38.1563 29.7317 37.7344 33.2229C36.7895 37.3765 34.1919 39.564 29.9415 39.7854C25.7377 39.586 23.14 37.4376 22.1485 33.3401C21.6912 29.8028 22.9413 27.0683 25.8985 25.137C25.9119 24.3074 25.99 23.4871 26.1329 22.676C26.4335 22.1202 26.8826 21.7687 27.4805 21.6214C27.461 15.1759 27.4805 8.73061 27.5391 2.28542C27.8043 1.45425 28.3317 0.868311 29.1211 0.527605ZM29.4727 2.05104C30.087 1.90697 30.5362 2.10228 30.8204 2.63698C30.879 3.88637 30.8985 5.13637 30.879 6.38698C30.254 6.38698 29.6289 6.38698 29.004 6.38698C28.9844 5.13637 29.004 3.88637 29.0626 2.63698C29.1794 2.42334 29.3161 2.22803 29.4727 2.05104ZM32.4024 4.16042C33.1837 4.16042 33.9649 4.16042 34.7461 4.16042C34.7461 4.74635 34.7461 5.33229 34.7461 5.91823C34.2364 5.88661 33.7481 5.96473 33.2813 6.1526C33.1491 6.90228 33.0905 7.664 33.1055 8.43776C33.1251 9.12135 33.1445 9.80495 33.1641 10.4885C33.2617 10.5862 33.3595 10.6839 33.4571 10.7815C33.8851 10.8399 34.3147 10.8595 34.7461 10.8401C34.7461 11.4651 34.7461 12.0901 34.7461 12.7151C33.9649 12.7151 33.1837 12.7151 32.4024 12.7151C32.4024 9.86355 32.4024 7.01198 32.4024 4.16042ZM29.004 7.91042C29.6289 7.91042 30.254 7.91042 30.879 7.91042C30.879 8.26198 30.879 8.61354 30.879 8.96511C30.254 8.96511 29.6289 8.96511 29.004 8.96511C29.004 8.61354 29.004 8.26198 29.004 7.91042ZM29.004 10.4885C29.6289 10.4885 30.254 10.4885 30.879 10.4885C30.879 14.1604 30.879 17.8323 30.879 21.5042C30.254 21.5042 29.6289 21.5042 29.004 21.5042C29.004 17.8323 29.004 14.1604 29.004 10.4885ZM27.8321 23.0276C29.2389 23.008 30.6452 23.0276 32.0508 23.0862C32.1876 23.1448 32.2852 23.2424 32.3438 23.3792C32.422 23.7307 32.422 24.0823 32.3438 24.4339C31.5727 24.1497 30.772 24.0325 29.9415 24.0823C29.111 24.0325 28.3102 24.1497 27.5391 24.4339C27.461 24.0823 27.461 23.7307 27.5391 23.3792C27.6209 23.2396 27.7185 23.1224 27.8321 23.0276ZM28.7696 25.6057C32.6493 25.3276 35.1297 27.0464 36.211 30.762C36.5458 34.6445 34.8466 37.125 31.1133 38.2034C27.2308 38.5382 24.7503 36.839 23.6719 33.1057C23.361 29.2205 25.0603 26.7205 28.7696 25.6057ZM29.7071 28.7698C30.9135 28.8628 31.6167 29.5074 31.8165 30.7034C31.3599 32.3769 30.3442 32.8457 28.7696 32.1096C27.7997 31.0192 27.8778 30.0035 29.004 29.0628C29.2513 28.9637 29.4857 28.8661 29.7071 28.7698Z" fill="#0569B6"/>
<path opacity="0.913" fill-rule="evenodd" clip-rule="evenodd" d="M13.7697 10.02C14.8642 10.0005 15.958 10.02 17.051 10.0786C17.2325 10.2209 17.3692 10.3966 17.4612 10.6059C17.5393 10.9966 17.6174 11.3872 17.6955 11.7778C17.9638 11.952 18.2567 12.0691 18.5744 12.1294C18.9772 11.9426 19.3678 11.7278 19.7463 11.4849C19.9807 11.4067 20.2151 11.4067 20.4494 11.4849C21.2149 12.2112 21.9376 12.9729 22.6174 13.77C22.6956 13.9262 22.6956 14.0825 22.6174 14.2388C22.3782 14.6588 22.1243 15.0689 21.8557 15.4692C21.961 15.7261 22.0782 15.9799 22.2072 16.2309C22.6451 16.4481 23.1138 16.5847 23.6135 16.6411C23.795 16.7834 23.9317 16.9591 24.0237 17.1684C24.1311 18.2711 24.0921 19.3648 23.9065 20.4497C23.3652 20.6957 22.7988 20.891 22.2072 21.0356C22.1129 21.3186 21.9957 21.5922 21.8557 21.8559C22.1327 22.2308 22.3865 22.6214 22.6174 23.0278C22.6956 23.2232 22.6956 23.4184 22.6174 23.6138C21.8947 24.3365 21.1721 25.059 20.4494 25.7817C20.176 25.8599 19.9025 25.8599 19.6291 25.7817C19.2776 25.5669 18.926 25.352 18.5744 25.1372C18.3353 25.2234 18.1009 25.3211 17.8713 25.4302C17.6472 25.8429 17.5105 26.2921 17.4612 26.7778C17.4067 26.9455 17.3089 27.0822 17.1682 27.188C16.0353 27.2661 14.9026 27.2661 13.7697 27.188C13.6624 27.1441 13.5647 27.0856 13.4768 27.0122C13.3474 26.5018 13.2106 25.9941 13.0666 25.4888C12.8028 25.3487 12.5293 25.2315 12.2463 25.1372C11.8947 25.352 11.5432 25.5669 11.1916 25.7817C10.9182 25.8599 10.6447 25.8599 10.3713 25.7817C9.60583 25.0554 8.88318 24.2937 8.20334 23.4966C8.12521 23.3404 8.12521 23.184 8.20334 23.0278C8.43418 22.6214 8.68809 22.2308 8.96506 21.8559C8.82504 21.5922 8.70786 21.3186 8.6135 21.0356C8.11739 20.8621 7.60957 20.7253 7.09006 20.6255C6.92679 20.4882 6.82914 20.3125 6.79709 20.0981C6.69006 19.0345 6.72912 17.9799 6.91428 16.9341C7.01193 16.8365 7.10959 16.7387 7.20725 16.6411C7.64325 16.5656 8.07293 16.468 8.49631 16.3481C8.69903 16.0794 8.85529 15.7865 8.96506 15.4692C8.69646 15.0689 8.44257 14.6588 8.20334 14.2388C8.12896 13.9886 8.16802 13.7542 8.32053 13.5356C9.00412 12.8521 9.68772 12.1684 10.3713 11.4849C10.6057 11.4067 10.8401 11.4067 11.0744 11.4849C11.4529 11.7278 11.8435 11.9426 12.2463 12.1294C12.5325 12.0666 12.8059 11.969 13.0666 11.8364C13.1934 11.4374 13.2912 11.0272 13.3596 10.6059C13.4764 10.3923 13.6132 10.197 13.7697 10.02ZM14.7072 11.5434C15.176 11.5434 15.6447 11.5434 16.1135 11.5434C16.0247 12.3478 16.3372 12.9143 17.051 13.2427C17.5815 13.4781 18.1284 13.6539 18.6916 13.77C19.1487 13.6881 19.5588 13.4929 19.9221 13.1841C20.2602 13.4827 20.5531 13.8148 20.801 14.1802C20.5526 14.5453 20.3573 14.9359 20.2151 15.352C20.4586 16.0932 20.7515 16.8158 21.094 17.52C21.5362 17.8006 22.0244 17.9568 22.5588 17.9888C22.5588 18.4575 22.5588 18.9263 22.5588 19.395C22.04 19.401 21.5518 19.5182 21.094 19.7466C20.7435 20.4662 20.4505 21.2084 20.2151 21.9731C20.3438 22.4457 20.5782 22.8559 20.9182 23.2036C20.6448 23.477 20.3713 23.7505 20.0979 24.0239C19.9807 24.1021 19.8635 24.1021 19.7463 24.0239C19.4577 23.7233 19.1061 23.5475 18.6916 23.4966C17.8972 23.7278 17.1355 24.0402 16.4065 24.4341C16.2712 24.8564 16.1736 25.2861 16.1135 25.7231C15.6447 25.7231 15.176 25.7231 14.7072 25.7231C14.6862 25.2455 14.569 24.7963 14.3557 24.3755C13.6373 24.0161 12.8952 23.7231 12.1291 23.4966C11.6817 23.6115 11.2715 23.8069 10.8987 24.0825C10.5332 23.8347 10.2012 23.5417 9.90256 23.2036C10.3647 22.7687 10.5796 22.2414 10.5471 21.6216C10.2737 20.9966 10.0002 20.3715 9.72678 19.7466C9.27572 19.5362 8.80697 19.3799 8.32053 19.2778C8.2621 18.8499 8.24256 18.4202 8.26193 17.9888C8.86443 17.9748 9.39177 17.7796 9.84396 17.4028C10.1151 16.7242 10.369 16.0406 10.6057 15.352C10.5318 14.9658 10.356 14.6337 10.0783 14.3559C10.0002 14.2388 10.0002 14.1216 10.0783 14.0044C10.3518 13.731 10.6252 13.4575 10.8987 13.1841C11.262 13.4929 11.6721 13.6881 12.1291 13.77C12.8656 13.617 13.5688 13.363 14.2385 13.0083C14.5483 12.5759 14.7046 12.0877 14.7072 11.5434ZM14.7072 15.4106C17.0337 15.257 18.3619 16.3313 18.6916 18.6333C18.4508 20.5734 17.3571 21.6867 15.4104 21.9731C12.9317 21.5438 11.8966 20.0984 12.3049 17.6372C12.7579 16.4999 13.5587 15.7576 14.7072 15.4106Z" fill="#0569B6"/>
<path opacity="0.912" fill-rule="evenodd" clip-rule="evenodd" d="M42.8321 10.02C43.9265 10.0005 45.0203 10.02 46.1133 10.0786C46.2948 10.2209 46.4315 10.3966 46.5235 10.6059C46.6016 10.9966 46.6797 11.3872 46.7578 11.7778C47.0261 11.952 47.3191 12.0691 47.6367 12.1294C48.0229 11.9752 48.3744 11.7604 48.6914 11.4849C48.9648 11.4067 49.2383 11.4067 49.5117 11.4849C50.2772 12.2112 50.9999 12.9729 51.6797 13.77C51.7579 13.9262 51.7579 14.0825 51.6797 14.2388C51.4405 14.6588 51.1866 15.0689 50.918 15.4692C51.0233 15.7261 51.1405 15.9799 51.2696 16.2309C51.7074 16.4481 52.1761 16.5847 52.6758 16.6411C52.9087 16.7957 53.0454 17.0105 53.086 17.2856C53.193 18.3492 53.1539 19.4039 52.9688 20.4497C52.4275 20.6957 51.8611 20.891 51.2696 21.0356C51.1752 21.3186 51.058 21.5922 50.918 21.8559C51.195 22.2308 51.4489 22.6214 51.6797 23.0278C51.7541 23.278 51.715 23.5124 51.5625 23.7309C50.879 24.4145 50.1953 25.0982 49.5117 25.7817C49.2383 25.8599 48.9648 25.8599 48.6914 25.7817C48.3399 25.5669 47.9883 25.352 47.6367 25.1372C47.3537 25.2315 47.0802 25.3487 46.8164 25.4888C46.6724 25.9941 46.5357 26.5018 46.4063 27.0122C46.3184 27.0856 46.2207 27.1441 46.1133 27.188C44.9805 27.2661 43.8477 27.2661 42.7149 27.188C42.5741 27.0822 42.4764 26.9455 42.4219 26.7778C42.3437 26.3872 42.2657 25.9965 42.1875 25.6059C41.9375 25.3734 41.6445 25.2171 41.3086 25.1372C40.9571 25.352 40.6055 25.5669 40.2539 25.7817C39.9805 25.8599 39.707 25.8599 39.4336 25.7817C38.7109 25.059 37.9883 24.3365 37.2657 23.6138C37.1875 23.4184 37.1875 23.2232 37.2657 23.0278C37.4965 22.6214 37.7503 22.2308 38.0274 21.8559C37.8873 21.5922 37.7701 21.3186 37.6758 21.0356C37.1798 20.8621 36.6719 20.7253 36.1524 20.6255C35.9891 20.4882 35.8914 20.3125 35.8594 20.0981C35.7812 19.1216 35.7812 18.145 35.8594 17.1684C35.9514 16.9591 36.088 16.7834 36.2696 16.6411C36.7056 16.5656 37.1352 16.468 37.5586 16.3481C37.7614 16.0794 37.9176 15.7865 38.0274 15.4692C37.788 15.088 37.534 14.7169 37.2657 14.3559C37.1829 14.0664 37.2219 13.7929 37.3828 13.5356C38.0664 12.8521 38.7501 12.1684 39.4336 11.4849C39.668 11.4067 39.9024 11.4067 40.1367 11.4849C40.5153 11.7278 40.9058 11.9426 41.3086 12.1294C41.5948 12.0666 41.8682 11.969 42.1289 11.8364C42.2557 11.4374 42.3535 11.0272 42.4219 10.6059C42.5387 10.3923 42.6755 10.197 42.8321 10.02ZM43.7696 11.5434C44.2383 11.5434 44.7071 11.5434 45.1758 11.5434C45.087 12.3478 45.3995 12.9143 46.1133 13.2427C46.6438 13.4781 47.1907 13.6539 47.7539 13.77C48.211 13.6881 48.6211 13.4929 48.9844 13.1841C49.3225 13.4827 49.6155 13.8148 49.8633 14.1802C49.6149 14.5453 49.4196 14.9359 49.2774 15.352C49.5173 16.1909 49.8688 16.9722 50.3321 17.6958C50.7544 17.831 51.1841 17.9286 51.6211 17.9888C51.6405 18.4202 51.621 18.8499 51.5625 19.2778C51.083 19.4049 50.6142 19.5611 50.1563 19.7466C49.738 20.5324 49.4646 21.3527 49.336 22.2075C49.5046 22.5711 49.7195 22.9031 49.9805 23.2036C49.6819 23.5417 49.3498 23.8347 48.9844 24.0825C48.6115 23.8069 48.2014 23.6115 47.7539 23.4966C46.9879 23.7231 46.2457 24.0161 45.5274 24.3755C45.3141 24.7963 45.1969 25.2455 45.1758 25.7231C44.7071 25.7231 44.2383 25.7231 43.7696 25.7231C43.8355 24.8747 43.484 24.3082 42.7149 24.0239C42.2176 23.8126 41.7098 23.6368 41.1914 23.4966C40.7769 23.5475 40.4254 23.7233 40.1367 24.0239C40.0196 24.1021 39.9024 24.1021 39.7852 24.0239C39.5118 23.7505 39.2383 23.477 38.9649 23.2036C39.3048 22.8559 39.5392 22.4457 39.668 21.9731C39.4326 21.2084 39.1396 20.4662 38.7891 19.7466C38.3367 19.4919 37.8484 19.3747 37.3242 19.395C37.3242 18.9263 37.3242 18.4575 37.3242 17.9888C38.2422 18.0567 38.8477 17.6661 39.1407 16.8169C39.34 16.3359 39.5158 15.8476 39.668 15.352C39.5942 14.9658 39.4184 14.6337 39.1407 14.3559C39.0625 14.2388 39.0625 14.1216 39.1407 14.0044C39.4141 13.731 39.6876 13.4575 39.961 13.1841C40.3242 13.4929 40.7344 13.6881 41.1914 13.77C41.928 13.617 42.6311 13.363 43.3008 13.0083C43.6107 12.5759 43.7669 12.0877 43.7696 11.5434ZM43.7696 15.4106C46.123 15.2644 47.4511 16.3581 47.7539 18.6919C47.4858 20.6006 46.3921 21.6943 44.4727 21.9731C41.9938 21.5429 40.9586 20.0977 41.3672 17.6372C41.8203 16.4999 42.621 15.7576 43.7696 15.4106Z" fill="#0569B6"/>
<path opacity="0.908" fill-rule="evenodd" clip-rule="evenodd" d="M14.5898 13.8871C17.9359 13.7418 19.8109 15.3238 20.2148 18.6332C19.9309 21.5539 18.3294 23.1749 15.4102 23.4965C12.4909 23.1749 10.8894 21.5539 10.6055 18.6332C10.7771 16.0607 12.1052 14.4787 14.5898 13.8871ZM14.707 15.4105C13.5585 15.7575 12.7577 16.4998 12.3047 17.6371C11.8964 20.0983 12.9315 21.5437 15.4102 21.973C17.3569 21.6866 18.4506 20.5733 18.6914 18.6332C18.3616 16.3312 17.0334 15.2569 14.707 15.4105Z" fill="#0569B6"/>
<path opacity="0.908" fill-rule="evenodd" clip-rule="evenodd" d="M43.5351 13.8871C47.2851 13.7508 49.1797 15.5476 49.2187 19.2777C48.687 21.8599 47.105 23.2662 44.4726 23.4965C41.2286 23.085 39.6466 21.249 39.7265 17.9887C40.132 15.8063 41.4015 14.439 43.5351 13.8871ZM43.7695 15.4105C42.6209 15.7575 41.8202 16.4998 41.3671 17.6371C40.9585 20.0976 41.9937 21.5428 44.4726 21.973C46.392 21.6942 47.4857 20.6005 47.7539 18.6918C47.451 16.358 46.123 15.2643 43.7695 15.4105Z" fill="#0569B6"/>
<path opacity="0.92" fill-rule="evenodd" clip-rule="evenodd" d="M2.4022 21.8555C3.86936 21.8961 5.02171 22.5212 5.85924 23.7305C7.43643 26.963 9.07705 30.1661 10.7811 33.3398C11.5006 32.6878 12.3404 32.473 13.3006 32.6953C13.7443 32.8586 14.1739 33.0538 14.5897 33.2813C17.6994 36.1178 20.8439 38.9107 24.0233 41.6602C24.6841 42.552 25.1919 43.5285 25.5467 44.5898C25.8948 47.0933 26.2658 49.5933 26.66 52.0898C27.7964 52.0812 28.5971 52.5891 29.0624 53.6133C29.2448 55.2881 29.284 56.9679 29.1795 58.6523C29.1604 58.9073 29.0628 59.1222 28.8866 59.2969C24.0819 59.375 19.2772 59.375 14.4725 59.2969C14.4139 59.2383 14.3553 59.1797 14.2967 59.1211C14.2186 57.3243 14.2186 55.5273 14.2967 53.7305C14.5767 53.0598 15.026 52.5325 15.6444 52.1484C15.1227 51.1854 14.4587 50.3259 13.6522 49.5703C11.9121 48.3763 10.291 47.0286 8.78892 45.5273C8.08457 44.5883 7.49863 43.5727 7.03111 42.4805C5.19517 37.5976 3.35924 32.7149 1.5233 27.832C1.13963 26.7982 0.827135 25.7435 0.585798 24.668C0.395787 23.2112 1.00126 22.2737 2.4022 21.8555ZM2.63658 23.3789C3.1175 23.4239 3.5472 23.5997 3.92564 23.9063C4.51458 24.5176 5.00285 25.2012 5.39049 25.957C6.6793 29.0426 8.18322 32.0113 9.9022 34.8633C9.74752 36.0421 10.0014 37.1358 10.6639 38.1445C12.1156 40.1045 13.7758 41.8819 15.6444 43.4766C16.5419 43.7113 16.9131 43.3793 16.7577 42.4805C15.5531 41.2759 14.3421 40.0649 13.1249 38.8477C12.4595 38.0638 11.9126 37.2043 11.4842 36.2695C11.0971 35.1374 11.4682 34.4343 12.5975 34.1602C13.0795 34.2057 13.5092 34.3815 13.8866 34.6875C16.2867 37.0887 18.8258 39.3152 21.5038 41.3672C22.9428 42.5074 23.8609 43.9723 24.2577 45.7617C24.4275 47.8518 24.7204 49.9221 25.1366 51.9727C22.5194 52.1289 19.9022 52.1289 17.285 51.9727C16.5619 50.37 15.5072 49.0223 14.121 47.9297C12.5917 46.9471 11.2049 45.7948 9.9608 44.4727C9.32317 43.5492 8.7763 42.5726 8.32017 41.543C6.58539 36.8463 4.82757 32.1588 3.04674 27.4805C2.56298 26.3046 2.25048 25.0936 2.10924 23.8477C2.27292 23.6637 2.4487 23.5073 2.63658 23.3789ZM16.3475 53.6133C20.0267 53.5573 23.6986 53.6159 27.3631 53.7891C27.5058 53.9822 27.6034 54.197 27.6561 54.4336C27.7147 55.6048 27.7342 56.7766 27.7147 57.9492C23.7303 57.9492 19.746 57.9492 15.7616 57.9492C15.742 56.6596 15.7616 55.3705 15.8202 54.082C15.9667 53.8836 16.1424 53.7273 16.3475 53.6133ZM25.371 55.4883C25.8221 55.5118 25.9393 55.7266 25.7225 56.1328C25.1119 56.1968 24.9947 55.982 25.371 55.4883Z" fill="#0569B6"/>
<path opacity="0.92" fill-rule="evenodd" clip-rule="evenodd" d="M56.5428 21.8553C58.4833 21.823 59.4014 22.7605 59.2967 24.6678C59.1587 25.2588 59.0025 25.8447 58.828 26.4256C56.9369 31.5909 55.0229 36.7471 53.0858 41.8944C52.3159 43.9921 51.0854 45.7695 49.3944 47.2264C47.9061 48.2062 46.5194 49.3195 45.2342 50.5662C44.9217 51.035 44.6093 51.5037 44.2967 51.9725C44.2089 52.1055 44.2284 52.2227 44.3553 52.324C44.955 52.6305 45.3651 53.0992 45.5858 53.7303C45.6639 55.5271 45.6639 57.3241 45.5858 59.1209C45.5272 59.1795 45.4686 59.2381 45.41 59.2967C40.6053 59.3749 35.8006 59.3749 30.9959 59.2967C30.8197 59.122 30.7221 58.9072 30.703 58.6522C30.5986 56.9677 30.6377 55.288 30.8202 53.6131C31.2808 52.5907 32.0816 52.0829 33.2225 52.0897C33.6167 49.5931 33.9877 47.0932 34.3358 44.5897C34.6906 43.5283 35.1984 42.5518 35.8592 41.66C39.0386 38.9105 42.1831 36.1176 45.2928 33.2811C46.2353 32.6363 47.2509 32.48 48.3397 32.8123C48.6446 32.9158 48.8986 33.0916 49.1014 33.3397C50.7093 30.4362 52.1937 27.4675 53.5545 24.4334C53.9199 23.8726 54.3301 23.3452 54.785 22.8514C55.3098 22.3941 55.8957 22.0621 56.5428 21.8553ZM56.7772 23.3787C57.1903 23.3607 57.5224 23.5169 57.7733 23.8475C57.791 24.3646 57.7128 24.8724 57.5389 25.3709C55.6575 30.579 53.7434 35.7742 51.7967 40.9569C51.0813 43.0359 49.8898 44.7741 48.2225 46.1717C46.8128 47.073 45.5042 48.1081 44.2967 49.2772C43.6108 50.0998 43.0444 50.9983 42.5975 51.9725C39.9803 52.1287 37.3631 52.1287 34.7459 51.9725C35.1621 49.9217 35.455 47.8514 35.6248 45.7615C36.0216 43.9721 36.9397 42.5073 38.3787 41.367C41.0567 39.3151 43.5958 37.0885 45.9959 34.6873C47.273 33.7598 48.1324 34.0332 48.5741 35.5076C48.5039 35.886 48.4062 36.2572 48.2811 36.6209C47.8602 37.4241 47.3524 38.1663 46.7577 38.8475C45.5404 40.0647 44.3294 41.2757 43.1248 42.4803C42.9694 43.3791 43.3406 43.7111 44.2381 43.4764C46.1067 41.8817 47.7669 40.1043 49.2186 38.1444C49.8811 37.1356 50.135 36.0419 49.9803 34.8631C51.6993 32.0111 53.2032 29.0424 54.492 25.9569C55.0373 24.8854 55.799 24.0261 56.7772 23.3787ZM32.8709 53.6131C36.4258 53.5935 39.9805 53.6131 43.535 53.6717C43.7684 53.739 43.9442 53.8757 44.0623 54.0819C44.1209 55.3703 44.1405 56.6594 44.1209 57.949C40.1366 57.949 36.1522 57.949 32.1678 57.949C32.1484 56.7765 32.1678 55.6046 32.2264 54.4334C32.2788 54.0093 32.4936 53.7358 32.8709 53.6131ZM34.16 55.4881C34.627 55.5032 34.7832 55.7182 34.6287 56.1326C34.0695 56.2276 33.9133 56.0128 34.16 55.4881Z" fill="#0569B6"/>
<path opacity="0.91" fill-rule="evenodd" clip-rule="evenodd" d="M29.7073 27.2461C32.6183 27.5998 33.7316 29.2014 33.0471 32.0508C32.0154 33.8404 30.5115 34.4067 28.5354 33.75C26.5151 32.4793 26.0659 30.7801 27.1877 28.6523C27.8604 27.8576 28.7003 27.3888 29.7073 27.2461ZM29.7073 28.7695C29.4859 28.8659 29.2515 28.9635 29.0041 29.0625C27.878 30.0033 27.7999 31.0189 28.7698 32.1094C30.3444 32.8454 31.3601 32.3767 31.8166 30.7031C31.6168 29.5071 30.9137 28.8626 29.7073 28.7695Z" fill="#0569B6"/>
<path opacity="0.911" fill-rule="evenodd" clip-rule="evenodd" d="M24.9024 53.9645C26.7814 53.8315 27.5822 54.6909 27.3048 56.5427C26.7806 57.5952 25.9407 57.9664 24.7853 57.6559C23.5986 56.986 23.3056 56.0289 23.9063 54.7849C24.1924 54.4387 24.5245 54.1653 24.9024 53.9645ZM25.3712 55.488C24.9949 55.9817 25.1121 56.1965 25.7228 56.1325C25.9396 55.7263 25.8224 55.5115 25.3712 55.488Z" fill="#0569B6"/>
<path opacity="0.909" fill-rule="evenodd" clip-rule="evenodd" d="M33.8087 53.9647C35.765 53.9321 36.5267 54.8696 36.0938 56.7772C35.5257 57.6627 34.7249 57.9556 33.6915 57.6561C32.6389 57.1319 32.2678 56.292 32.5782 55.1366C32.825 54.5573 33.2352 54.1667 33.8087 53.9647ZM34.1602 55.4881C33.9136 56.0128 34.0698 56.2276 34.629 56.1327C34.7834 55.7182 34.6272 55.5032 34.1602 55.4881Z" fill="#0569B6"/>
</g>
<defs>
<clipPath id="clip0_1156_77">
<rect width="60" height="60" fill="white"/>
</clipPath>
</defs>
</svg>
