<svg width="60" height="60" viewBox="0 0 60 60" fill="none" xmlns="http://www.w3.org/2000/svg">
<g clip-path="url(#clip0_628_67)">
<path opacity="0.953" fill-rule="evenodd" clip-rule="evenodd" d="M28.5352 -0.0585938C29.4727 -0.0585938 30.4102 -0.0585938 31.3477 -0.0585938C35.0655 0.748601 37.4483 2.99469 38.4961 6.67969C41.6287 7.43121 44.7538 8.21247 47.8711 9.02344C48.1662 9.24261 48.3225 9.53558 48.3398 9.90234C48.1235 10.9627 47.8891 12.0173 47.6367 13.0664C48.263 13.047 48.8879 13.0665 49.5117 13.125C49.7869 13.1655 50.0017 13.3023 50.1562 13.5352C51.2109 15.293 52.2656 17.0508 53.3203 18.8086C54.1131 32.3585 54.7771 45.9132 55.3125 59.4727C55.1512 59.6139 55.0146 59.7701 54.9023 59.9414C38.2617 59.9414 21.6211 59.9414 4.98047 59.9414C4.86824 59.7701 4.73152 59.6139 4.57031 59.4727C5.10571 45.9132 5.76976 32.3585 6.5625 18.8086C7.67081 16.9236 8.82315 15.0682 10.0195 13.2422C10.4463 13.1351 10.876 13.0373 11.3086 12.9492C10.9215 10.5009 10.6676 8.03992 10.5469 5.56641C10.6907 5.30554 10.9056 5.12975 11.1914 5.03906C15.0575 4.56176 18.9247 4.09301 22.793 3.63281C24.2156 1.63275 26.1296 0.40228 28.5352 -0.0585938ZM29.0039 2.05078C32.2454 1.85468 34.5892 3.20234 36.0352 6.09375C35.1592 5.94843 34.2803 5.77264 33.3984 5.56641C32.8389 5.57968 32.4873 5.85312 32.3438 6.38672C32.044 7.82051 31.673 9.22676 31.2305 10.6055C30.9961 10.6836 30.7617 10.7617 30.5273 10.8398C30.1774 8.33388 29.8063 5.83389 29.4141 3.33984C29.1438 3.05999 28.8118 2.9428 28.418 2.98828C27.7136 3.08629 27.0104 3.14488 26.3086 3.16406C27.1579 2.641 28.0563 2.2699 29.0039 2.05078ZM27.3633 5.21484C27.5528 5.3425 27.6504 5.53781 27.6562 5.80078C27.9036 7.63613 28.0989 9.47207 28.2422 11.3086C25.0296 12.1362 21.807 12.9369 18.5742 13.7109C18.1829 13.932 18.0266 14.2639 18.1055 14.707C18.34 15.8794 18.5743 17.0513 18.8086 18.2227C17.207 18.2227 15.6055 18.2227 14.0039 18.2227C13.6126 14.4676 13.183 10.7176 12.7148 6.97266C17.621 6.44503 22.5037 5.85909 27.3633 5.21484ZM34.1602 7.91016C38.0486 8.8383 41.9353 9.7758 45.8203 10.7227C45.8985 10.918 45.8985 11.1133 45.8203 11.3086C45.2702 13.61 44.7429 15.9148 44.2383 18.2227C42.2851 18.2227 40.3321 18.2227 38.3789 18.2227C37.79 15.5157 37.1455 12.8204 36.4453 10.1367C36.1955 9.80674 35.8635 9.6505 35.4492 9.66797C34.8588 9.78693 34.2729 9.88458 33.6914 9.96094C33.8932 9.29013 34.0495 8.60654 34.1602 7.91016ZM34.5117 12.0117C34.6794 12.0564 34.777 12.1736 34.8047 12.3633C35.2914 14.3098 35.7405 16.2629 36.1523 18.2227C31.1133 18.2227 26.0742 18.2227 21.0352 18.2227C20.877 17.2773 20.6816 16.3398 20.4492 15.4102C25.1668 14.3479 29.8543 13.215 34.5117 12.0117ZM11.1914 15.293C11.3086 15.293 11.4258 15.293 11.543 15.293C11.6506 16.2714 11.7679 17.2479 11.8945 18.2227C11.1094 18.2613 10.3281 18.2223 9.55078 18.1055C10.099 17.1647 10.6459 16.2272 11.1914 15.293ZM47.0508 15.293C47.5991 15.2735 48.1459 15.2931 48.6914 15.3516C49.2531 16.2599 49.7999 17.1778 50.332 18.1055C49.0453 18.2225 47.7562 18.2616 46.4648 18.2227C46.6752 17.2493 46.8704 16.2727 47.0508 15.293ZM8.61328 20.332C22.832 20.332 37.0508 20.332 51.2695 20.332C51.9132 32.7968 52.5773 45.2577 53.2617 57.7148C37.7148 57.8711 22.168 57.8711 6.62109 57.7148C7.30552 45.2577 7.96958 32.7968 8.61328 20.332ZM21.9727 24.4336C22.9287 24.3543 23.3388 24.784 23.2031 25.7227C22.6113 25.1025 22.0254 25.1025 21.4453 25.7227C21.3019 25.1515 21.4777 24.7218 21.9727 24.4336ZM37.207 24.4336C38.163 24.3543 38.5732 24.784 38.4375 25.7227C37.8904 25.1572 37.3044 25.1182 36.6797 25.6055C36.5715 25.0801 36.7473 24.6894 37.207 24.4336Z" fill="#0569B6"/>
<path opacity="0.943" fill-rule="evenodd" clip-rule="evenodd" d="M22.0897 22.207C24.7326 22.4909 25.7677 23.9361 25.1952 26.543C24.8436 27.3633 24.2577 27.9492 23.4374 28.3008C23.3592 29.7852 23.3592 31.2695 23.4374 32.7539C24.3409 36.7809 26.8604 38.6755 30.996 38.4375C34.1281 37.7396 35.9445 35.8061 36.4452 32.6367C36.5234 31.1914 36.5234 29.7461 36.4452 28.3008C34.4395 27.1654 33.9708 25.5639 35.039 23.4961C36.7215 21.8018 38.4013 21.8018 40.078 23.4961C41.0268 25.128 40.812 26.5929 39.4335 27.8906C39.2029 28.0716 38.9489 28.2083 38.6718 28.3008C38.6327 29.9414 38.5936 31.582 38.5546 33.2227C37.5614 37.8675 34.6903 40.3676 29.9413 40.7227C26.3384 40.5339 23.7017 38.8542 22.0311 35.6836C21.789 35.1137 21.5938 34.5278 21.4452 33.9258C21.3002 32.0554 21.2221 30.1804 21.2108 28.3008C19.4154 27.4082 18.8295 26.0019 19.453 24.082C20.0289 23.0053 20.9078 22.3804 22.0897 22.207ZM21.9726 24.4336C21.4776 24.7218 21.3018 25.1515 21.4452 25.7227C22.0253 25.1025 22.6112 25.1025 23.203 25.7227C23.3387 24.784 22.9286 24.3543 21.9726 24.4336ZM37.2069 24.4336C36.7472 24.6894 36.5714 25.0801 36.6796 25.6055C37.3043 25.1182 37.8902 25.1572 38.4374 25.7227C38.5731 24.784 38.1629 24.3543 37.2069 24.4336Z" fill="#0569B6"/>
</g>
<defs>
<clipPath id="clip0_628_67">
<rect width="60" height="60" fill="white"/>
</clipPath>
</defs>
</svg>
