<svg width="61" height="60" viewBox="0 0 61 60" fill="none" xmlns="http://www.w3.org/2000/svg">
<g clip-path="url(#clip0_581_91)">
<path d="M0.408203 43.4765C0.408203 30.2708 0.408203 17.0651 0.450337 3.79227C0.854833 2.41474 2.05119 1.52629 3.68829 1.52592C21.4918 1.52189 39.2953 1.52205 57.0988 1.53185C57.5088 1.53207 57.9252 1.63182 58.3274 1.73064C59.4082 1.99615 59.9747 2.80844 60.4082 3.74996C60.4082 16.9557 60.4082 30.1614 60.366 43.4342C59.9485 44.8739 58.7674 45.6894 57.1866 45.6946C50.822 45.7152 44.4573 45.7031 38.0927 45.7031C37.8851 45.7031 37.6775 45.7031 37.4697 45.7031C37.4697 48.0381 37.4697 50.3115 37.4697 52.6172C38.4724 52.6172 39.4451 52.6165 40.4179 52.6174C41.0899 52.618 41.4204 52.9504 41.4227 53.6429C41.4268 54.8924 41.4238 56.1419 41.4238 57.3915C41.4238 58.3303 41.0527 58.7099 40.1163 58.7101C33.654 58.7116 27.1917 58.7109 20.7294 58.7109C20.6123 58.7109 20.4872 58.7369 20.3794 58.7051C19.9174 58.569 19.4142 58.4135 19.4023 57.8305C19.3728 56.3864 19.3832 54.9411 19.3975 53.4965C19.4028 52.9584 19.7787 52.6193 20.3107 52.6179C21.3198 52.6153 22.3289 52.6172 23.3508 52.6172C23.3508 50.2905 23.3508 48.0171 23.3508 45.7031C23.115 45.7031 22.9047 45.7031 22.6944 45.7031C16.3688 45.7031 10.0432 45.7068 3.71759 45.6944C3.30748 45.6936 2.89239 45.5907 2.48863 45.4965C1.39594 45.2418 0.836016 44.4238 0.408203 43.4765ZM12.3027 11.7187C9.0496 11.7187 5.79646 11.7187 2.57127 11.7187C2.53684 11.8024 2.5238 11.8193 2.52379 11.8362C2.52114 22.1082 2.51864 32.3803 2.52442 42.6524C2.52451 42.808 2.60274 42.9784 2.68652 43.1164C2.97364 43.5893 3.45775 43.5922 3.92942 43.5923C21.5834 43.594 39.2374 43.5937 56.8915 43.5937C56.9891 43.5937 57.0871 43.599 57.1843 43.5928C57.9475 43.544 58.2987 43.1719 58.2987 42.4136C58.2989 32.3953 58.2988 22.3771 58.2988 12.3588C58.2988 12.1525 58.2988 11.9461 58.2988 11.7187C42.9587 11.7187 27.6893 11.7187 12.3027 11.7187ZM34.334 9.60934C42.3119 9.60934 50.2898 9.60934 58.2988 9.60934C58.2988 7.8721 58.3025 6.19633 58.2919 4.52065C58.291 4.38411 58.2189 4.22801 58.1341 4.11556C57.8129 3.68974 57.3519 3.62889 56.8524 3.62901C39.222 3.63351 21.5916 3.63277 3.96122 3.63278C3.84407 3.63278 3.72599 3.62319 3.60994 3.63447C3.04998 3.68893 2.45712 4.0914 2.4955 4.81741C2.57065 6.23871 2.51666 7.66678 2.5188 9.09205C2.51905 9.25944 2.5361 9.4268 2.5462 9.60934C13.1338 9.60934 23.6753 9.60934 34.334 9.60934ZM21.502 55.4933C21.502 55.8565 21.502 56.2198 21.502 56.5666C27.4793 56.5666 33.3855 56.5666 39.2791 56.5666C39.2791 55.9368 39.2791 55.3424 39.2791 54.7265C38.4649 54.7265 37.6846 54.7557 36.9073 54.7197C35.7187 54.6648 35.3474 54.4527 35.3325 53.1663C35.3206 52.151 35.3301 51.1355 35.3301 50.12C35.3301 48.6614 35.3301 47.2028 35.3301 45.7286C32.0286 45.7286 28.7784 45.7286 25.4863 45.7286C25.4863 45.9442 25.4863 46.1348 25.4863 46.3254C25.4863 48.6297 25.4869 50.934 25.486 53.2383C25.4857 54.2073 25.2687 54.4971 24.3609 54.7022C24.1746 54.7443 23.9734 54.7251 23.779 54.7257C23.0258 54.7278 22.2727 54.7265 21.502 54.7265C21.502 54.9931 21.502 55.1866 21.502 55.4933Z" fill="#0569B6"/>
<path d="M29.0882 32.5108C29.1554 33.9952 29.1786 35.4312 29.2417 36.8654C29.2934 38.0385 29.4141 39.2086 29.4643 40.3817C29.5113 41.479 28.9485 41.6994 28.1526 41.7029C21.6514 41.7314 15.15 41.7281 8.64865 41.7105C7.47034 41.7074 7.25646 40.9743 7.34118 39.9131C7.35154 39.7833 7.43068 39.6579 7.43542 39.529C7.48101 38.2892 7.50775 37.0486 7.55893 35.8091C7.62749 34.1486 7.70908 32.4886 7.79229 30.8288C7.86476 29.3832 7.95207 27.9383 8.02403 26.4927C8.10763 24.8133 8.16168 23.1322 8.27219 21.4547C8.3048 20.9596 8.41995 20.4442 8.62617 19.9977C8.72499 19.7837 9.11916 19.6029 9.38865 19.5895C10.3585 19.5412 11.3323 19.5705 12.3612 19.5705C12.3612 17.9411 12.3609 16.3468 12.3614 14.7526C12.3616 13.9475 12.7213 13.5941 13.54 13.594C16.8004 13.5938 20.0609 13.5934 23.3213 13.5943C24.1199 13.5945 24.4306 13.906 24.4312 14.7054C24.4324 16.3041 24.4315 17.9027 24.4315 19.5705C25.2849 19.5705 26.1164 19.5705 26.9479 19.5705C28.1768 19.5705 28.4754 19.8356 28.5292 21.0519C28.5857 22.3302 28.6008 23.6103 28.6529 24.8889C28.7205 26.5494 28.8008 28.2095 28.8873 29.8692C28.9324 30.734 29.0026 31.5976 29.0882 32.5108ZM26.7753 29.0084C26.7362 28.4516 26.6828 27.8955 26.661 27.338C26.6126 26.0983 26.5928 24.8574 26.5356 23.6181C26.5058 22.9724 26.4213 22.3293 26.3651 21.7228C25.7037 21.7228 25.0695 21.7228 24.4127 21.7228C24.4127 22.3855 24.4127 23.0052 24.4127 23.6481C23.7143 23.6481 23.042 23.6481 22.3229 23.6481C22.3229 22.9941 22.3229 22.3597 22.3229 21.7034C19.6903 21.7034 17.1043 21.7034 14.4717 21.7034C14.4717 22.3576 14.4717 22.9922 14.4717 23.6484C13.7527 23.6484 13.0803 23.6484 12.3613 23.6484C12.3613 22.9933 12.3613 22.3587 12.3613 21.7035C11.6813 21.7035 11.048 21.7035 10.4183 21.7035C10.3619 22.6495 10.3048 23.5717 10.2523 24.4941C10.1724 25.9004 10.0892 27.3065 10.0194 28.7132C9.93413 30.4316 9.85488 32.1504 9.78527 33.8695C9.73507 35.1091 9.7156 36.3501 9.66143 37.5895C9.6324 38.2538 9.55902 38.9162 9.50587 39.5767C15.4841 39.5767 21.3505 39.5767 27.3077 39.5767C27.2069 37.9613 27.093 36.3845 27.0139 34.806C26.9189 32.9124 26.8535 31.0173 26.7753 29.0084ZM20.856 15.7033C18.7358 15.7033 16.6155 15.7033 14.5046 15.7033C14.5046 17.0296 14.5046 18.288 14.5046 19.5366C17.125 19.5366 19.7112 19.5366 22.288 19.5366C22.288 18.244 22.288 16.9856 22.288 15.7033C21.8269 15.7033 21.3997 15.7033 20.856 15.7033Z" fill="#0569B6"/>
<path d="M47.2538 21.9435C48.0562 22.7454 48.8166 23.5315 49.6119 24.2805C49.7973 24.455 50.0933 24.551 50.3535 24.597C50.6564 24.6506 50.976 24.6092 51.2883 24.6095C52.1318 24.6106 52.439 24.9106 52.4391 25.7385C52.4397 29.8574 52.4394 33.9763 52.4394 38.0952C52.4394 38.6027 52.4419 39.1103 52.4388 39.6178C52.4348 40.2709 52.0415 40.6632 51.3828 40.6634C46.3074 40.6648 41.232 40.6658 36.1566 40.6629C35.0015 40.6622 33.733 39.6088 33.4636 38.4107C33.3806 38.0417 33.3442 37.6549 33.3431 37.276C33.3339 34.0551 33.32 30.834 33.346 27.6133C33.3575 26.1823 34.2289 25.0647 35.6114 24.6402C35.7911 24.585 35.9977 24.613 36.192 24.6103C37.106 24.5971 38.12 24.8296 38.9055 24.5062C39.6716 24.1908 40.2047 23.3087 40.8391 22.6744C41.7364 21.7773 42.6312 20.8779 43.53 19.9824C44.1142 19.4004 44.704 19.3952 45.2795 19.967C45.9304 20.6135 46.5764 21.2649 47.2538 21.9435ZM44.0605 38.5548C46.141 38.5548 48.2215 38.5548 50.2994 38.5548C50.2994 35.9051 50.2994 33.3199 50.2994 30.6606C45.3362 30.6606 40.4035 30.6606 35.4473 30.6606C35.4473 32.919 35.4362 35.1811 35.4538 37.443C35.4593 38.1505 35.9173 38.5535 36.6247 38.554C39.0642 38.556 41.5038 38.5548 44.0605 38.5548ZM47.7492 25.4841C46.6412 24.3701 45.5332 23.2561 44.4213 22.1381C43.3264 23.2334 42.265 24.2956 41.2032 25.3573C40.1503 26.4101 39.0969 27.4625 38.0425 28.5163C38.0978 28.567 38.1103 28.5884 38.1228 28.5884C39.4684 28.5913 40.814 28.5937 42.1596 28.5934C43.0566 28.5933 44.0576 28.8376 44.8217 28.5177C45.6039 28.1901 46.1623 27.3162 46.8025 26.6657C47.1538 26.3087 47.472 25.9191 47.7492 25.4841ZM50.0796 26.719C49.9558 26.7521 49.7953 26.747 49.714 26.8247C49.1338 27.3791 48.5697 27.9505 47.9507 28.566C48.7982 28.566 49.5458 28.566 50.33 28.566C50.33 28.2507 50.3492 27.9609 50.3249 27.6749C50.2978 27.3549 50.2313 27.0383 50.0796 26.719ZM35.8563 27.6571C36.1655 27.3824 36.4746 27.1078 36.8463 26.7776C36.0682 26.6069 35.6743 26.855 35.5047 27.4375C35.4706 27.5543 35.548 27.7036 35.5741 27.8379C35.6486 27.7975 35.7231 27.7571 35.8563 27.6571Z" fill="#0569B6"/>
<path d="M56.4238 7.36006C56.3144 7.48348 56.2071 7.60427 56.0958 7.60815C55.5305 7.62784 54.9642 7.61722 54.3564 7.61722C54.3564 6.93766 54.3564 6.26438 54.3564 5.54932C54.995 5.54932 55.6683 5.54932 56.424 5.54932C56.424 6.11134 56.424 6.70742 56.4238 7.36006Z" fill="#0569B6"/>
<path d="M50.9277 5.50781C51.45 5.50781 51.915 5.50781 52.4095 5.50781C52.4095 6.21276 52.4095 6.88516 52.4095 7.58758C51.7339 7.58758 51.0615 7.58758 50.3594 7.58758C50.3594 6.91133 50.3594 6.23895 50.3594 5.50781C50.5326 5.50781 50.7015 5.50781 50.9277 5.50781Z" fill="#0569B6"/>
<path d="M46.3921 7.56988C46.3525 6.87074 46.3525 6.21201 46.3525 5.53125C47.0647 5.53125 47.7371 5.53125 48.4314 5.53125C48.4314 6.22727 48.4314 6.89967 48.4314 7.61028C47.7494 7.61028 47.0905 7.61028 46.3921 7.56988Z" fill="#0569B6"/>
<path d="M25.4863 36.2196C25.4863 36.7029 25.4863 37.1293 25.4863 37.5863C20.7596 37.5863 16.0639 37.5863 11.3374 37.5863C11.3374 36.9139 11.3374 36.2413 11.3374 35.5381C16.0345 35.5381 20.7302 35.5381 25.4863 35.5381C25.4863 35.7472 25.4863 35.955 25.4863 36.2196Z" fill="#0569B6"/>
<path d="M12.4759 29.6484C12.0701 29.6484 11.7214 29.6484 11.3398 29.6484C11.3398 28.9498 11.3398 28.2774 11.3398 27.5718C12.006 27.5718 12.6784 27.5718 13.3837 27.5718C13.3837 28.2387 13.3837 28.9111 13.3837 29.6484C13.1036 29.6484 12.8183 29.6484 12.4759 29.6484Z" fill="#0569B6"/>
<path d="M11.4507 31.527C12.1275 31.5239 12.7476 31.5239 13.3914 31.5239C13.3914 32.2393 13.3914 32.9116 13.3914 33.6085C12.6996 33.6085 12.0272 33.6085 11.269 33.6085C11.3117 32.8999 11.3529 32.215 11.4507 31.527Z" fill="#0569B6"/>
<path d="M15.4118 31.6672C16.0862 31.5681 16.7576 31.5255 17.4745 31.48C17.4745 32.2008 17.4745 32.874 17.4745 33.5903C16.8399 33.5903 16.1666 33.5903 15.4087 33.5903C15.4087 32.9935 15.4087 32.3586 15.4118 31.6672Z" fill="#0569B6"/>
<path d="M49.5072 34.6777C49.4371 34.9592 49.3686 35.1912 49.301 35.4236C49.0329 36.3464 47.8116 36.852 47.035 36.6587C46.0087 36.4031 45.3352 35.7934 45.3992 34.4216C45.4482 33.3727 46.1796 32.7638 46.9676 32.5908C47.9977 32.3646 48.9653 32.9131 49.3249 33.8629C49.4171 34.1064 49.4494 34.3726 49.5072 34.6777Z" fill="#0569B6"/>
</g>
<defs>
<clipPath id="clip0_581_91">
<rect width="60" height="60" fill="white" transform="translate(0.291016)"/>
</clipPath>
</defs>
</svg>
