<svg width="60" height="60" viewBox="0 0 60 60" fill="none" xmlns="http://www.w3.org/2000/svg">
<g clip-path="url(#clip0_1156_230)">
<path opacity="0.954" fill-rule="evenodd" clip-rule="evenodd" d="M23.6133 -0.0585938C31.0351 -0.0585938 38.4571 -0.0585938 45.8789 -0.0585938C46.0304 0.151857 46.2062 0.34717 46.4062 0.527344C46.8197 1.78461 47.4448 2.91742 48.2812 3.92578C50.0747 5.8365 51.9107 7.7115 53.7891 9.55078C57.4092 13.5491 59.46 18.2366 59.9414 23.6133C59.9414 31.0351 59.9414 38.4571 59.9414 45.8789C59.7309 46.0304 59.5356 46.2062 59.3555 46.4062C57.2402 47.1926 55.4433 48.4426 53.9648 50.1562C53.1844 50.6286 52.5398 50.4919 52.0312 49.7461C51.9332 49.3014 51.9722 48.8718 52.1484 48.457C53.6801 46.7871 55.4573 45.459 57.4805 44.4727C57.5977 41.1923 57.6367 37.9111 57.5977 34.6289C52.8855 34.8379 48.7058 36.4199 45.0586 39.375C43.4604 40.8559 41.8979 42.3793 40.3711 43.9453C39.5598 44.5365 38.7591 45.142 37.9688 45.7617C37.1368 47.6916 37.7422 48.9025 39.7852 49.3945C41.0319 49.0642 42.1256 48.4587 43.0664 47.5781C44.1629 46.5987 45.2176 45.5831 46.2305 44.5312C47.9686 44.4353 48.4178 45.1579 47.5781 46.6992C45.6776 48.8099 43.4706 50.5091 40.957 51.7969C40.087 52.1609 39.1886 52.4344 38.2617 52.6172C36.1438 52.9181 34.0344 53.2697 31.9336 53.6719C29.7766 54.1689 28.4095 55.4775 27.832 57.5977C31.2016 57.6779 34.5611 57.5413 37.9102 57.1875C40.3059 56.7796 42.5715 55.9983 44.707 54.8438C46.0705 54.7375 46.5587 55.343 46.1719 56.6602C44.6978 57.7193 43.0767 58.481 41.3086 58.9453C39.6005 59.4184 37.8817 59.7504 36.1523 59.9414C28.7695 59.9414 21.3867 59.9414 14.0039 59.9414C13.8524 59.7309 13.6766 59.5356 13.4766 59.3555C13.0631 58.0982 12.438 56.9654 11.6016 55.957C9.80809 54.0463 7.97216 52.1713 6.09375 50.332C2.47363 46.3337 0.42285 41.6462 -0.0585938 36.2695C-0.0585938 28.8477 -0.0585938 21.4257 -0.0585938 14.0039C0.113868 13.8124 0.30918 13.6366 0.527344 13.4766C1.78461 13.0631 2.91742 12.438 3.92578 11.6016C5.8365 9.80809 7.7115 7.97216 9.55078 6.09375C13.5491 2.47363 18.2366 0.42285 23.6133 -0.0585938ZM26.0742 2.28516C28.0664 2.28516 30.0586 2.28516 32.0508 2.28516C31.5456 4.21636 30.3347 5.4859 28.418 6.09375C26.1657 6.56026 23.9002 6.95088 21.6211 7.26562C19.2291 7.71966 17.1197 8.73528 15.293 10.3125C14.1015 11.3477 12.9882 12.4609 11.9531 13.6523C11.7383 15 12.3047 15.5664 13.6523 15.3516C14.7043 14.2607 15.798 13.206 16.9336 12.1875C17.6749 11.6213 18.4561 11.1135 19.2773 10.6641C20.5454 10.3509 21.5025 10.7611 22.1484 11.8945C22.4222 12.6725 22.3441 13.4147 21.9141 14.1211C21.1238 14.7408 20.323 15.3463 19.5117 15.9375C17.9849 17.5035 16.4224 19.0269 14.8242 20.5078C11.177 23.4629 6.99732 25.045 2.28516 25.2539C2.24612 21.9717 2.28518 18.6905 2.40234 15.4102C3.53193 14.8856 4.58661 14.2411 5.56641 13.4766C7.5162 11.644 9.43025 9.76903 11.3086 7.85156C15.5289 4.15931 20.4507 2.30385 26.0742 2.28516ZM34.6289 2.28516C37.9111 2.24612 41.1923 2.28518 44.4727 2.40234C44.9972 3.53193 45.6417 4.58661 46.4062 5.56641C48.2388 7.5162 50.1138 9.43025 52.0312 11.3086C55.2007 14.8764 56.9975 19.0561 57.4219 23.8477C57.5618 26.5802 57.6204 29.3147 57.5977 32.0508C55.4775 31.4733 54.1689 30.1062 53.6719 27.9492C53.2697 25.8484 52.9181 23.739 52.6172 21.6211C52.1678 19.5123 51.3084 17.5982 50.0391 15.8789C48.8909 14.4572 47.6213 13.1486 46.2305 11.9531C45.1799 11.6771 44.5549 12.0677 44.3555 13.125C44.4309 13.4461 44.5677 13.7391 44.7656 14.0039C46.5512 15.5154 48.0356 17.2732 49.2188 19.2773C49.5189 21.3906 48.6008 22.3867 46.4648 22.2656C46.2305 22.1484 45.9961 22.0312 45.7617 21.9141C45.142 21.1238 44.5365 20.323 43.9453 19.5117C42.3793 17.9849 40.8559 16.4224 39.375 14.8242C36.4195 11.1764 34.8375 6.99671 34.6289 2.28516ZM32.5195 6.38672C33.6592 10.9714 35.8662 14.9558 39.1406 18.3398C40.7616 19.6477 42.1288 21.1711 43.2422 22.9102C44.7384 24.6786 46.594 25.206 48.8086 24.4922C49.4051 24.2627 49.9324 23.9306 50.3906 23.4961C50.6611 25.5516 51.0517 27.5828 51.5625 29.5898C51.9866 30.7317 52.6311 31.7278 53.4961 32.5781C49.5006 33.5407 45.9458 35.3375 42.832 37.9688C41.4792 39.2641 40.1511 40.5922 38.8477 41.9531C38.0273 42.5586 37.207 43.164 36.3867 43.7695C35.102 45.2516 34.77 46.9313 35.3906 48.8086C35.6201 49.4051 35.9522 49.9324 36.3867 50.3906C34.3312 50.6611 32.3 51.0517 30.293 51.5625C29.1511 51.9866 28.155 52.6311 27.3047 53.4961C26.3421 49.5006 24.5453 45.9458 21.9141 42.832C20.6187 41.4792 19.2906 40.1511 17.9297 38.8477C17.2949 37.7945 16.5332 36.8375 15.6445 35.9766C13.4959 34.6928 11.4451 34.8294 9.49219 36.3867C9.22171 34.3312 8.83109 32.3 8.32031 30.293C7.89619 29.1511 7.25166 28.155 6.38672 27.3047C10.3828 26.3419 13.9375 24.545 17.0508 21.9141C18.4036 20.6187 19.7317 19.2906 21.0352 17.9297C22.0883 17.2949 23.0453 16.5332 23.9062 15.6445C25.19 13.4959 25.0534 11.4451 23.4961 9.49219C25.5516 9.22171 27.5828 8.83109 29.5898 8.32031C30.731 7.90729 31.7075 7.26275 32.5195 6.38672ZM25.7227 25.957C27.0027 25.7361 27.9206 26.2049 28.4766 27.3633C28.597 27.9643 28.89 28.4525 29.3555 28.8281C29.9239 28.9755 30.4318 28.8778 30.8789 28.5352C31.1432 27.7137 31.5729 26.991 32.168 26.3672C33.6221 25.5582 34.7354 25.8902 35.5078 27.3633C35.7422 28.1054 35.7422 28.8477 35.5078 29.5898C35.2024 30.1682 34.8509 30.7151 34.4531 31.2305C32.9822 32.5999 31.4783 33.928 29.9414 35.2148C28.4592 33.9476 26.9944 32.6585 25.5469 31.3477C25.069 30.8222 24.6784 30.2362 24.375 29.5898C23.8679 28.0041 24.3171 26.7932 25.7227 25.957ZM2.28516 27.832C4.21636 28.3372 5.4859 29.5481 6.09375 31.4648C6.56026 33.7171 6.95088 35.9827 7.26562 38.2617C7.71966 40.6538 8.73528 42.7631 10.3125 44.5898C11.3518 45.8245 12.5041 46.9378 13.7695 47.9297C14.7619 48.1484 15.3478 47.7577 15.5273 46.7578C15.4519 46.4367 15.3151 46.1437 15.1172 45.8789C13.4157 44.4124 11.9704 42.7327 10.7812 40.8398C10.2744 39.4903 10.6455 38.4551 11.8945 37.7344C12.6765 37.4493 13.4188 37.5274 14.1211 37.9688C14.7408 38.7591 15.3463 39.5598 15.9375 40.3711C17.5035 41.8979 19.0269 43.4604 20.5078 45.0586C23.4633 48.7064 25.0453 52.8861 25.2539 57.5977C21.9717 57.6367 18.6905 57.5977 15.4102 57.4805C14.8856 56.3509 14.2411 55.2962 13.4766 54.3164C11.644 52.3666 9.76903 50.4526 7.85156 48.5742C4.68206 45.0062 2.88518 40.8266 2.46094 36.0352C2.321 33.3026 2.26241 30.5681 2.28516 27.832Z" fill="#0569B6"/>
<path opacity="0.943" fill-rule="evenodd" clip-rule="evenodd" d="M25.371 23.4959C27.1608 23.2332 28.6842 23.7409 29.9413 25.0193C31.8244 23.2825 33.8947 23.0286 36.1522 24.2576C38.1567 26.0456 38.6841 28.2135 37.7343 30.7615C36.9946 32.0489 36.0766 33.2013 34.9803 34.2186C33.4959 35.4686 32.0116 36.7185 30.5272 37.9686C29.9783 38.0977 29.4705 38.0197 29.0038 37.7342C27.6321 36.4795 26.2259 35.2684 24.785 34.1014C23.5929 33.0668 22.675 31.8364 22.0311 30.41C21.0886 27.0614 22.2019 24.7568 25.371 23.4959ZM25.7225 25.9568C24.317 26.793 23.8678 28.0039 24.3749 29.5897C24.6783 30.2361 25.0689 30.822 25.5468 31.3475C26.9943 32.6583 28.4591 33.9474 29.9413 35.2147C31.4782 33.9278 32.9821 32.5997 34.453 31.2303C34.8507 30.7149 35.2023 30.168 35.5077 29.5897C35.7421 28.8475 35.7421 28.1052 35.5077 27.3631C34.7353 25.89 33.622 25.5581 32.1678 26.367C31.5728 26.9908 31.143 27.7135 30.8788 28.535C30.4317 28.8776 29.9238 28.9754 29.3553 28.8279C28.8899 28.4523 28.5969 27.9641 28.4764 27.3631C27.9205 26.2047 27.0026 25.7359 25.7225 25.9568Z" fill="#0569B6"/>
<path opacity="0.908" fill-rule="evenodd" clip-rule="evenodd" d="M48.8087 51.7382C50.1943 51.5417 50.7608 52.1277 50.5079 53.496C50.0796 54.0555 49.5132 54.2313 48.8087 54.0233C48.2491 53.595 48.0733 53.0286 48.2813 52.3241C48.4414 52.1059 48.6172 51.9107 48.8087 51.7382Z" fill="#0569B6"/>
</g>
<defs>
<clipPath id="clip0_1156_230">
<rect width="60" height="60" fill="white"/>
</clipPath>
</defs>
</svg>
