<svg width="60" height="60" viewBox="0 0 60 60" fill="none" xmlns="http://www.w3.org/2000/svg">
<g clip-path="url(#clip0_1156_61)">
<path opacity="0.87" fill-rule="evenodd" clip-rule="evenodd" d="M59.9414 29.0039C59.9414 29.4336 59.9414 29.8632 59.9414 30.293C59.7796 30.5946 59.5842 30.8876 59.3555 31.1719C57.7148 32.1875 56.0742 33.2031 54.4336 34.2188C53.7777 34.3466 53.1527 34.2684 52.5586 33.9844C52.1426 33.5293 51.7714 33.0411 51.4453 32.5195C50.1562 33.3398 48.8672 34.1602 47.5781 34.9805C47.6332 36.1889 47.4184 37.3413 46.9336 38.4375C47.591 39.2872 47.8059 40.2443 47.5781 41.3086C47.4207 41.7785 47.1669 42.1887 46.8164 42.5391C46.3364 42.8572 45.8286 43.1111 45.293 43.3008C46.0446 45.0105 45.615 46.3191 44.0039 47.2266C43.3421 47.4218 42.6782 47.4414 42.0117 47.2852C41.9597 49.2117 40.983 50.2664 39.082 50.4492C38.6476 50.3893 38.2179 50.3112 37.793 50.2148C37.7945 52.0887 36.857 53.1042 34.9805 53.2617C34.5383 53.2195 34.1087 53.1219 33.6914 52.9688C32.4606 52.2165 31.2105 51.4938 29.9414 50.8008C28.6324 51.5921 27.3042 52.3539 25.957 53.0859C24.6442 53.512 23.4919 53.2581 22.5 52.3242C22.0355 51.6571 21.8597 50.9148 21.9727 50.0977C19.7153 50.6884 18.3482 49.8485 17.8711 47.5781C17.947 47.4094 17.9861 47.2336 17.9883 47.0508C16.224 47.4867 14.9545 46.9008 14.1797 45.293C14.037 44.4926 14.1346 43.7309 14.4727 43.0078C12.6195 42.5207 11.8577 41.3292 12.1875 39.4336C12.3279 39.0007 12.5428 38.61 12.832 38.2617C12.4434 37.2054 12.2677 36.1116 12.3047 34.9805C11.0156 34.1602 9.72656 33.3398 8.4375 32.5195C8.11138 33.0411 7.74028 33.5293 7.32422 33.9844C6.7301 34.2684 6.10511 34.3466 5.44922 34.2188C3.80859 33.2031 2.16797 32.1875 0.527344 31.1719C0.29855 30.8876 0.103238 30.5946 -0.0585938 30.293C-0.0585938 29.8632 -0.0585938 29.4336 -0.0585938 29.0039C2.9934 24.093 6.07935 19.1907 9.19922 14.2969C9.93701 13.8533 10.7183 13.7752 11.543 14.0625C13.0274 15 14.5117 15.9375 15.9961 16.875C16.6918 17.4388 16.9458 18.1615 16.7578 19.043C16.5338 19.5305 16.2798 19.9992 15.9961 20.4492C16.4648 20.7618 16.9336 21.0742 17.4023 21.3867C17.4414 21.3477 17.4805 21.3086 17.5195 21.2695C17.0081 18.78 16.8909 16.28 17.168 13.7695C20.8789 11.6406 24.5898 9.51172 28.3008 7.38281C28.8396 7.09361 29.3865 6.83971 29.9414 6.62109C30.2377 6.65189 30.5111 6.74954 30.7617 6.91406C34.717 9.17498 38.682 11.4211 42.6562 13.6523C42.9964 16.1965 42.8987 18.7356 42.3633 21.2695C42.4023 21.3086 42.4414 21.3477 42.4805 21.3867C42.9492 21.0742 43.418 20.7618 43.8867 20.4492C43.4646 19.8599 43.1911 19.2154 43.0664 18.5156C43.0589 17.8275 43.3323 17.2807 43.8867 16.875C45.3711 15.9375 46.8554 15 48.3398 14.0625C49.1646 13.7752 49.9458 13.8533 50.6836 14.2969C53.8035 19.1907 56.8894 24.093 59.9414 29.0039ZM29.707 7.79297C29.9596 7.77797 30.1939 7.83656 30.4102 7.96875C34.1412 10.1273 37.8912 12.2562 41.6602 14.3555C42.1529 22.9193 39.1061 29.931 32.5195 35.3906C31.7078 36.0261 30.8484 36.5925 29.9414 37.0898C23.662 33.2104 19.8144 27.6245 18.3984 20.332C18.0578 18.3368 17.9992 16.3446 18.2227 14.3555C22.0855 12.2074 25.9137 10.0199 29.707 7.79297ZM10.1367 14.9414C10.5058 14.9075 10.8573 14.9661 11.1914 15.1172C12.5388 16.0058 13.9061 16.8653 15.293 17.6953C15.6788 17.978 15.8155 18.3491 15.7031 18.8086C12.7637 23.5549 9.79494 28.2814 6.79688 32.9883C6.49464 33.2047 6.16261 33.2633 5.80078 33.1641C4.16868 32.2018 2.58664 31.1666 1.05469 30.0586C0.976562 29.7852 0.976562 29.5117 1.05469 29.2383C4.05402 24.4495 7.08136 19.6839 10.1367 14.9414ZM48.9258 14.9414C49.4425 14.838 49.8526 14.9944 50.1562 15.4102C53.0469 20.0195 55.9375 24.6289 58.8281 29.2383C58.9896 29.7537 58.853 30.1638 58.418 30.4688C56.9727 31.3672 55.5273 32.2656 54.082 33.1641C53.7202 33.2633 53.3882 33.2047 53.0859 32.9883C50.0879 28.2814 47.1191 23.5549 44.1797 18.8086C44.0673 18.3491 44.2041 17.978 44.5898 17.6953C46.0555 16.7934 47.5008 15.8754 48.9258 14.9414ZM35.2148 16.1133C35.8957 16.2647 36.1105 16.6553 35.8594 17.2852C33.75 20.2539 31.6406 23.2227 29.5312 26.1914C29.3298 26.51 29.0563 26.7444 28.7109 26.8945C27.0804 25.4987 25.5178 24.0143 24.0234 22.4414C23.7661 21.6435 24.0591 21.3114 24.9023 21.4453C25.957 22.5 27.0117 23.5547 28.0664 24.6094C28.285 24.7618 28.5193 24.801 28.7695 24.7266C30.6578 22.2588 32.4742 19.7393 34.2188 17.168C34.4955 16.7546 34.8277 16.4031 35.2148 16.1133ZM10.7227 18.3398C12.189 18.307 12.6773 18.9711 12.1875 20.332C11.4501 20.9822 10.747 20.9432 10.0781 20.2148C9.76932 19.4027 9.98418 18.7778 10.7227 18.3398ZM48.2227 18.3398C49.5892 18.2795 50.1165 18.9045 49.8047 20.2148C49.4018 20.7517 48.8745 20.9275 48.2227 20.7422C47.137 19.937 47.137 19.1361 48.2227 18.3398ZM15.293 21.3867C16.1441 21.8648 16.984 22.3727 17.8125 22.9102C19.8064 29.5113 23.7322 34.609 29.5898 38.2031C29.8242 38.2813 30.0586 38.2813 30.293 38.2031C32.649 36.7703 34.7584 35.0319 36.6211 32.9883C39.7618 34.977 42.8869 36.9886 45.9961 39.0234C46.7207 39.8989 46.7597 40.7974 46.1133 41.7188C45.6185 42.0833 45.0716 42.2005 44.4727 42.0703C41.8786 40.5975 39.3396 39.035 36.8555 37.3828C36.0352 37.3046 35.8398 37.6172 36.2695 38.3203C38.7503 39.8536 41.2112 41.4161 43.6523 43.0078C44.5923 43.7168 44.8071 44.5957 44.2969 45.6445C43.6646 46.3534 42.9029 46.5292 42.0117 46.1719C39.5118 44.4531 37.0117 42.7344 34.5117 41.0156C34.0512 40.8491 33.7386 40.9859 33.5742 41.4258C33.6478 41.6318 33.765 41.8076 33.9258 41.9531C36.1589 43.4051 38.3269 44.9481 40.4297 46.582C41.0026 47.4285 40.944 48.2293 40.2539 48.9844C39.6654 49.3951 39.0404 49.4733 38.3789 49.2188C37.7539 48.8282 37.1289 48.4375 36.5039 48.0469C34.7851 46.7188 33.0664 45.3906 31.3477 44.0625C30.4731 43.882 30.2387 44.175 30.6445 44.9414C32.6359 46.3955 34.5695 47.9189 36.4453 49.5117C37.0718 51.2482 36.4663 52.1271 34.6289 52.1484C34.2635 52.0243 33.912 51.8681 33.5742 51.6797C32.6718 51.1901 31.8124 50.6432 30.9961 50.0391C32.1101 48.6362 32.0711 47.269 30.8789 45.9375C29.9135 45.2674 28.8783 45.1307 27.7734 45.5273C27.6804 42.9721 26.3913 41.9565 23.9062 42.4805C24.0987 40.6596 23.2978 39.5463 21.5039 39.1406C21.9492 38.1961 21.9688 37.2391 21.5625 36.2695C20.7645 35.1697 19.6902 34.7596 18.3398 35.0391C16.7486 35.7566 15.2251 36.5964 13.7695 37.5586C13.6059 37.2689 13.5082 36.9565 13.4766 36.6211C13.429 35.9147 13.429 35.2116 13.4766 34.5117C12.0045 33.4696 10.5006 32.4735 8.96484 31.5234C11.1208 28.1675 13.2301 24.7886 15.293 21.3867ZM44.3555 21.3867C44.5399 21.4379 44.6767 21.5551 44.7656 21.7383C46.7725 25.0296 48.8232 28.2913 50.918 31.5234C49.3822 32.4735 47.8784 33.4696 46.4062 34.5117C46.4538 35.2116 46.4538 35.9147 46.4062 36.6211C46.36 37.0335 46.2428 37.4241 46.0547 37.793C43.2326 35.9619 40.4006 34.1455 37.5586 32.3438C39.0659 32.1735 40.4331 31.6461 41.6602 30.7617C41.8339 30.3279 41.6972 30.0545 41.25 29.9414C40.5394 30.2868 39.8167 30.6187 39.082 30.9375C38.7252 31.0446 38.3736 31.1228 38.0273 31.1719C39.8426 28.6611 41.1902 25.9072 42.0703 22.9102C42.87 22.4432 43.6317 21.9354 44.3555 21.3867ZM18.5742 36.0352C20.5427 35.9886 21.1873 36.887 20.5078 38.7305C20.2494 39.0281 19.9564 39.2821 19.6289 39.4922C18.3398 40.2343 17.0508 40.9766 15.7617 41.7188C14.6604 42.1335 13.8205 41.8405 13.2422 40.8398C13.0263 39.7677 13.3973 38.967 14.3555 38.4375C15.7537 37.6023 17.16 36.8014 18.5742 36.0352ZM20.4492 40.2539C21.778 40.0186 22.5983 40.5459 22.9102 41.8359C22.8114 42.502 22.4988 43.0488 21.9727 43.4766C20.6446 44.2579 19.3164 45.039 17.9883 45.8203C16.1166 46.4789 15.1985 45.8344 15.2344 43.8867C15.438 43.4483 15.731 43.0772 16.1133 42.7734C17.5659 41.9305 19.0113 41.0906 20.4492 40.2539ZM24.5508 43.3008C26.4033 43.3743 27.0088 44.2726 26.3672 45.9961C26.0699 46.3327 25.7379 46.6256 25.3711 46.875C24.141 47.5486 22.9301 48.2517 21.7383 48.9844C20.2962 49.5134 19.3587 49.0446 18.9258 47.5781C19.0262 46.9083 19.3388 46.3614 19.8633 45.9375C21.4179 45.024 22.9804 44.1451 24.5508 43.3008ZM28.418 46.3477C29.6994 46.2054 30.4806 46.7523 30.7617 47.9883C30.6339 48.6932 30.2823 49.2595 29.707 49.6875C28.2807 50.5375 26.8355 51.3578 25.3711 52.1484C23.2352 52.2705 22.5907 51.3526 23.4375 49.3945C25.0405 48.2714 26.7007 47.2559 28.418 46.3477Z" fill="#0569B6"/>
<path opacity="0.856" fill-rule="evenodd" clip-rule="evenodd" d="M35.0974 15.0586C36.8343 15.2903 37.4008 16.2278 36.7967 17.8711C34.4868 21.1041 32.1626 24.3267 29.824 27.5391C29.1402 28.0155 28.4371 28.0546 27.7146 27.6562C26.1716 26.1132 24.6287 24.5704 23.0857 23.0273C22.5369 21.8611 22.8299 20.9822 23.9646 20.3906C24.7193 20.2058 25.3834 20.362 25.9568 20.8594C26.7967 21.6993 27.6365 22.539 28.4763 23.3789C30.3123 20.8008 32.1482 18.2227 33.9842 15.6445C34.3248 15.367 34.696 15.1717 35.0974 15.0586ZM35.2146 16.1133C34.8274 16.4031 34.4953 16.7546 34.2185 17.168C32.474 19.7393 30.6576 22.2588 28.7693 24.7266C28.5191 24.801 28.2847 24.7618 28.0662 24.6094C27.0115 23.5547 25.9568 22.5 24.9021 21.4453C24.0588 21.3114 23.7659 21.6435 24.0232 22.4414C25.5176 24.0143 27.0802 25.4987 28.7107 26.8945C29.0561 26.7444 29.3296 26.51 29.531 26.1914C31.6404 23.2227 33.7498 20.2539 35.8592 17.2852C36.1103 16.6553 35.8955 16.2647 35.2146 16.1133Z" fill="#0569B6"/>
<path opacity="0.873" fill-rule="evenodd" clip-rule="evenodd" d="M10.4882 17.2851C12.2573 17.0553 13.2728 17.817 13.5351 19.5702C13.3839 20.9911 12.6026 21.7528 11.1913 21.8554C9.3091 21.6087 8.58645 20.554 9.02338 18.6913C9.34787 18.0345 9.83614 17.5657 10.4882 17.2851ZM10.7226 18.3398C9.98411 18.7777 9.76926 19.4026 10.0781 20.2148C10.7469 20.9431 11.4501 20.9821 12.1874 20.3319C12.6773 18.971 12.189 18.3069 10.7226 18.3398Z" fill="#0569B6"/>
<path opacity="0.873" fill-rule="evenodd" clip-rule="evenodd" d="M47.9884 17.2849C49.7635 17.0493 50.779 17.8111 51.0353 19.57C50.7094 21.5502 49.5766 22.2533 47.6369 21.6794C46.507 20.9695 46.1358 19.9734 46.5236 18.6911C46.8481 18.0343 47.3364 17.5656 47.9884 17.2849ZM48.2228 18.3396C47.1372 19.1359 47.1372 19.9367 48.2228 20.7419C48.8746 20.9272 49.402 20.7514 49.8049 20.2146C50.1167 18.9042 49.5893 18.2792 48.2228 18.3396Z" fill="#0569B6"/>
</g>
<defs>
<clipPath id="clip0_1156_61">
<rect width="60" height="60" fill="white"/>
</clipPath>
</defs>
</svg>
